<mxfile host="app.diagrams.net" agent="Mozilla/5.0 (Windows NT 10.0; Win64; x64) AppleWebKit/537.36 (KHTML, like Gecko) Chrome/136.0.0.0 Safari/537.36" version="27.0.5">
  <diagram name="Page-1" id="OFBWecaAKtk5CJDf3zRL">
    <mxGraphModel dx="1781" dy="1006" grid="1" gridSize="10" guides="1" tooltips="1" connect="1" arrows="1" fold="1" page="1" pageScale="1" pageWidth="850" pageHeight="1100" math="0" shadow="0">
      <root>
        <mxCell id="0" />
        <mxCell id="1" parent="0" />
        <mxCell id="DKm6fnlWZH8XbRM5i_I6-22" value="" style="sketch=0;outlineConnect=0;fontColor=#232F3E;gradientColor=none;fillColor=#990000;strokeColor=none;dashed=0;verticalLabelPosition=bottom;verticalAlign=top;align=center;html=1;fontSize=12;fontStyle=0;aspect=fixed;pointerEvents=1;shape=mxgraph.aws4.bucket;" vertex="1" parent="1">
          <mxGeometry x="100.67" y="632.5" width="158.65" height="165" as="geometry" />
        </mxCell>
        <mxCell id="mAqsjrp67REmecemeNA1-7" value="&lt;font style=&quot;font-size: 28px;&quot;&gt;Dataflow of New York Data Bike&amp;nbsp;&lt;/font&gt;" style="rounded=1;whiteSpace=wrap;html=1;fillColor=default;gradientColor=none;fillStyle=hatch;" parent="1" vertex="1">
          <mxGeometry x="800" y="78" width="550" height="60" as="geometry" />
        </mxCell>
        <mxCell id="mAqsjrp67REmecemeNA1-12" value="&lt;font style=&quot;font-size: 24px;&quot;&gt;&lt;b style=&quot;&quot;&gt;High Level Architecture&lt;/b&gt;&lt;/font&gt;" style="text;html=1;align=center;verticalAlign=middle;whiteSpace=wrap;rounded=0;" parent="1" vertex="1">
          <mxGeometry y="28" width="290" height="50" as="geometry" />
        </mxCell>
        <mxCell id="DKm6fnlWZH8XbRM5i_I6-15" value="" style="edgeStyle=orthogonalEdgeStyle;rounded=0;orthogonalLoop=1;jettySize=auto;html=1;" edge="1" parent="1" source="mAqsjrp67REmecemeNA1-14" target="DKm6fnlWZH8XbRM5i_I6-14">
          <mxGeometry relative="1" as="geometry" />
        </mxCell>
        <mxCell id="mAqsjrp67REmecemeNA1-14" value="" style="rounded=0;whiteSpace=wrap;html=1;dashed=1;fillColor=none;" parent="1" vertex="1">
          <mxGeometry x="360" y="240" width="1240" height="750" as="geometry" />
        </mxCell>
        <mxCell id="mAqsjrp67REmecemeNA1-16" value="DATAWARE&amp;nbsp;" style="rounded=1;whiteSpace=wrap;html=1;fillColor=default;dashed=1;strokeColor=none;" parent="1" vertex="1">
          <mxGeometry x="670" y="200" width="480" height="60" as="geometry" />
        </mxCell>
        <mxCell id="mAqsjrp67REmecemeNA1-20" value="" style="rounded=0;whiteSpace=wrap;html=1;dashed=1;strokeColor=light-dark(#080707, #ededed);fillColor=none;" parent="1" vertex="1">
          <mxGeometry x="80" y="302" width="200" height="620" as="geometry" />
        </mxCell>
        <mxCell id="mAqsjrp67REmecemeNA1-21" value="&lt;font style=&quot;font-size: 15px;&quot;&gt;SOURCE&lt;/font&gt;" style="rounded=0;whiteSpace=wrap;html=1;strokeColor=none;" parent="1" vertex="1">
          <mxGeometry x="118" y="272" width="120" height="60" as="geometry" />
        </mxCell>
        <mxCell id="mAqsjrp67REmecemeNA1-26" value="&lt;font style=&quot;font-size: 23px;&quot;&gt;Bonze Layer&lt;/font&gt;" style="rounded=0;whiteSpace=wrap;html=1;fillColor=#ffe6cc;strokeColor=#d79b00;" parent="1" vertex="1">
          <mxGeometry x="390" y="280" width="300" height="40" as="geometry" />
        </mxCell>
        <mxCell id="mAqsjrp67REmecemeNA1-27" value="" style="rounded=0;whiteSpace=wrap;html=1;fillColor=none;strokeColor=#FFCC99;" parent="1" vertex="1">
          <mxGeometry x="390" y="323" width="300" height="570" as="geometry" />
        </mxCell>
        <mxCell id="mAqsjrp67REmecemeNA1-30" value="&lt;font style=&quot;font-size: 23px;&quot;&gt;Silver Layer&lt;/font&gt;" style="rounded=0;whiteSpace=wrap;html=1;fillColor=#CCCCCC;strokeColor=#CCCCCC;" parent="1" vertex="1">
          <mxGeometry x="830" y="283" width="290" height="40" as="geometry" />
        </mxCell>
        <mxCell id="mAqsjrp67REmecemeNA1-31" value="" style="rounded=0;whiteSpace=wrap;html=1;fillColor=none;strokeColor=#B3B3B3;" parent="1" vertex="1">
          <mxGeometry x="830" y="323" width="290" height="570" as="geometry" />
        </mxCell>
        <mxCell id="mAqsjrp67REmecemeNA1-32" value="&lt;font style=&quot;font-size: 23px;&quot;&gt;GoldLayer&lt;/font&gt;" style="rounded=0;whiteSpace=wrap;html=1;fillColor=#FF9933;strokeColor=#d79b00;" parent="1" vertex="1">
          <mxGeometry x="1250" y="290" width="310" height="40" as="geometry" />
        </mxCell>
        <mxCell id="mAqsjrp67REmecemeNA1-33" value="" style="rounded=0;whiteSpace=wrap;html=1;fillColor=none;strokeColor=#FF9933;" parent="1" vertex="1">
          <mxGeometry x="1250" y="330" width="310" height="570" as="geometry" />
        </mxCell>
        <mxCell id="mAqsjrp67REmecemeNA1-34" value="" style="whiteSpace=wrap;html=1;shape=mxgraph.basic.document" parent="1" vertex="1">
          <mxGeometry x="140" y="460" width="62" height="60" as="geometry" />
        </mxCell>
        <mxCell id="mAqsjrp67REmecemeNA1-35" value="" style="image;html=1;image=img/lib/clip_art/general/Full_Folder_128x128.png" parent="1" vertex="1">
          <mxGeometry x="150" y="490" width="80" height="80" as="geometry" />
        </mxCell>
        <mxCell id="mAqsjrp67REmecemeNA1-36" value="&lt;font style=&quot;font-size: 18px;&quot;&gt;CSV files&lt;/font&gt;" style="text;html=1;align=center;verticalAlign=middle;whiteSpace=wrap;rounded=0;" parent="1" vertex="1">
          <mxGeometry x="115" y="560" width="105" height="40" as="geometry" />
        </mxCell>
        <mxCell id="mAqsjrp67REmecemeNA1-43" value="" style="shape=flexArrow;endArrow=classic;html=1;rounded=0;exitX=0.979;exitY=0.406;exitDx=0;exitDy=0;exitPerimeter=0;" parent="1" edge="1">
          <mxGeometry width="50" height="50" relative="1" as="geometry">
            <mxPoint x="275.7999999999997" y="588.7199999999998" as="sourcePoint" />
            <mxPoint x="350" y="589" as="targetPoint" />
          </mxGeometry>
        </mxCell>
        <mxCell id="mAqsjrp67REmecemeNA1-44" value="" style="shape=singleArrow;whiteSpace=wrap;html=1;arrowWidth=0.4;arrowSize=0.4;fillColor=none;strokeColor=#000000;rounded=0;" parent="1" vertex="1">
          <mxGeometry x="690" y="560" width="140" height="60" as="geometry" />
        </mxCell>
        <mxCell id="mAqsjrp67REmecemeNA1-46" value="" style="shape=singleArrow;whiteSpace=wrap;html=1;arrowWidth=0.4;arrowSize=0.4;fillColor=none;strokeColor=#000000;rounded=0;" parent="1" vertex="1">
          <mxGeometry x="1120" y="570" width="130" height="60" as="geometry" />
        </mxCell>
        <mxCell id="mAqsjrp67REmecemeNA1-49" value="Iceberg" style="html=1;verticalLabelPosition=bottom;align=center;labelBackgroundColor=#ffffff;verticalAlign=top;strokeWidth=2;strokeColor=#0080F0;shadow=0;dashed=0;shape=mxgraph.ios7.icons.data;" parent="1" vertex="1">
          <mxGeometry x="592" y="480" width="80" height="80" as="geometry" />
        </mxCell>
        <mxCell id="mAqsjrp67REmecemeNA1-52" value="" style="line;strokeWidth=2;html=1;" parent="1" vertex="1">
          <mxGeometry x="410" y="585" width="245" height="10" as="geometry" />
        </mxCell>
        <mxCell id="mAqsjrp67REmecemeNA1-53" value="" style="line;strokeWidth=2;html=1;" parent="1" vertex="1">
          <mxGeometry x="850" y="585" width="245" height="10" as="geometry" />
        </mxCell>
        <mxCell id="mAqsjrp67REmecemeNA1-54" value="" style="line;strokeWidth=2;html=1;" parent="1" vertex="1">
          <mxGeometry x="1265" y="585" width="275" height="10" as="geometry" />
        </mxCell>
        <mxCell id="mAqsjrp67REmecemeNA1-55" value="&lt;h1 style=&quot;margin-top: 0px;&quot;&gt;&lt;font style=&quot;font-size: 17px;&quot;&gt;Objectirf &lt;/font&gt;&lt;font style=&quot;font-size: 17px; font-weight: normal;&quot;&gt;: RAW&amp;nbsp; data&amp;nbsp;&lt;/font&gt;&lt;/h1&gt;&lt;div&gt;&lt;font style=&quot;font-size: 17px;&quot;&gt;&lt;b&gt;Load &lt;/b&gt;&lt;/font&gt;&lt;font style=&quot;font-size: 17px; font-weight: normal;&quot;&gt;:&lt;/font&gt;&lt;/div&gt;&lt;div&gt;&lt;ul&gt;&lt;li&gt;&lt;span style=&quot;font-size: 17px; background-color: transparent; color: light-dark(rgb(0, 0, 0), rgb(255, 255, 255));&quot;&gt;Batch processing&lt;/span&gt;&lt;/li&gt;&lt;li&gt;&lt;span style=&quot;font-size: 17px; background-color: transparent; color: light-dark(rgb(0, 0, 0), rgb(255, 255, 255));&quot;&gt;Incremental&amp;nbsp;&lt;/span&gt;&lt;/li&gt;&lt;li&gt;&lt;font style=&quot;background-color: transparent; color: light-dark(rgb(0, 0, 0), rgb(255, 255, 255)); font-size: 17px;&quot;&gt;Full load&lt;span style=&quot;white-space: pre;&quot;&gt;&#x9;&lt;/span&gt;&lt;/font&gt;&lt;span style=&quot;background-color: transparent; color: light-dark(rgb(0, 0, 0), rgb(255, 255, 255)); font-size: 17px; white-space: pre;&quot;&gt;&#x9;&lt;/span&gt;&lt;span style=&quot;background-color: transparent; color: light-dark(rgb(0, 0, 0), rgb(255, 255, 255)); font-size: 17px; white-space: pre;&quot;&gt;&#x9;&lt;/span&gt;&lt;/li&gt;&lt;/ul&gt;&lt;/div&gt;&lt;div&gt;&lt;font style=&quot;font-size: 17px; font-weight: normal;&quot;&gt;&lt;br&gt;&lt;/font&gt;&lt;/div&gt;&lt;div&gt;&lt;font style=&quot;font-size: 17px; font-weight: normal;&quot;&gt;No &lt;/font&gt;&lt;font style=&quot;font-size: 17px;&quot;&gt;&lt;b&gt;transformation&amp;nbsp;&lt;/b&gt;&lt;/font&gt;&lt;/div&gt;&lt;div&gt;&lt;font style=&quot;font-size: 17px; font-weight: normal;&quot;&gt;&lt;br&gt;&lt;/font&gt;&lt;/div&gt;" style="text;html=1;whiteSpace=wrap;overflow=hidden;rounded=0;" parent="1" vertex="1">
          <mxGeometry x="400" y="600" width="290" height="230" as="geometry" />
        </mxCell>
        <mxCell id="mAqsjrp67REmecemeNA1-61" value="" style="edgeStyle=orthogonalEdgeStyle;rounded=0;orthogonalLoop=1;jettySize=auto;html=1;entryX=-0.008;entryY=0.491;entryDx=0;entryDy=0;entryPerimeter=0;" parent="1" source="mAqsjrp67REmecemeNA1-58" target="mAqsjrp67REmecemeNA1-49" edge="1">
          <mxGeometry relative="1" as="geometry">
            <mxPoint x="572" y="483" as="targetPoint" />
          </mxGeometry>
        </mxCell>
        <mxCell id="vbNbsZjijx61UtuoU1J0-12" value="write to" style="edgeLabel;html=1;align=center;verticalAlign=middle;resizable=0;points=[];" parent="mAqsjrp67REmecemeNA1-61" vertex="1" connectable="0">
          <mxGeometry x="-0.0607" y="-1" relative="1" as="geometry">
            <mxPoint as="offset" />
          </mxGeometry>
        </mxCell>
        <mxCell id="mAqsjrp67REmecemeNA1-58" value="" style="points=[];aspect=fixed;html=1;align=center;shadow=0;dashed=0;fillColor=#FF6A00;strokeColor=none;shape=mxgraph.alibaba_cloud.spark_data_insights;" parent="1" vertex="1">
          <mxGeometry x="440" y="486" width="64.55" height="70" as="geometry" />
        </mxCell>
        <mxCell id="mAqsjrp67REmecemeNA1-66" value="" style="line;strokeWidth=2;html=1;" parent="1" vertex="1">
          <mxGeometry x="105.75" y="595" width="144.5" height="10" as="geometry" />
        </mxCell>
        <mxCell id="mAqsjrp67REmecemeNA1-68" value="Postgres" style="html=1;verticalLabelPosition=bottom;align=center;labelBackgroundColor=#ffffff;verticalAlign=top;strokeWidth=2;strokeColor=#0080F0;shadow=0;dashed=0;shape=mxgraph.ios7.icons.data;" parent="1" vertex="1">
          <mxGeometry x="1015" y="470" width="80" height="80" as="geometry" />
        </mxCell>
        <mxCell id="mAqsjrp67REmecemeNA1-81" value="" style="edgeStyle=orthogonalEdgeStyle;rounded=0;orthogonalLoop=1;jettySize=auto;html=1;" parent="1" source="mAqsjrp67REmecemeNA1-70" target="mAqsjrp67REmecemeNA1-68" edge="1">
          <mxGeometry relative="1" as="geometry" />
        </mxCell>
        <mxCell id="vbNbsZjijx61UtuoU1J0-14" value="write to" style="edgeLabel;html=1;align=center;verticalAlign=middle;resizable=0;points=[];" parent="mAqsjrp67REmecemeNA1-81" vertex="1" connectable="0">
          <mxGeometry x="-0.101" y="-1" relative="1" as="geometry">
            <mxPoint as="offset" />
          </mxGeometry>
        </mxCell>
        <mxCell id="mAqsjrp67REmecemeNA1-70" value="" style="points=[];aspect=fixed;html=1;align=center;shadow=0;dashed=0;fillColor=#FF6A00;strokeColor=none;shape=mxgraph.alibaba_cloud.spark_data_insights;" parent="1" vertex="1">
          <mxGeometry x="875" y="475" width="64.55" height="70" as="geometry" />
        </mxCell>
        <mxCell id="mAqsjrp67REmecemeNA1-76" value="Postgres" style="html=1;verticalLabelPosition=bottom;align=center;labelBackgroundColor=#ffffff;verticalAlign=top;strokeWidth=2;strokeColor=#0080F0;shadow=0;dashed=0;shape=mxgraph.ios7.icons.data;" parent="1" vertex="1">
          <mxGeometry x="1425" y="484" width="80" height="80" as="geometry" />
        </mxCell>
        <mxCell id="mAqsjrp67REmecemeNA1-80" value="" style="edgeStyle=orthogonalEdgeStyle;rounded=0;orthogonalLoop=1;jettySize=auto;html=1;" parent="1" source="mAqsjrp67REmecemeNA1-77" target="mAqsjrp67REmecemeNA1-76" edge="1">
          <mxGeometry relative="1" as="geometry" />
        </mxCell>
        <mxCell id="vbNbsZjijx61UtuoU1J0-19" value="write to" style="edgeLabel;html=1;align=center;verticalAlign=middle;resizable=0;points=[];" parent="mAqsjrp67REmecemeNA1-80" vertex="1" connectable="0">
          <mxGeometry x="-0.0525" y="-1" relative="1" as="geometry">
            <mxPoint as="offset" />
          </mxGeometry>
        </mxCell>
        <mxCell id="mAqsjrp67REmecemeNA1-77" value="" style="points=[];aspect=fixed;html=1;align=center;shadow=0;dashed=0;fillColor=#FF6A00;strokeColor=none;shape=mxgraph.alibaba_cloud.spark_data_insights;" parent="1" vertex="1">
          <mxGeometry x="1276" y="489" width="64.55" height="70" as="geometry" />
        </mxCell>
        <mxCell id="mAqsjrp67REmecemeNA1-82" value="&lt;h1 style=&quot;margin-top: 0px;&quot;&gt;Objectif :&amp;nbsp;&lt;/h1&gt;&lt;p&gt;&lt;b&gt;&lt;font style=&quot;font-size: 17px;&quot;&gt;Load:&lt;/font&gt;&lt;/b&gt;&amp;nbsp;&lt;/p&gt;&lt;p&gt;&lt;/p&gt;&lt;ul&gt;&lt;li&gt;Batch processing&lt;/li&gt;&lt;li&gt;Incrmental&lt;/li&gt;&lt;li&gt;Full laod&lt;/li&gt;&lt;/ul&gt;&lt;div&gt;&lt;b&gt;&lt;font style=&quot;font-size: 14px;&quot;&gt;Transformation&lt;/font&gt;&lt;/b&gt;:&lt;/div&gt;&lt;div&gt;&lt;ul&gt;&lt;li&gt;Cleaning&lt;/li&gt;&lt;li&gt;Standardization&lt;/li&gt;&lt;li&gt;Add column ( ID , trip duration, year, month,quarter,...)&lt;/li&gt;&lt;li&gt;Transformation&lt;/li&gt;&lt;li&gt;Enrichment&lt;/li&gt;&lt;/ul&gt;&lt;/div&gt;&lt;p&gt;&lt;/p&gt;" style="text;html=1;whiteSpace=wrap;overflow=hidden;rounded=0;" parent="1" vertex="1">
          <mxGeometry x="840" y="600" width="270" height="270" as="geometry" />
        </mxCell>
        <mxCell id="vbNbsZjijx61UtuoU1J0-10" value="" style="edgeStyle=orthogonalEdgeStyle;rounded=0;orthogonalLoop=1;jettySize=auto;html=1;" parent="1" source="vbNbsZjijx61UtuoU1J0-1" target="mAqsjrp67REmecemeNA1-58" edge="1">
          <mxGeometry relative="1" as="geometry" />
        </mxCell>
        <mxCell id="vbNbsZjijx61UtuoU1J0-11" value="trigger" style="edgeLabel;html=1;align=center;verticalAlign=middle;resizable=0;points=[];" parent="vbNbsZjijx61UtuoU1J0-10" vertex="1" connectable="0">
          <mxGeometry x="-0.4834" y="-2" relative="1" as="geometry">
            <mxPoint as="offset" />
          </mxGeometry>
        </mxCell>
        <mxCell id="vbNbsZjijx61UtuoU1J0-1" value="" style="verticalLabelPosition=bottom;html=1;verticalAlign=top;align=center;strokeColor=none;fillColor=#00BEF2;shape=mxgraph.azure.scheduler;pointerEvents=1;" parent="1" vertex="1">
          <mxGeometry x="490" y="366" width="40" height="50" as="geometry" />
        </mxCell>
        <mxCell id="vbNbsZjijx61UtuoU1J0-8" value="" style="edgeStyle=orthogonalEdgeStyle;rounded=0;orthogonalLoop=1;jettySize=auto;html=1;" parent="1" source="vbNbsZjijx61UtuoU1J0-5" target="mAqsjrp67REmecemeNA1-70" edge="1">
          <mxGeometry relative="1" as="geometry" />
        </mxCell>
        <mxCell id="vbNbsZjijx61UtuoU1J0-13" value="trigger" style="edgeLabel;html=1;align=center;verticalAlign=middle;resizable=0;points=[];" parent="vbNbsZjijx61UtuoU1J0-8" vertex="1" connectable="0">
          <mxGeometry x="-0.3475" y="-1" relative="1" as="geometry">
            <mxPoint as="offset" />
          </mxGeometry>
        </mxCell>
        <mxCell id="vbNbsZjijx61UtuoU1J0-5" value="" style="verticalLabelPosition=bottom;html=1;verticalAlign=top;align=center;strokeColor=none;fillColor=#00BEF2;shape=mxgraph.azure.scheduler;pointerEvents=1;" parent="1" vertex="1">
          <mxGeometry x="900" y="358" width="40" height="50" as="geometry" />
        </mxCell>
        <mxCell id="vbNbsZjijx61UtuoU1J0-6" value="&lt;b&gt;&lt;font style=&quot;font-size: 14px;&quot;&gt;Schéduler &lt;/font&gt;: &lt;/b&gt;CRON,ARIFLOW" style="text;html=1;align=center;verticalAlign=middle;whiteSpace=wrap;rounded=0;" parent="1" vertex="1">
          <mxGeometry x="890" y="328" width="190" height="30" as="geometry" />
        </mxCell>
        <mxCell id="vbNbsZjijx61UtuoU1J0-9" value="&lt;b&gt;&lt;font style=&quot;font-size: 14px;&quot;&gt;Schéduler &lt;/font&gt;: &lt;/b&gt;CRON,ARIFLOW" style="text;html=1;align=center;verticalAlign=middle;whiteSpace=wrap;rounded=0;" parent="1" vertex="1">
          <mxGeometry x="437" y="338" width="190" height="30" as="geometry" />
        </mxCell>
        <mxCell id="vbNbsZjijx61UtuoU1J0-17" value="" style="edgeStyle=orthogonalEdgeStyle;rounded=0;orthogonalLoop=1;jettySize=auto;html=1;" parent="1" source="vbNbsZjijx61UtuoU1J0-15" target="mAqsjrp67REmecemeNA1-77" edge="1">
          <mxGeometry relative="1" as="geometry" />
        </mxCell>
        <mxCell id="vbNbsZjijx61UtuoU1J0-18" value="trigger" style="edgeLabel;html=1;align=center;verticalAlign=middle;resizable=0;points=[];" parent="vbNbsZjijx61UtuoU1J0-17" vertex="1" connectable="0">
          <mxGeometry x="-0.1619" relative="1" as="geometry">
            <mxPoint as="offset" />
          </mxGeometry>
        </mxCell>
        <mxCell id="vbNbsZjijx61UtuoU1J0-15" value="" style="verticalLabelPosition=bottom;html=1;verticalAlign=top;align=center;strokeColor=none;fillColor=#00BEF2;shape=mxgraph.azure.scheduler;pointerEvents=1;" parent="1" vertex="1">
          <mxGeometry x="1315" y="368" width="40" height="50" as="geometry" />
        </mxCell>
        <mxCell id="vbNbsZjijx61UtuoU1J0-16" value="&lt;b&gt;&lt;font style=&quot;font-size: 14px;&quot;&gt;Schéduler &lt;/font&gt;: &lt;/b&gt;CRON,ARIFLOW" style="text;html=1;align=center;verticalAlign=middle;whiteSpace=wrap;rounded=0;" parent="1" vertex="1">
          <mxGeometry x="1305" y="338" width="190" height="30" as="geometry" />
        </mxCell>
        <mxCell id="vbNbsZjijx61UtuoU1J0-22" value="&lt;h1 style=&quot;margin-top: 0px;&quot;&gt;Objectif :&amp;nbsp;&lt;/h1&gt;&lt;p&gt;&lt;b&gt;&lt;font style=&quot;font-size: 17px;&quot;&gt;Load:&lt;/font&gt;&lt;/b&gt;&amp;nbsp;&lt;/p&gt;&lt;p&gt;&lt;/p&gt;&lt;ul&gt;&lt;li&gt;Batch processing&lt;/li&gt;&lt;li&gt;Incrmental&lt;/li&gt;&lt;li&gt;Full laod&lt;/li&gt;&lt;/ul&gt;&lt;div&gt;&lt;b&gt;&lt;font style=&quot;font-size: 14px;&quot;&gt;Transformation:&lt;/font&gt;&lt;/b&gt;&lt;/div&gt;&lt;div&gt;&lt;ul&gt;&lt;li&gt;pre-aggregation for some dimension&lt;/li&gt;&lt;li&gt;Aggregation&lt;/li&gt;&lt;li&gt;Integration&lt;/li&gt;&lt;/ul&gt;&lt;/div&gt;&lt;p&gt;&lt;/p&gt;" style="text;html=1;whiteSpace=wrap;overflow=hidden;rounded=0;" parent="1" vertex="1">
          <mxGeometry x="1255" y="600" width="295" height="280" as="geometry" />
        </mxCell>
        <mxCell id="DKm6fnlWZH8XbRM5i_I6-13" value="" style="rounded=0;whiteSpace=wrap;html=1;dashed=1;fillColor=none;" vertex="1" parent="1">
          <mxGeometry x="1740" y="320" width="340" height="617" as="geometry" />
        </mxCell>
        <mxCell id="DKm6fnlWZH8XbRM5i_I6-11" value="" style="sketch=0;pointerEvents=1;shadow=0;dashed=0;html=1;strokeColor=none;fillColor=#434445;aspect=fixed;labelPosition=center;verticalLabelPosition=bottom;verticalAlign=top;align=center;outlineConnect=0;shape=mxgraph.vvd.nsx_dashboard;" vertex="1" parent="1">
          <mxGeometry x="1920" y="408" width="129.03" height="120" as="geometry" />
        </mxCell>
        <mxCell id="DKm6fnlWZH8XbRM5i_I6-10" value="" style="image;aspect=fixed;html=1;points=[];align=center;fontSize=12;image=img/lib/azure2/general/Dashboard2.svg;" vertex="1" parent="1">
          <mxGeometry x="1752.83" y="630" width="167.17" height="118" as="geometry" />
        </mxCell>
        <mxCell id="DKm6fnlWZH8XbRM5i_I6-14" value="" style="shape=singleArrow;whiteSpace=wrap;html=1;arrowWidth=0.4;arrowSize=0.4;fillColor=none;rounded=0;" vertex="1" parent="1">
          <mxGeometry x="1620" y="585" width="120" height="60" as="geometry" />
        </mxCell>
        <mxCell id="DKm6fnlWZH8XbRM5i_I6-16" value="&lt;font style=&quot;font-size: 14px;&quot;&gt;Superset&lt;/font&gt;" style="text;html=1;align=center;verticalAlign=middle;whiteSpace=wrap;rounded=0;" vertex="1" parent="1">
          <mxGeometry x="1954.51" y="540" width="60" height="30" as="geometry" />
        </mxCell>
        <mxCell id="DKm6fnlWZH8XbRM5i_I6-17" value="&lt;font style=&quot;font-size: 14px;&quot;&gt;Dremio&lt;/font&gt;" style="text;html=1;align=center;verticalAlign=middle;whiteSpace=wrap;rounded=0;" vertex="1" parent="1">
          <mxGeometry x="1800" y="760" width="60" height="30" as="geometry" />
        </mxCell>
        <mxCell id="DKm6fnlWZH8XbRM5i_I6-18" value="&lt;font style=&quot;font-size: 24px;&quot;&gt;Analytics&lt;/font&gt;" style="rounded=1;whiteSpace=wrap;html=1;dashed=1;dashPattern=1 4;strokeColor=none;" vertex="1" parent="1">
          <mxGeometry x="1800" y="290" width="220" height="60" as="geometry" />
        </mxCell>
        <mxCell id="DKm6fnlWZH8XbRM5i_I6-21" value="" style="shape=image;verticalLabelPosition=bottom;labelBackgroundColor=default;verticalAlign=top;aspect=fixed;imageAspect=0;image=data:image/png,iVBORw0KGgoAAAANSUhEUgAAAlIAAASwCAYAAAAwg6TAAAAAAXNSR0IArs4c6QAAIABJREFUeF7svQecZGlV93/uvVU3VOxQXalznO7pnp68sLACCxh4TYvKggjIiyQFFRWRF+EFkfAHQRGQIKCAmFhgUf8gBlbixsmdc6zqCp0q3Vi37vt5nppZFtjd6elYVffU5zOfhd17n/A9T0/9+pzznMMAfpAAEkACSAAJIAEkgAR2RYDZ1Vv4EhJAAkgACSABJIAEkACgkMJDgASQABJAAkgACSCBXRJAIbVLcPgaEkACSAAJIAEkgARQSOEZQAJIAAkgASSABJDALgmgkNolOHwNCSABJIAEkAASQAIopPAMIAEkgASQABJAAkhglwRQSO0SHL6GBJAAEkACSAAJIAEUUngGkAASQAJIAAkgASSwSwIopHYJDl9DAkgACSABJIAEkAAKKTwDSAAJIIEdErDuv1/KeRrbOTC7jHwhUsypYUvVW4qa3G4kNiQttcEW8zJYugGWaQJYFh2ZYRlgOAewkgjOOi9wfq/OOvkF1iVcFRrqM456X1yvEx8ODg7md7gUfAwJIIEKIYBCqkIMgctAAkjgcAlYlsXAPfew8IIXMHDx4qN/F+Ylf69lln6mVNRfYKn6eTWW5JTZJVDmlkGNJaC4sQ2mrDwqkva8aoYBhmWBEXngvB6QOprB1dkGQnsUxGjQYH3er7OS8G3O5bzPzTBTsLFh0jnPnrXgnnsseMELSgzDlBUbfpAAEjh0AiikDh05TogEkMBRELDWck1KSe4r6aYXNJn4ifotE+6wDO2OYq4QKm5noZjNg57eAHU5DtpaGsx8AYq5AvUwlTQdoFgEq3RdsxBv03WP0573wzAARFCRfxLvFe8EThKBc0vgbKyjAstR5wMh0gR8OAjOOh84/J51lhe+y7DsfSXOmuV8PuAcTpXRS8tCemWFOXfO2PO6cAAkgARuSgCF1E0R4QNIAAlUKwE9tXXKNPRfYIolj2lo3VbR/AlTVprMTA609S0obm5ToWSkN8HY2gazoFBvU0nRaGjOzCtgGQZYpdIPRFOpVNZPN4TUfogpli0LKIYF2riLZYF1OIBxOoDhWACOA1bggSVeK5cEnM8DDp8X+EA9OAMN4AzUA99YD5zXnWccjktOl+sqwztUyywlBY7/MhOpX6xWG+K6kUClE0AhVekWwvUhASRwSwSsdDqqGfAOsEpnTVVtsDS92cgWnMWtbepl0te3qKfJ2MqAmc1BiYgnRQVT0aCkauX8JsOgQumHBNMtrWIfHibeKfK57qliHByAgwPG6QSWdwIrCuDwuoAlwsrlAme9H5zBBuCbGoEPNoKz3keElcK53Cssy+QthvmmoOb/L9PZqe7D6nAIJIAErhNAIYVHAQkggaomYFmWA7a3Pbpi3mlZ5pesYpElniUjkwUSrtPiSdCS61DcyoJJvE/bWSgVZCgWFBquI3+ocCqWU4+q4kPElZMDxuEA1umkIUDW4wJWEMBBwoFNDeAkgor8CRFR5ad/SLI7ABNnOOaVqq486G9ryzAMU6qKPeMikUCFEkAhVaGGwWUhASTw5ASyq6uNDsv5LI6xBkrF0htNTfUXszkw1rdBT2+CniTep00wt3NgbGdomM4sFKCklj1OVtH8oZt11cybCCrisSLeKs4jUcFEQoDOBj84G+rKob9QAJyN5RAgCQuyIp/nHM4/LEFpQVacDzZ0N2SqmQGuHQkcFQEUUkdFHudFAkhgVwQ2ZjZ8Xq/58qJRuhOKxi+YBYUlCeIkz0lLboCeWgdjcxuMzQyQXCgStiM5TyVdBzCJeHpMvtOuVlDBLxFP1WNyqjiXCKxbAoffR0N9PMmnop6qeuqtIiKLdUnbnCD8l8Uw35Cag39TwbvDpSGBiiSAQqoizYKLQgJI4PEIaGvJN5VK8FpL10PFbN6lJ9KgxpJgrG+BlkhR8VTcytDbdyWN3LTTwDKKAI9NFrcL2us3AVkSAhTLHiqHzw2OOj8N/fHX/wjBAM2tcvp9OVaS4haUPiA1hz9tF0y4TySwVwIopPZKEN9HAkjgQAlYC1t1uqA/x7KsD5Y0o52E6UjSuLoSh+L6NqhrSTA2tqFIPFDkxh1JFid/iiRh/ECXVlWD36hVRfOo/B5wUA9VI731xwcbQAgHgQ81gLO+noQGRywGXi25hUmmvn67qjaKi0UCh0wAhdQhA8fpkAAS2BkBa3PTryvm86xS8WWmrj+PiCUSwlMWV8FIbtAEchLOK+byNP+Jhu5I3lOxuLMJbPoUqbIO5OafwAPncdOQXzmH6npyejgIAklQb2wARnB+g+OdHxd04TtMJwoqmx4Z3PZNCKCQwiOCBJBARREgFceL6fQdpmG9saRpP2lsZyV1ZQ20WKJcvmAtRZPISfjOlFWwSKHMG7lPFbWTCl8MqVvFkvpUTmDdLnA2+MDZUA9CNFQO+0WIh4rmUW06vZ77WQf8KR+JPFzhu8LlIYFDJ4BC6tCR44RIAAk8GQEtnv5qqVh8lpHJ+NWlOKira6DFU6CTMgaJNBRzcjn3idR8IiUL9qMgpp1NcqMAKM+XewGSkF+4CfhgAPhIE4hEUEWDpML6Nu/xXHWGA89lGAbdfnY+M7j3HyKAQgoPBBJAAkdOwEqlPJoJz7CK5idNWWkhPe3UhRXQYsnyH3ITbysLFrl9dyOB/MhXXYML4NhysU9JAkeDD8TmMC2ZIDaHQGgOgxANkmT1BOtwvlktqf9S39mJ+VM1eAxwS7dGAIXUrfHCp5EAEthnAtraxnHLLL7OVNVXaYm0U4utgTK3AtpaEnRSzoDUgiIhPFUv5z+hB2qfLfA4wzm4cqFPjwscDX4QQk0gEDFF8qdawyCEm8Dhdv0dJ0r/P9/cdA82TT54k+AMlUsAhVTl2gZXhgRqnoAWS7/dssy79PXNU8pyHJR54oVKAMmJIrWgSCXykqKWC2feaBZc81QqZIOkJhXLAkP6+7ldtK8fHw3RHCqxNQIiCfeFm7adbulzFgd/LkWjyxWyclwGEjhUAiikDhU3ToYEkAAhYG1s+DSt9P6Sov6GGltzFKbmywJqOQ7aWgrMrExLGdzoeYfUjpYArZwu8uDwuGj+1KNiqjUKYlukxAcaNLOkd3k6OxNHu1KcHQkcPgEUUofPHGdEArYlYL3jHazyG689z5RK/2xsZdrlhRVQ55ZAWYrRwppF4oUqkGRychMPW8BV1EGh/f0c5YT0Oh8ILSF6s09qbwGxvZkmpTu8nk9ZXOldYiSyguG+irIeLuYACaCQOkC4ODQSQAI/IJCNxwM8cL9iyupHtbUUJ88sgjy3DNpqHPTEerkaOQnjkUrk+KlcAhwLjJMHzlsO95GEdKE1AlJnC4gtEeAb6r/DieKHhdbQlyt3E7gyJLB/BFBI7R9LHAkJIIEnICCvrrawjPOj+ub2c9TFVY9MvFBzy7S0gbGRgVJehpKhYx5UtZwg0n6G3PATiXfKC3w4AGJbFKSOFvqHDwdTznr/RSHS9HMMw6BrsVrsiuvcFQEUUrvChi8hASSwUwKWZbHqasLQk+ssyYVSFlZAnlkoe6EypCp5AW/i7RRmpT1Hwn28EzgS7muqB6ElAlJHK/VOSb3t4PT7L7Os44Via3Cm0paO60EC+0UAhdR+kcRxkAAS+CEClmVJxeTG7Yas/ou6suqRp0kobwlISI82F87laUkDLGdQAweHlEsQBZo7RZLRpY5mEDtawd3bQQp7brJu8Q/F6YnPM3feiXHbGjA3buGHCaCQwhOBBJDAvhNIT6a9Pk/xDXom91plKRYl4kmZWaS38kjPPDMvY0+8fad+xAOSUJ/DAZzXDc6mBpo35epqA6m7HaT2KHAe7/skQfokE65bOOKV4vRIYF8JoJDaV5w4GBJAAoSAupr8urax8Qx5Zsmtzq9AYWKWljUwtjJQklWAEqbN1ORJIaE+4p2SBNKjj9adImLK1d0Grt4u0+H3XGJ455ullvB9Nbl/3JQtCaCQsqXZcdNI4GAIWCsrksbxI+paslueWqS5UIWJOdBT5Xwo2mAYK5MfDPwKGpXhOACnAxx+DwiRIC2P4D7WBa6+Tlol3SGwZ53R6BVMRK8go+FSdk0AhdSu0eGLSAAJPJaAEo+3WYr5t2oi/WxlbhEK47OgzC2BllynFcot3UBgdiJwIxGdFPEMNtJefVRM9XaA1N4MrFt8hamxX/d0hZJ2woJ7rT0CKKRqz6a4IyRw6ATyC6kwaypfUGKJ5yizS5AfmwFlYRmM9GZZRBXNQ18TTlgBBGiozwGsS6ShPqElDK6eDuqZcvW0aZwk3cuJ3J8Kkch4BawWl4AEdkUAhdSusOFLSAAJ3CCQnZoKOHjPw8r8UmeBFNmcmAV5drFcH4q0eSF98vBjawIMKeIpCOCs9wHfHKYlEtwDJNTXZTrrfQsGW3qKv7V109aQcPNVSwCFVNWaDheOBI6WgGVZjLay0lUymf8szCx2KdMLQOpEkbwoIqIsVQMLk8qP1kiVNDvxTok8OP1e2lqGND72DPXRUJ8QDoIoOiLQ1JTE1jKVZDRcy04IoJDaCSV8BgkggR8jkF9ZGWYK+sfkpdjT5ekFkKeJiFoCY30LSpqGVcrxzPw4get5Uw6vB/hQI62GTsSU1NMOYnMo7hSllzjCge8yDIP1pvD8VA0BFFJVYypcKBKoHAKFxXQE1NyX5YWV20mNKFqxnITzqIjCm3mVY6kKXMmNvCmPRJPQSeK5+3gvLZMgtkXnHG7pj/i//vi9zDvegTUyKtB8uKTH+f0AoSABJIAEboXA5tycX2TFKXlqLpQnoTzyZ3oBipvbUCI387C8wa3gtO+zHAecWwKeFu+MgmewhxbvdHW3ZVnJ9ftSc/Az9oWDO68mAuiRqiZr4VqRwBEToJ4oU/mGPL80LE/MQ4GE86bmabVyWt4ARdQRW6jKpudY4FwS8IEG4FvDNF/KQ7xTPe3ASMKb8k7u48FgMF9lu8Ll2owACimbGRy3iwR2S0BeWW8uqbnPaMtrP01CeYXJORrSM9JbYOkYztstV9u/R8QUaXrcWA9CW7npsWf4GEhdbVne4/pL3pT+gmmv27I9JwRQsQRQSFWsaXBhSKCyCMjzK99Sl+PPJF6owthMWUStb0IJGw9XlqGqcTUsCywVU3X0Np/U2VK+0dfXlXG4pU+LLZE3VuO2cM32IIBCyh52xl0igT0RUNdS1+S55RMkjJcfmYL8+CwUN7bKOVFY4mBPbPHl6wRYBlixLKZI4U6pqxW8w/3gPtZT5DzCx8VI+HeQFRKoRAIopCrRKrgmJFAhBOLxuKtOt95vpDd+Kz82w+RHpyA/MQtGagMszcBimxVip5pZBvFMiQLwjXXAEzHV2Qre08fB099tMaL4HrnAvb+xtzFbM/vFjdQEARRSNWFG3AQS2H8ClmVxymL8Bcb21ocKE/MhIqLkyTnQ4ikwZRUAK5bvP3QcEYBjgSVV0G+E+bpIztQA6dO3xUjie7YZ82PRaFRGVEigUgigkKoUS+A6kECFEdAW4wNaIf91eWq+gzQgJnlRykocStg7r8IsVYPL+ZGcKXKLzz3YC+5j3SlGEH/T1Rr6Sg3uGrdUpQRQSFWp4XDZSOCgCcgLq8X8xCxXmJgtNyGeWYRiNgeADYgPGj2OTwiQnClJBJ7c5muPEo8UuI730jAfKzn7xGBwFkEhgUoggEKqEqyAa0ACFUTAymQalO38N5WFlVOFkWnIj05DfmoOzO0cWMUi1oqqIFvV/FJImI/kTDU10Hwp90AP9UxJna2ygxeexUcCj9Q8A9xgxRNAIVXxJsIFIoHDI0DyotTVxB/ryfRbc1cnnfmRSShMzoO+vgkWaf1Ssg5vMTgTEiAEiJginqlQgNSWAu+JPnAP9YEQapoEzvFyV2v4IQSFBI6SAAqpo6SPcyOBCiOgraZ+Rdva/OvC+Gw9SS4nuVFqLAmlgowiqsJsZavlsAxwHjfw4aZyWYSTA+A5OQBCY/1oSXT8jCsQiNmKB262ogigkKooc+BikMDREVCTye5iVvmeMrMQzpFaUSPToC6sQDGXBzCxf+zRWQZnpgRYFhw+D/ChJpB62sB7egB8p4fA6fXef//02DPvvPPOIpJCAkdBAIXUUVDHOZFABRKQF2Mf0VbXXp+7NgG5yxMgzy1CcSsLloF5URVoLnsuycGBw+8FIRoEV08neM8cB8/QMeDcnrc/OD36HhRT9jwWR71rFFJHbQGcHwlUAAElnnqrsb7xp7mrU5C/Ng75iTkwEmkoYV5UBVgHl/BYAozTAY46H4htEXAP9ILn1HFw93QUWEl6vdQS/CzSQgKHTQCF1GETx/mQQIURkFcTT7VU7d8K0/OB3MVRektPWVyFkqJh0c0KsxUuBwAYAIYXwNngA7GjheZL+U4PkrYyGyzHv0xsDX4dOSGBwySAQuowaeNcSKDCCFgrK5JqOf9WWYm9MHfhGuSuTYE8twRmNl++pYcfJFChBFhJAmdTfbmNzMl+8J0fBiHUOFZ0cs/1BIOJCl02LqsGCaCQqkGj4paQwE4IkFIH2mriN/Wt7Ifyo5Nc7tJYudQBCekp6k6GwGeQwNERYBhg3RII4QC4ejrAc3qQeqf4+rq/EJqDf8AwDNbqODrr2GpmFFK2MjduFgn8gIC1mm2U1e3vyLMLx7MkpDcyCeryGpTyMjYjxoNSHQRYFjivG8SWMLiP94L37BC4+7vA6Xa/W4gG31odm8BVVjsBFFLVbkFcPxLYJQFlZe3renL9edlLY5C7PAry7BIY6c3yLT38IIFqIUBu8vm8ILU3g+fkMfCdP0nCfducU/htIRr4QrVsA9dZvQRQSFWv7XDlSGDXBHJLa4NcqTiavTIB2YevQmFiBrTV5PVbelgzatdg8cUjIcDwTnA21oHU3Q7e4X7wnj8BYiT0DVFyvpLBYp1HYhM7TYpCyk7Wxr0iAQDYXlqqFxzig8rial/2kWuQuzoByuwSNiTG01HVBGgbGZIv1dcFvnNDtL4U31D/MSGx8gbm3DmjqjeHi69oAiikKto8uDgksP8E1Hjqd42t7Hvyo5OuzMNXQZ6YAy21AZaqAmB67v4DxxEPhwDDAOd2Ad8cAs9QH/jOnQB3f0+Jd7texTcH/+ZwFoGz2JEACik7Wh33bFsCairVU1KMz2qra0/f+t4FyI9MgbKwCmYmB2ChirLtwaiRjTMODjivB6SuFvAMD5TFVE+HKvChJibI5Gtkm7iNCiOAQqrCDILLQQIHRcCyLEaNr/9GcWvrU7lLo5C5MALy1Dzo6S2wdA29UQcFHsc9VAKk8rmzsQHc/Z30Fp/31HEQgoFrAlt6DhONrh/qYnAyWxBAIWULM+MmkQCAFY+7VN26LC+s9G0/cImWO9CW41DMFgBKmGCOZ6R2CLCiAHykCdwDPbRQp2ewV3f4fe8Xldy7mN5erXZ2ijupBAIopCrBCrgGJHAIBNRY8g+L2dz7MxdHIPvQVZBnFkFProOlYx7uIeDHKQ6TwI36Um1R8Az3g//8MCmJEHe6XL/IR5suHOZScK7aJ4BCqvZtjDtEApSAGkua+ck5NvPQFchdmwBtgfTTU8Ey0RuFR6QGCTg4cNb5QeppA9+ZE/QmnxAJJaS2SKQGd4tbOkICKKSOED5OjQQOi4ASS/6JWSj8X5Ibtf3AZZCnFkBPrINloDfqsGyA8xw+AUbggW9qAPdAF3jPnQTfqQFwNPjfJkXD7zr81eCMtUoAhVStWhb3hQSuE8jG4wG+xH1TXlwe3r7/EuRJ3aj5FTBzBbyph6ektgmwLLAuEUQS4jvRD/7bhsF9rBs4SXixEG76x9rePO7usAigkDos0jgPEjgiAmo88YZitvDe/MiUuP3gFSiMz5RzozT9iFaE0yKBQyTAseCo85EcKXqDz3/bSRDaIldYxvlCsaVp+hBXglPVKAEUUjVqWNwWEiAErAuWU4um368sx96w/f2LZW/UwgoUt7LojcIjYhsC5Bafk4T4jnWB7+wJ8JweAGdD/Tv+7fvfftfdd99t2gYEbvRACKCQOhCsOCgSqAwCRjL5ND2nfi0/PlOXffAK5EamQF9LQknFulGVYSFcxaEQYBhg3S4QW8OkFAL4bjsFrr7OktMl/pLQHP6XQ1kDTlKzBFBI1axpcWNIAEBdjv++vrn9we2HrkD24WugzC+DsbENYOIv4Xg+7EWAVj33e0HqaKEhPlJfytXefElojZxnGAavrtrrOOzrblFI7StOHAwJVBYBeTG2Ls8sNJKeernLY6AuxWnJA2wHcwh2Yh7nr1dsw3MI4J9gCgaA4XlwBhrAc7wbfOeGwXNyAJyN9d+SosE7j25hOHO1E0AhVe0WxPUjgScgYKXTx+StwmTmkStAakcVpubBSG6AZRSR2V4I0L81ybcyA4zDAazIA8Ox9P/Tf8cwYAH55/VJaAtDCywiosj/pmLKovW7iC0s0wSraJb/PQqtvVjm5u+yDLCSBGJzENyDveB/yhnwDvVqrEt6kRAKfPXmA+ATSODHCaCQwlOBBGqUgBpPJZXlWJB6o0hfvekFMPMyflnvxt43RBLHlYWTKADLO4GTRGAFHlhRBFbigXU6qbgCjgWGZcuCi6in6wLKKplQ0gywdB1MWQVTUctFUQ0DTE0HS9GgRIQuadmDomo3lrrpO6QXHw3xdbWC9+RA+RZfS+QRVuB+VQyF5m46AD6ABH6EAAopPBJIoAYJaMuJoRILI9lLo5B9+Crkr02CupKgX+D4uQUCxMnEckC+fFm3RIUT53UD53GD0+8FZ72fJjETUUUEFisI9FmSjwMsS71T1B9FRBERR6US9T6VtLKQKhYKVEiRml7FTB6MzW0w8wUo5gq0PMWjnqpbWDI+enMCRAiTQp2uvk7wkcbGpwdLfGP9nwsl/f8yra3KzUfAJ5DADwigkMLTgARqkIAaT33ZyGZ/KfPAFSDVzPMjU2Csb6GX41ZsTYQQ7wDO5QKHz00FFB9qol/AQrgJOLeLCini3eCksoBiHU4AB/FGceVQ32M/lkWFEfFK0ZCeYUBRVsDM5EFf34LidgaKmRwYmxnQEikobmaguJ0te7CwAv2tWO7mz5JefB4XCM0hcA/2gf/cCfAM9ORYv+uc2IS1pW4OEJ94LAEUUngekECNEbAWLFEV0v8hzy4+I/vINchdHAV5bhlK+UKN7fSAtnM9KZl4mZwNfnDU+0GIhoAPBkBsjYCzsQ6cwQbgBEFheX6dFfiixTDLDGP9swCuLzERb/rJVmZZFqPF1n8W2NLLoWQNlzTdUdL1BlPRfNpaktFTG/Rmpb6WBi2RBm0tBWZBBkvVaD4VDRPiZ+8EaC8+H0hdbeA9M0jrS4mtkew6FMOt6JXaO18bjYBCykbGxq3ag4C8lrobNP2vcpfGAiS0l7s8DlosiV6NHZifJI2Tm12c3wNCsJF6oMT2ZtpihA80AN9UbzBO58OsKE4yHDemmern/K2tmzsY+kkf0dZSL7BM805TUTstvfhsLbnOEwFF/ihLMTBSG6CtpaFUUKBk6ADYaHqvyAFI4rlACnXWg4sW6hwG35lBIpzfJUWDb9v7BDiCXQigkLKLpXGftiGgxFNvMdY3301CepkLo1AYmy6H9UiODn6ekAC9gecWwVnnpyEfqbsNxLZmEFsiwAcbSFL5dzgH/2GLF64IQf88wzD77hsqpNMRh1G6vSRrp01Df4saT7FaLEGr0avLcSqmjI0tzJ/ar3NMQ3wSiK2kF98xmnju7u3Ks4LwaqEZe/HtF+ZaHweFVK1bGPdnKwL5+WTIIcBfy7OLv0ATzR+5BsrcMpgFBfOjnuQkEBHF+TzAB+tB6myj4R7SToQPNoLD75vjGObXnCI3zjQ15Q7jQFmW5VRiqXOsZX5Mz+ROqYurIM+tgLoUA2VpFfR4Ckq6Ue6XiLf79mQSRuDBcf0WHxVTt58BqSX8VUHiX840NGT2NDi+bAsCKKRsYWbcpF0I6Gvr5w1FeagwNsPkro4DKX2grayBpRt2QXDL+2R4J21qSxLISYiH3OQi1a+FUNMSKwn3CpGm3z8I79NOF6rEE18rFbTb9FQ6UJhaoIno5BYmyaUyc3K53Q96G3eK83GfY10S8OEAuPu7y734ho4BV+97kzQ9/hfMnXdi4bU90a39l1FI1b6NcYc2IqAmkz9prGf/M39tghbhzF2bgiIJBZGCj/j5MQLEG0ESykkOlKu7nRZpFDtaSk6/70sOp/M9fEvoaiVg09ZSv1LS9D8wtjJPJRcHlMVVKEzMghZP0bAtudWHpRL2YCmOozczhZYIeIb6aPsYd29HQpK8tzOR+sU9jIyv2oAACikbGBm3aB8Cymryb7V44uXZi2OQefgyFCbmoIRFOB/3AFAR1VgHUmcruI91gqu/hxRpzHNu6RMS43kv0+rfcxL5fp08etNvfb3XUot/V8zmbiOXB4iQkudXQJlbAj29WS6pQDyPGOq7deykIr3TAY7GOnB1t4Hv9CB4zwyBEAl/V2oNPePWB8Q37EQAhZSdrI17rXkCynLclGeXWNJXb/vBy0Bya0qyWvP7vtUNUhFV7wexuw08g700H8rd1wWs4PwF4fuhrzN3MxXpwrPGxnitPnDZVPTj2loSclcn6M2+/NUJ6pmieVMk1IefWyfAsrSoajnE1wP+206B99QAODzutwuRpnfe+oD4hl0IoJCyi6VxnzVPwLIsVllYNfNj0zSsl31kBPTUOuZH/YjlSU7Uo56owT5w93eRG3rTDsnz82JLdRRjVGPJ95uG8QojkW7MT8yBMr8M+VFyO3OTVkzHJPTd/bjT9jEeN4gdzTRPynfbMLh7OlZEyflcBgt17g6qDd5CIWUDI+MW7UFAX1u/Tc9mH8peGKFtYcitveJWFkM9jzE/+aKkOVEdLeAe6AHPYB8J7V3ifb5X8c1Nl6rlpCQSCbffZO+GYvE9emo9XJhdgsLkHBVTJCcw8grcAAAgAElEQVSOtpgh7YBK+16hoVoQ7XqdjEhCvvXg6u0grWNosU4x2HSP4BFew9TVbe16YHyxZgmgkKpZ0+LG7EZAiaX+WU+k7s5eHIXshauQH5kGM5u3G4Yn3C/j5ID1uEFqbwb38V7wnjpOvA0xxuO6W4oGH2QYpqoKbV24cMF5vKXlDGNYD+rpDVAWViE/OlX2TG1s03Yz6JnaxfEntaXcEvCRIBXbfpJ4frwn4/B6XiRGg9/YxYj4So0TQCFV4wbG7dmHgBpPZeW5JS+tH/XQVZDnlsqJ5vgBUrGcXHEXmsmXYy/4zg2De6DbcnrdvyJEQ1+pZkRWIuFWi5AxNrY4dWUNspfGoDA+Q8sjoJjapWUd5Bafl3ouSeK5//wJENoiW5LX1Ym1pXbJtIZfQyFVw8bFrdmLABFS+dEpLwntbT90pVw/ihRstPuHYYAVhXIScV8XDdV4BvssPtj4MbE59PpawKMn1p9i6sY/GtlcJ6mATqraF6YXgFRFL27nynlyWGtq56am7WNuhPg6wXfuBPjODIGjwf/HUkv4PTsfCJ+0AwEUUnawMu7RFgSUxXg2d23Cm3nkKmQevkKb3mJPNgBacLPBDy7SnPb0IG0FIrWE/0GUnK9mwuGa6eRsrKWfWSwWP2fm5XZS/Zx4puSpOdBiKShuZ6CkoZi6pb8IOBY4lwuEltCjieee/h7gRP6Xq92LeUsc8OGbEkAhdVNE+AASqHwCytpaRymrjmavjLlJNXPSqNhIrlf+wg96hQxD23+QQovek/00L8rV2zEGAv9yd1v0wkFPf9jjq+l0H6OVHjQKhXrSToZ4JwtETJHCnZsZ9EzdokFo+xifh9QXA8/J4+C/bRiktpbvCyXtJ5nWVuUWh8PHa5QACqkaNSxuy14E1ET654z1zS9lL44KpPQBKdZopCqmnuSRGYMhIb1gQzkvitzAOn285Gyo+6gYDf7ukS3qgCe2VjINGqteMGWlQ12OM0RYF6bmaajXyGTL4V68zbdjK7CSCHwoAK6BLvCfO0mr3/ONdX8ufO/bb2Luvrsi643teHP44L4QQCG1LxhxECRwtAS0WPJNajL97tylMcf29y+CPLsIxU2b91vlONqI2NXTBt7hAfCdPwlSR3RaLGonmc7Omq5SqsfSZ4ol85Oga2fkxVWW3OSUJ+dAXYqDsZ1Fz9Qt/LgyjvJtT7E1DO6hPqh7ymkSJp61ROmF7ioqmXELW8ZHb5EACqlbBIaPI4FKJKDGUp9SYmu/kbswwmx//wIo8yv2Ln3AAJCwjBAN0VIH/nMnwHNyAJwel23yW/R4+lypVPqMqWrDyuJKOQF9YhbU1QSG+W7lh5icJZ7/QZ7d2SHq3eTDgX+VWqPPr7ayGbeydXx2ZwRQSO2MEz6FBCqagLwY+4q6lnp+9qHLsP29C9TzUJJtnMJBvFFeN7g6W8FzeoC2+5A6WtNSazhY0Ybc58XJKyvNLMt/01S1Y6TRcfbCNdp/kdzmozlTJMyHvfluTp0knksiOEMBUjYD/OdPgvfkgAWi6+fcrcGv33wAfKKWCaCQqmXr4t5sQ0CeW75XTaTv2v7OQ5B58DJoq0ko2bjnGqlgLjSHwN3fDb7bTtIkc2ed+6QQCl2zzaG4vtHCYjrCOa1/M1X1tLocYzMPX4PC1CwV27Q0AoqpHR0JxuGg4py0j/GeHADf2RPg6usE3TIa/a2tmJC4I4q1+RAKqdq0K+7KZgQKUwtUSG3d933IXhwDPZagDWxt+SF1o9wukDpIBfMeqL/jPMmTmrVY8Vmu1kDMjkz01dSpEgsfKinqT8iLK2zuYjnMpyxfF1PYTubmx4JhaLjYGagHd28HrS3lPTUIfKjxHiHc9GsMw9j0B+7m6Gr9CRRStW5h3J8tCOQmZ+/VVpN3bf7X9yA/Mkmvu1tG0RZ7/7FNsiztp+c61gXe00NQd/spEAINb+MTq+9jzp2z7ZedtpI4AQ72k8WCcruysEJ7MebHZkAnpRG2MMy3ox+W6+1jqLdzsI+2j3Ed61xnXZ7fcrUE79nRGPhQzRFAIVVzJsUN2ZFAbmTqXjWWuGvjG9+hzWv1tRRYRXvezCYhGD7aBO5j3VD39HPgOzNoOkTptXxz06fteDYeu+ethYU6F+/6elFRbyc5UyTMJ0/MlOtMkdt8Ng4H7/Rs0AKv/uvtY04dB99TToHYHP42OKyXSdHo8k7HwedqhwAKqdqxJe7ExgSyV8bvVVcTd23853egMDFPi3Fapj2FFCuKILZF6G29+mfdBq5jPQ+xIvcSMRictfEReXTrcmyjlYXiF0xFfbqytMrROlMkAX01gb35dnJASOiY1JZqaiDeqHKI7+RxcPj9L5VaQ1/YyRD4TG0RQCFVW/bE3diQwIULF5y9jPAVdXnt5za++X2QJ+bASG/aV0h5XCB1t4P31ADUP+M2cLU33yNEgnfb8Gg84Zb1WOq0CdZHTFl5OimVQUoj5Mdnyr35MnlMQL/ZYSG3QmltqRB4hvupmHL3dhdZt+eYGKqbv9nr+N9riwAKqdqyJ+7GhgRyM2tNZm7ji+rc8rOIkFKmFsDY2ALLLNmQBtCwi9TTDv6nn4X6289afLDhH4Rw00tsCeNJNq0lEkMlk/mKWZB7lfllIEU786PTYKTWwcDbfE9+XEjiOQnx1fvARUT7mUHa1FhsiXxXjAafgWfNXgRQSNnL3rjbGiSQGZ/rBU39e3ly/jwVUnNLUNzYtq2QcgYaQOppg8BP/QRpUqw5fe7X8eHgZ2rQ9HvekrWyIqksP27m5Q5lYZnWmcqPzoCeXIdiNo85U09GmGWvF30NgmegB/xPOUkqn5ccXu8HxEjTH+3ZODhA1RBAIVU1psKFIoHHJ6DNrwxrmdzf5cenhzfvewCUuWUwNrcBbOqR4sNN1CMVeN4zSTXzLOfiT4uhEIZbnuAHSIvHB8wS+0+lQmFIniOlEUagMD4L2loKirkChvme5C8exuks15Zqj4JnmBR+PQFSZ/vDkuB6EROuW8C/s+xBAIWUPeyMu6xhAvLC6lONTOZzhWtTfZv/8yAQz4KxkQEo2TO0x0dDtFBi40/eAb7zw5tSc6ixhs2/L1szksmnmUXrr4u5wqA8swjZy2NUTJHbn1RMkZpkWAH9cVmzokBrS7lIbamzQ+A5dRz4xoaP50TuTcFgML8vBsJBKpoACqmKNg8uDgncnIAys/AsvaD8Tf7qRCcRUurCCm3/YUshxQDw0TC4j3VCw3PvgLrzJzeFaBMKqZsfI9ASiROWyXzb2M7Vk6bXuSvjtCYZubhQFlOkncwOBrLbI6R9jNsFQjQI7sFe8J0bBvdAz7bT7XmaEA1M2A2HHfeLQsqOVsc91xSB3OTss0uq/pn8lfEOKqQWV+0rpACAbw6Du78LGp97B/jPDaOQuoXTblmWoMVSCSOTqZOnlyB3bRzy1yZBT22AmZfLnin8/DgBpwMcfh+tpk9u8JGmxmJ7c0FqjXgQV+0TQCFV+zbGHdY4ARRSP2xgvuUxQuosCqlbPf56PH3WNIv/YGxneuWZRSZ3ZQIK4zOgJ9bBzBfAKhbRM/WjUFkWWNI+JthIRTzxSpHyG06//7fF5uBHb9UG+Hx1EUAhVV32wtUigR8joMwu3qnn5b/JX5no2PwW8Uit2DtHigipY100R8qPQmpXPzHKWvpZUCx+3tjcbi1ML0D+KhFTs6Al16FUkMtV8zFn6ofZOjga4hPbouA9cQy8pH1MT0eWlcRflCJN39qVIfClqiCAQqoqzISLRAJPTECeXXyakS98Nn91snfrWyTZ3OZCivRBezS0hzlSu/3Zya2tHXcUYcRY32ILU/OQG5mEAimNkN4AsyAD2LQF0ZPxZEji+WNqS3nPDFlCc+jzY/GVV52zcZ/H3Z7BankPhVS1WArXiQSegEB+euFUsSD/nTwyNUQ8UqS4Ik02t2v5AyKk+soeKe+5wU2pOYLJ5rv86cnG4wHeZJe09LpLnpyD3Og0FMamQU9ugCkrtj1jT4aT9bhACDeBZ7AXvGdPgPt4Dwh+/6udkcCnGYbBdP1dnsVKfg2FVCVbB9eGBHZAIDsx12epyt8XxmfP0fIHc0tgbNi5jlQQXH0d0PjTPwGek/1brqIWYXp7tR2gxEceh4AST90BRvHvtPRGBwnv5UcnoTA5T8VUiYgpm5bZeKLDwjgdwPk8tLaU79QgTT4XW6PfLfLM830tLRt4yGqPAAqp2rMp7shmBPJjC+GiLv+TPDn/zK377gdydd3OQsrZRCqbt0PgZ55JKk3nhEbfs/impks2Oxb7ul1lLX0nGMYXteR6oDA2Q8sikNwpUgG9pGgoph5Lm7SPEXjgSW2pvk7wnSVNjQdIk+O/FFvCb9hXw+BgFUEAhVRFmAEXgQR2T8CyLEf28thXlLnln9/85v0gky+49S0A09z9oFX8Juf30uKIDc95GniH+w0hGHinEA2+q4q3VBFLV+djxywHO6klkpAbmYLC6HT5rKU2oaSqACWMWt0wFOPggJVEEJpD4DlxjBSGBe/xXkN0urqYlsbVijAoLmLfCKCQ2jeUOBASODoC2ctj9ypL8bs2v/k9KEzMg5HaAMumQop1SVRI+W8/A77zJ8DV1nyPEA3efXTWqZ2Zs7HYMb7IPKSupfy5qxOQH5sue0DXt6Akq3iT7zGmpu1j6khT41bwnh4C75njILU3L2wxpaFoNCrXzqnAnaCQwjOABGqAQPbK+L3qauKuzW9+H0johYRc6BV1G34YngeJfHmdOg51d5wDd3fbvwgtkRcyDIN5Uns8D9Y73sFqr3nd80qa9gltLdWSu0pu8k2BTPo7EjGlYpjvUcQsA6R9DB8KkErnpDgseIZ6FUeD/21COPjnmHi+x8NYQa+jkKogY+BSkMBuCeTGpu5VV5J3bd53P81f0eMp+wopBwdCS4R+edU/8zZwDXTNsJLrf7uaQ9/fLV987wcESChZj6XvKpnFzyorcTepfJ4fmQJ5YRmKG9tQUnXMmbqBi+PA4XOD0BqleVKkF5+rq3XKklwvcUebLuC5qg0CKKRqw464C5sTKEzO3avEkndtfesByF0aBy2WBMuwaTsPlgWScO461gl1Tz0D3tPHS85A42ulaNOnbH5M9m37lmVx2mrip0ul0tfU5RiQ6udEUCnLcShubpcT0LFgJ+XNCAI4G/3g6m4HL2kfc2YQHA0N73atR/6EOcfY9Id0345iRQyEQqoizICLQAJ7IyDPLd+rxtbu2vr2w5B95BqoK4lyk1mbfsj1c6m7jSb61j/9HAjN4Q9JHc1vYRhGsSmSA9l2IZZ4BasZH1KWY14ipnKjk6AuxaG4lS2H+VBMAZD2MS4JhEgAPEN9tLaUd7APHH7XSSEUunYghsFBD5UACqlDxY2TIYGDISAvxu9VV2J3bX/vAmQfuQrq0lr5JpVNPwzvpK06XL2dUHfHWXAf75U5nzQkhcMLNkVyINu2Egm3XmJ/z5CVN2rLsXIC+sg0EC+VsZUFS9NRTBGvFKkt5fWA1NkC3jOD4DszBFJH66LYGj7GMIx9f+M5kFN5+IOikDp85jgjEth3Amosea+yFLtr+4FLkH3oCihLMSjlbXwxiGWBDzaA1NUG3tOD4LvtJDhDDa90tzZ/Zt/h23zA7OpqI8/wbzc19XXy7BJLc6ZGp0BdjoO5nYMSCTHbvTTCjdpSwQZwH+umRTo9pLZUY/2HxWjwd21+hKp++yikqt6EuAEkAKDG0/cqK/G7so9cgcwDl0FZjIG5nbU1GhJOkTqi4O7vBd/tp8B7vE+TOppFW0M5oM1blsVra+mvmrLyPHlmAfLXpoB4p7R4EoqZHFhGET1THAccCfG1hsE7PAC+p5wEd3dHjHGJvyZFmr59QKbBYQ+BAAqpQ4CMUyCBgyagrqU+rKfWX5e9MMoSr5QyU67tY+cPw3HgDDaCq6edlkIgX1xCsOn1YnPwr+zM5SD3rsSS/17M5X9SmVnk8qPTZc9ULAEmEVN68SCnroqxScVzB6kt1VP2lHrPDIHYHPq8rPC/3djbaO/ffKrCgo+/SBRSVWw8XDoSuEFAjaVeX8zn/zx3acxJhBS5jk6Kctr9QxrIklwpz0APDae4h/o2WVF8vhQNfsfubA5i//LKejMD5qeKuexPyzOLLDmH+fEZ0FYTUMzmAYhnys4fhgHWJQJPmhqTM3meNDXu1fl6/68JkeCX7IymmveOQqqarYdrRwLXCciriacypnlf9tKYlHnwMmQvjoKeSGM4hSuXQpA6ywU6feeGLak5/K8Cz7yGCYWSeID2n4AS32qHknaPmc2fL0zOQY705RufLYspkrdXtLeYIu1jOJ8XxLYIPZPkFp+rs3VS6mg+wTCMveHs/3E8lBFRSB0KZpwECRwsAcuyGG0tncleGvVmH74K2Qsj9IvLrm1iHkubXj2PBkHqbgf/bcPgGeyzhEDj/3aGGz+P1aUP5lxalsVqa2nZ2NwWiEeqMDYN+bEZ0OIpMPMFALN0MBNXw6gMucXHgzNQB27S1Pi2k+A9NQDOQOCfpObgr1bDFnCNP0wAhRSeCCRQIwTUeCqbH5v2EhFF/qjk5p5i3xIIN8zKsCxwdV4QW6PlOj6njtNefA639HwhGvpqjZi/4rZBKqArseQjxY2tU4WJWciRJseTcyimiKW4clNjsSVEws3gO3+yXFtKFG/jI4FHKs6YuKAnJYBCCg8IEqgRAkosFdNW16LZC9doUU4SVjFzhRrZ3d62QepKORrqQOpoIZXOwTvcD1Jbi8E42V8Rm8P/urfR8e0nIqAuJ7stMD9rbG7fkZ+YLbeSmZovi6mCAmDTxtqEF6ktRRLPaYkOUlvqLEk8D18QBe7nMOxcXT9TKKSqy164WiTwhAS0tfSfGdvZN2YevkKFVO7yOBRtXgLhUVgkyVcUwBmoB3d/F3hPDYH7eDe5MTVumqVfd7dFse/ZAf1skZwppqT+p76+3Zcfm6ZlEeTpBdDW0mWPqV3FFDmTkgh8qBHc/d20fYz3xDFFaGh4Ex8JfPSAzIHDHgABFFIHABWHRAJHQcCyLKeysKpnL43CjYTz4sYWWHbOR3msIVgGOI8b+FCAfnH5bhsGV08HCIGGL2tQfK0vGl0/CrvZYU5yNrV4MqMl1yVS+Tx/bQLk2SXQkmkoyURM2TRnimGB83tAbCWJ5wPkMgS5GJFwesX/xQeDl+1wNmphjyikasGKuAckcJ2AvBgrFqbmOJJwnrs4CuoKaRWjIZ/rBMqtOtwgREPgPt5TbtXR1QpOv/eDQiL2f5hz57CJ7AGdlkI6HWEV/T+05MYJWmOKNDmeWwI9tQGmTMJ8NhRTpOI5z4OzwV+uLUW8UqcHQWhqfLfUFn3rAZkCh91nAiik9hkoDocEjpKAsrL2NS2W/F80vHeB5EnNQ4nkouDnB1E+pxNIU2OxPQreE33gHjoGro4Wkq/yCTEa+k1EdTAEyM1SI7n5lKKqfFJPbQyTYp35q5Mgzy1TMUUFvx3DfKSpsSTSpsbkLPrPD5PaUuDwuH5GjIb+42CsgaPuJwEUUvtJE8dCAkdMQFlNPMfYyvw38UZlHroM5Df/4nYOoGTD3/afyBbEC0A8Ux4XSD3t4CO3+I510aRfp8fzD0K06deO2Iw1O71lWZya3HgWGMY/qvFEU/5aOcyn3BBTum5LzxRDxb0LpM62cr2zs0Pg6u5cEaKBdizRUfk/DiikKt9GuEIksGMChXj6HOTz9+fHZ5yZh67SxF49ngKLNI7Fzw8I3BBTPi+4ezvAe3YQpK52cHW1ljiX9AEhGnwrwzAI7YDOTCEW+0WuxP29shJz50iT46uToCysgrG+CSVNt6XwJ+1j+GAjuAdIU+NhcrPU4hvq/omPBl/CMAz+JnRAZ3E/hkUhtR8UcQwkUCEErLVck1bMfbIwu/z8zCNXIXdhBJT5ZSgpmCf1YyZiiWeqnJ9CPVOnB2l9KbE1UuBcrj/CnnwHe6iVWOoVlq6/V1mOBQujU5AbmQaViKmNbShpmu3EFMOxQFsatUTAM3yM1pZyd7dPOdzul/GRwMMHaw0cfS8EUEjthR6+iwQqkIAWT71FTaTenb0wCiTpvDA1Vy6DULIqcLVHvCSWBeoJCNTRyufek8dpeQSxNZrmXMLvCaGmvz/iFdbs9NaMJWie9d82ZeWPleVYXf7aFBTGZkBZXAZjfRss3bBdiyNa76zeD67uNvCdPUHrS/Ghxi9KrPWbTGvrZs0ehirfGAqpKjcgLh8J/CgBLZ78ZSMvfzx/Zbwpc2EE8iS8t5bCMghPdFQ4DhjBCXxTI7j7OsAzPABukjPV2ZwFYF8oRoPfwFN2MAQsyxK1tfR7S7r+enlu0UHEFMnrU5eIZyoDFmlybNnoFwCW1JaSgA+TEF8vTTz3DPbpjCQ+1d3RjOUQDuYY7nlUFFJ7RogDIIHKImB98Yuc+rRn/Jc8s3BnuZ7UGKiLq9gu5knMRBrJMg4H8M1BcPV1gfdEf9kzFQmNmw7Hy1yRwCVM+j24c66uJr9satpd8uwCWyClEUamQVmOQ3ErW87vs5OY4jhwkNpSbdFyxfMzQ+DuatMFJ1PPRKPywVkBR94tARRSuyWH7yGBCiagxtOf1lPp38g8TNrFXKXtYoqbmQpe8dEvjSGeKUkAIRKkBTs9J46B+1gn8VTdxzCOV4ttobmjX2XtrkBZTf5tSZZfWphZ5KiYmpil/SJJWJqG+ezyIRchiIe0sQ5cx0ji+QlarJMPBN4nNgffbBcM1bRPFFLVZC1cKxLYIQF1JdVrWcZ0huZJXfnB7b2iucMR7PkY8UzRmj7RIK3l4xnsAxcRU4HG74qt4Z9iGAa7QB/Q0bA2NnyqanygmJNfqc4uMtlrk/QXACKmzEyuHOazy4eE+FwSrXhOBL2PhPj6uwucKLxMiIa+YhcM1bJPFFLVYilcJxK4RQJqPFWUZxa4zCMjkLtwjbbkoL3N8POkBB4VU+EmcA/3k/5n9DYfH2xaEiKBHoZhbPSNfriHxVpYEDXR/aViTv5ZeWoOclfGy2JqMQZmQbaVmCo3NfaWL0GcGSo3NW6J/LOYWH0pVuA/3HN5s9lQSN2MEP53JFClBAora88rZXJfz14Yge2Hr4I8PgPFzW1MOt+BPUm+FPVMtYTAM3SMegVcve3grK+7r+iAF3kjkfQOhsFHdklAW0vdb2znbiciitSZIv/UVtbAzBdsJaZYlwh8MFBuZ3TuBD2LnN/7+1Jz6MMMw6B7eZfna79fQyG130RxPCRQQQQKCyvr8sRcY+ahK5C7MgbaahJ77+3QPtQz5XGD2BIG92AfbSdDqp/zDfX3amC80o/X0XdIcnePKSuJvy9msi8uTM/Tm6eFqQXQYgkwczYSUxwLDq8HhLYo+E4N0F58UnvLZZdXfB4TCiV3Rxbf2m8CKKT2myiOhwQqiIC6kvgdLZn+SyKkMheugTK7hC1jbsE+xDPF+cpNjh/1THW1gqOx/jtSc+iZtzAUPnqLBKzt7Xo1p364mMm+RJ6ah+yVcZCn50ElvwzYKMxHaks5G+tpeNl3/gR4Tw6AGG76R6E5/OJbRIqPHxABFFIHBBaHRQKVQEBZXX+2mc/8d2Filtl+4DLkR6bKNaXslLi7R0MQzxTn84LQHAQvqTE11Efbyjj8/gkx2nR8j8Pj609CIHE14fYHmP8obmeeXhifhezlMZBnFkBbSVDPqh3OMUOKxpLbpNEgFfP+206CZ/CYVfLwEQ96pSri5weFVEWYAReBBA6GwObcnF9wCH+pryZ/nXilshdHQFlcBTOTt1dtnj3ipU2O/V56i4omnx/vJWKqxHncXzSg+HpfS8vGHqfA15+AgLWabdRY9b/19MapwsQs5K5MlMXUWhpKBQWsYu3n/lPPqN9DQ8uklZH33BC42luWdbZ01heNruPhOVoCKKSOlj/OjgQOnIAaT79a39z8YGFs1pN54BLkx2fASG7Y4gtoP+EyTtK+w0cLJXqG+sAz2AtSZ5vq8Lg/tcmV3hzFYon7ifuHxrI2NlpUWf+8nt68k4qpq0RMLYKeXLeNmGIlAZzBRvD0X088Hz6m8o11bxciofcfGHgceEcEUEjtCBM+hASql8D20lI9zzr/R5ldOpl95BpkL42BMr9C80zwcwsESKFEciW93g9SexTcx/vKt/m62mTOJX1SbAn9/i2Mho/eIgE9nT5jqsWP6emNpxTGZiF7dQKU2UXQEmmwFBWsWq+RxrLAed2kDyR4Th4D/9kTIHV3rLCC86VSa+Tbt4gTH99HAiik9hEmDoUEKpWAupb+M2Nz642kLs/2A5dAnlwEI41eqVu213Ux5WyoA7E9SnJVwHOiD1x9naQa9Z+I4eA7GYYp3fK4+MKOCCiJ9WczZumz2lqyNUeqn1+bAHl2EfTEOliqDpZZ2xUBaOI5aWrc0wHe80PgPT0IUjDwNj4Vfx/WltrRETqQh1BIHQhWHBQJVB4BdTUhF6bmJNo25tIorRhdklXMlbpVU7EMMA4nOAN1IHW20urnJNTn6mzJMILwFqGk/y3T2qrc6rD4/M4IaInUC0tG6aNqbC1QGJuB3MgU9Uzp6U2wFK22xdT1psZCOEAvPfjPnaClOTi399lSS9P/7IwgPrXfBFBI7TdRHA8JVCgBNZZ6vbG59RFy84kknstTC2CQLx8bJOvuu0mImOJ54KmYaqNfZp6hXpDampc5UXwTH226Bz1T+0790QGVeOLFll78iBZLNuTHpiE/Ok1Le+jrmzXvmSrfIvWA1NHyaFNjqbN1RmyNDGCRzoM7c082Mgqpo+GOsyKBQydgpVIeRdYX5dmlxsyDVyB3eQy0eJJWi4aSdejrqfoJiXdAEMDZWAdSd9v1BPRjJBk95RDFn+cjgYerfo8VugHLslg1vv4KKOofUlbW3HlS/Xx8thzmW7NxfucAACAASURBVN8C0HSwSjUaYWWgLOKbGsDV3029Up6TA+BsavwnKdL0qxVqsppeFgqpmjYvbg4J/DABLb5+l7ax+ZXc5TEme/EayOOzoKfQK7Xrc8KywAo8FVOkYKKbtJMZ6gOpvRlMKJ50t7SMMAyDKnXXgJ/8RW0t/XbLMP5PYXFVKIupGSqmjI1tAL1Yw2KKAc7tAoE0NT7ZD/5zJ8HV174CTv6X3W2RRw4INw77BARQSOHRQAI2IqAlEieKivEFdSk2TEoh5K5OgroSx7pSezkDHBFTAjgD5erT5CYfKY0gRMNL4HS8WIoGH0AxtRfAT/6uEku91zL0NykLKywpOEvKeyhzy2BsZsDS9JrNAbxxg9TVQ5oaD4LvzBDw4eCXpHrPaxmfD+uaHdyR+7GRUUgdImycCglUAgFtLf02fXP7rfnRKb58g2+e1uOxdKMSlledayCeKUkEvqksptwn+sF7vAeEcNMI5+JfyodCV6tzY9WxanU1+Qempv6ZsrDKEDFFak0pCytgbGTA0mtUTDEMsKIIfKTc1Nh//iS4BroLfEPdC8RI8N+rw3K1sUoUUrVhR9wFEtgxAWtz06/KxiPK4kpv5kHilZoAZX4VSrk8WGaN5pXsmM4eHiRiyiWCs6ke3L2d4BkeAM9AN+nTlxBbI20Mw6BS3QPeJ3vVsiyHFk+9wVTUP1OWVmn+H2lyTDxTxe1s2TNVix/ueuJ5W5SWQvCdGyKXH5KSIbczvb1aLW65EveEQqoSrYJrQgIHTECNJX/LVNW/yl+bonWlyG/wejwFJU0DwIye3dMnYT4ipgIN4DnWBW4qpnponzTLcrS4WgOx3Q+Ob96MgL6W/kBRVt4gzy9zucvjkJ+cBXV+BYrZfM2KKVpbKlAH7mPd4D03DD6aeB54j9QS/OOb8cL/vj8EUEjtD0ccBQlUHQE1lvyuGlu7I/PINchdHANlYRmKW1lbNII9UGNxLHAuCZyhRnD3dYHnRD94jncD3xSY4DjHi/mW4JUDnd/mg6vx5AfMgvIH8twSzQEkvySQmmnFTK4cvrZq7DeF655QsSVC8/N85Bbf8V5geOk5UkvgPpsfh0PZPgqpQ8GMkyCByiOgx9PnioryUGFqns08dJkWNiReKZO0jsFyCHszGGnn4XEBTwonEjE13E+rn/OhxmssOH5JbAvN7W0CfPuJCFiWxejx9JuMfP7/U+aXaUskUjONXKqgYqoWw3wcB44GP7i622jiuf/MCeCbw9+SHNbPMtgD8sB/WFBIHThinAAJVCYBy7I4bS39emNj60PbD12GPPntfWoOihsZKKmYXrFnq13vjcaHAuA+1kWvqZN/8sHAhtQSDux5fBzgCQnMzMwILW7/W81c4a3y/BLkLoyCPD0PylIMzFyhJi9W0JByMEC9n77zJ8nN0SJfV/dWoTn4PjwqB0sAhdTB8sXRkUBFEzCSG08zNO3zWizZvX3/RSC1eMhtJ5KgC5h4vnfbkTCf10M9U57+bhp6cff3gNDUsGGC47SruXFl75PgCI9HgBSg1Q34SDGff1lhepHNXRmDwuQcqMtxMPMyWAYJ89UQO4YBzu8hBWHBe2qQFuoUO1qucqL0QrG5aaqGdlpxW0EhVXEmwQUhgcMloMZTv2MW5PflRibF7CMjNKdEI4nnioIhvv0wBWnp4XGD2BwCF/FMkaKdAz2Wo8H/IMtZrxQikfH9mAbH+HECVjwb0C31I0Ym86LC9CLkro5TMaXFkmXPlFGsqZwpUvGcJJ6Tpsa+8yfAe/I4ufjwIVd79PfwfBwcARRSB8cWR0YCVUHAmtnwqa7iRT292ZO7Mg65iyNQmJoHY2PrekHDqthGZS+S5LD4PCC0hsHd10kT0F29naazse4+U2de6ukKJSt7A9W7OiKmVFP+cDGT/VV5ZgGyl8dpmE+LpWh7pJqqn0ZqS7lEekuUJp6TEF9/T5Grdw+KTU3T1WvFyl45CqnKtg+uDgkcCgHLsnh1JaEV5hYhd+EaZC9PgLZKknPzAEXzUNZQ85M4HFRMia1hcPV2gedUPymRYHF+7/9IzeHn1Pz+j3CD1sZGi6aZnzE2tn6KtJDJ0AT0OdCJZ6qglsN8NfIhFc9JOFnqbqXVzn1naW2pghgNempkixW3DRRSFWcSXBASOBoC6mryN01F/mhudJqlNXhGp0BfS0OpIGOhzv0wCfnblogpv7cspkjdnxP94O7vAofHe4/ASa9jIt70fkyFY/w4gUI8fc4B1se09MZ54nHNX5uAAqnqT26qyjUmpgSe3BAF9/Fe8J0bBs/wMctZX/c+MdL0FmxXtP8/HSik9p8pjogEqpJAdnW1kQfH32jrW79QuDYJ2cuj5fYx6U0oKWpV7qniFs0wQHukEc9UexRc/T3lnKm+Dp3zej9ddFjv9IQwzHdQdlPW0s9kSqXPaqn1DpIrRQrS0jB2Ig2mrNRODTWSeO69nnh+sp+KKVdP2wy43b/uCjU+cFB87TouCim7Wh73jQQeh0B+NXWKLRmf01YTw5mHr0J+ZBpILZ5yoc7aCX8cqfGJmOKJmPKC2N4M7oGymHL3tOUdPu+HeVN7F9PaqhzpGmt4ci2ZHC7ppW/oqY0IuVhB6qfJ0wugUzGlAhSLNbF7hng/SeJ5bwf4zpwA7+njxEv1V/mc883BwWC+JjZZIZtAIVUhhsBlIIFKIaCtpd9nKuofFGYWuOyFESiMTdP6O6W8AlaNfMlUAmtGcILD7wOpLQquwV4a5iO3rTiP+FtCOPgJDMEcnJXkZPJprGF9TUuk6/JjM5AfnaY11IzUOpQUDaxayAu8nnjOR5rAM9gH/nPD4B7qA8YjnHdHoxcOjq79RkYhZT+b446RwE0JqPHUl4rbmV8mYQ8ipvJj06An1sEskJII2Nj4pgB38gDxTAlOcPp9NMznJiG+wT5w9bQD53K9RtDyn2c6OzGmuhOWu3hGjiV+FUqlD+tr6QARU4XRKShML4CR2gBT0QDMGrhkwbE0J0/qaAHv2SGafC62RqeljubjDMPUwAZ3YfgDeAWF1AFAxSGRQLUTsCyLVVfW/l1LbfwU+W09f3kMCjPkS2azXPW81vqVHZXBWAZYngdHnZcUTwTP4DHwnOgDqbM1w7pcfyhuBT7HDDL6US2v1ufVEqkXlgzzC+pqwlEYn4bc6DQoJMyX3oKSqtZEUVpG4MHZVA/uAZJ4TmpL9YOzseG9UjT4llq372HtD4XUYZHGeZBAlRGQY8mngW58RV1ZC5Gq0MQrpcyvgLGZAQtbyOyfNUkIRhSomCKeA5p8fuIYCG3Nm6xbfJUUCd6LYb79w/2jIxmx5NOMYvG7WizBkpzA/Pg0yDNLYKxfv2RR7X0nyflySzSETNoUkRCfq68r73BJz+XDgYcOjqx9RkYhZR9b406RwC0T0NfWX28UCh9UluM8KdSZG5kEdSkO5nYO86VumeaTvHBDTNVfF1PDA+AZ6gOpvQUcbv6UMxS6xtRWQ5P9pLfnsdS11PNKuv4VLZYSSVHa/PgsKLOLYKwTz1T1e2DpTdF6P7j6OsB7moT4Bkml/a8K2xsvZAYH0eO5xxOEQmqPAPF1JFDrBJR48p3FbP6t6vwyk700Brlrk6CvJqCYl2sjj6RSDEjCfNQz5Qepq4VWPyfeKak9Sv79zwrhpn9Hz9TBGUuJpV4BuvEXSmzNl786ASRvSplbAmNjG0qaXvW5gawkAk8qng/2ge/sCdLcWOZ8nt8Sm8Ofx3O1t3OFQmpv/PBtJFDzBKyFBVHlpc8Y61svJtfEc+RLZpQkn6cx+Xy/rX9dTDkb6kDqaqUhPiKmhObwukNyv5aPNHwFv/T2G/oPxpNjiReBXvxH0tg4Rwp20nD2KuibW2CpenXnBl5PPCclN3ynj4P3zAlSfuNBl8v5i0w4nDo4qrU/Mgqp2rcx7hAJ7JmAtbnpV/PqI1oi3VsYn6FiSp5dAj25ASVZqe4vmD3T2ecBSJhPEsHZWBZT3uF+6kUQWsJbTkH4RWc0+N19nhGHewwBZSX9LMtQ/0ddiQPxwJJaU8riKvVMVXtuIMM7wRmoB3d/9/XE8wFwNta/U2qNvB0Pwe4JoJDaPTt8EwnYioC+tn5bUVG/psYTAXJVPHdlApTFlcfkkdgKx8Fu9noNIGdj/XUxRXKmekFojgArObrFUGj+YBdg39Ety2LUWOollqZ9QllZc+UujUBhfK4sprYy1xt5W9UJiHg8XRKILWHwDPeD7/wwuPt7wPIIEU8wmKjOTR39qlFIHb0NcAVIoGoIaPH15xcL+U+o8WQwPzIFuctjoCysQHE7C5ZuYDr0flqSZcueqUA9ae9Rzpka7AWxJQKMw/E8MRr8xn5Oh2P9gIA1MyMoLt/vWIr6J8pSTCIJ6MQTqxIxRS5akJypai0B4uDAUee7XvF8CLw08TwyJoJxHivq7+6nAIXU7rjhW0jAtgTkePKXLVn9EhFQhbEZyFwcAXUpBmY2Xzu9yirFusSDQJKEgwFaqJPUmHKTMF84mORE4TVCOPAvlbLUWluHFY+7VHD8TklW3ivPL0P+6mRZTC3HwSC/OFSxmGIlAfhw06NNjb0n+hSH3/dmMRr8cK3Z8TD2g0LqMCjjHEighgiQYp1aIvWaYrbwMXKrKT86AyT8oa4mymLKxMrn+2ru63WA+BARUx1UTHmO94IYCWVMh+M57mjTxX2dDwd7lIBlWU41lnyTKavvIr84EA8syZlSV9agmMlVb84UaWpMGmd3NIPv1CDNl5I6Wq45eOHX+ZbgFTwCt0YAhdSt8cKnkQASABLVsBxqLPnXxsbWS+W5JUeetNcYnQY1lgQzW6j6q+IVZ2QS5nO7QAg1gquXeKb6wX28B4Rgk8qwjmGxNThTcWuukQVZ6bRX0633FHO5VylLMSF3PQGdiinyi0OVeqYYpxOcwYZyiO/cMHhPDYAz0PBmqSX8QYZhaqNz8yGdQRRShwQap0ECtUZAXU52l8D8tJ7efKY8vcDkyXXxqQXQ11JgFkiNKfRM7avNOQ44twv4cKAspkgF9OO9IIQD6xzneIEz0vStfZ0PB3uUgPz/2HvvMFmu4v67enpmunvipgk7szmne/cmCQl+Botkg80PjEFgBAgEJphXgMFkbIQxmCgTbJIINpjswGuwjV/byNiAEwo3bM5p4sYJHWe636fO7JWEkHR3987sndmteR49/HG765z+nLP0t6vqVK1ttHKc+cfFTOaF8uwSn7swBbmJGdCW41DI5WtTTO16OoVICLwn+5lXyt3fVbBL7rNCa+gCLf/eCZCQ2jsrupIIEIGHEdDi8SHTgO9riVRnfnIOMCm3VBZhHUzlaPQqq6pFt9uBd4mALz/0JGD1c/RMiYGmSzbe+VpHpOHHVTXfIzQZK7bZpkPhLmM7+/T87ALkLmDO1CyoMQxp53cPW9TWaT7OzgPv97HDDKzi+dlhENui/y21hG84QktX8UchIVVxxDQAETjaBKyVFUkFh6zG4iBPzMHO/14o9eRj7TVUgFrvVVZly4cvPxbmiwTB1dcJ3pF+FFOW0NR40WlzPIuLNCxX2ZSPzHRmZmaENpf/p/rOzhl5ZpEloOfGZ0CLJaGYlcHSa6/bCtaWwsRzz3BPKcR3cgDs9XUfFpsDbzsyC1fhByEhVWHAZJ4IHAcCmdXVRrth/Y8WT3fhV3rmngsgzy1DYXMbzFqvCF2NC+hwAO9xgdAcBHd/JwvzuQd7sIjnTy3O8UJXtHGlGqd9FOakJLY7oaB+y9jaPqvMLtmwZRImoGtrKShimM+osTIgmHjudbPEc+/oIBNTrp6OBZvN/jSxLTR3FNas0s9AQqrShMk+ETgGBFgRw3j6CUVZ/qIeS/XlJ+Ygc++lUq+yzZ2aDHtU9bJxHNaSAt5b8kxhpWoUU66BbnA01P0z57TdLgYCU1X9DDU8OT0ev94s2u7St7ZOypPzwA5bTMyxwxZmXik19K6hOlPY1JjVK+vrBN+ZE+A5PQhCoOkrosi/jgsGczW8VIcydRJSh4KZBiECR58AnuRTYuvP43T1s/m5JX8eXzBYyHB2CYpYd8egg0Bl3QUophx2FuYTW0KsQjU7zTfQUXTW1/+tCfY3SxTmKyvyhxrTEokRq8j9p76+6cH8QCxQm5uYZT0omZiqpf2OXqnd3Dv3iX7W1Ng10L0h+r3Po0MMV95CJKSuzIiuIAJEYB8EtMT6uwuK8j55co4l42YvToCysFYSU4XiPizRpXshgDkuvMcNAoqpwR6W44KeBUdd3WcEaPo9LsLJe7FD1xyMgLqaUPT1TRE9UtlLpQR0LbFe6kFZS/udNTX2gdjZAv5zJ8B7ahiEtsh4ytLPdnZ2qgejczzuIiF1PNaZnpIIHCoBNZb+TDGTvS0/s+DMXpyG/Pg0aFh3B9trYNiDfmUlwAlO4H1uECJh8AyhZ6ofXL2d2ArkA6LN/AAXDufLOiAZe4BAbiV5krfMv9HT692XPVOsDEgiXXNlQHAfOUONpabG150E74kBcNbX3yy0BL9DS/7oBEhI0e4gAkSg7AQ25+b8kuD5ZDGTvSU/vcBnz09AfhITcpNQxIrQtfSlXnY6FTCIYT6nA+w+DwjRXTGFnqneTnD4vR/Z4orvDZOYqgD4kkkllvolKBa/qqXW27FtEob55OlF0JJpsGQVrGKNeGJtHKtVJrRFwHdqELznToKnrxOKov2kJxy+WDGANW6YhFSNLyBNnwhUK4FMLNbktPivGls7v5qfmi/VmJqaB3UtAWZuNyG3Widfi/O6LKa8HhDamlmxTu/oAEjd7brD6/mIcyv9h9zwcO2dz6+RtdBisUGzyI1riTTkx6Yhe2EK5NnF2qupZufxwAIW5wTv2WHwnhkBZzj4XVc09Bs1shSHPk0SUoeOnAYkAseLgBpLzesbm52YfJ695yLkpxd3E3Jl8kxVYCtgeAY9U2JbM2tw7BsdAqm7FT0NrxGag3dxHEcl5yvAHU2ymmoWv64l0i4s2Mk8U/PLoCc3SjlTNXKSjzXKjoRYX0c/eqWGehTe632nGAl8vELoatosCamaXj6aPBGoDQLKSuKHxvrGTeiZytxzCbCYoZ7aADNPYqoSK8iJAtj9XhBbm1n1cw+G+TpbweaWXine9dkvc3fcQWKqEuABQF6JXw/Fwje05EbXZTGlzK2Ant4oVfs3awC9jQN7nR8bGYP3zDD4zoyA0Nr8fZdXfBUXCMQrhK5mzZKQqtmlo4kTgdohkI3HA7xu3qWvbz1bQTF13xjI0/O7X+o1lENSK8ixjxp6puq8ILZFwD3Sx07zSZ1tYHdJ73I2B/6Y47ja6mdSK+wxZyqevsnStK9p8VQzK4uAYb75ZTDWN8FUtJoQU+jZdAQawDPQDd7rTrDEc0e9/11SW+QDNbQUhzJVElKHgpkGIQJEwEqnI6pa/Gstkbrhgb58UyUxZWkaWNTkuLybBHOm8GWInqnOFvCM9IL35BBI7S0qSOIdrmjwQ+UdkKxdJoAFao219GjRLNynrMRZX77cxUlQFlfBSGPrpBoQU6ypsQvE1jB4R4dYU2OprzPj7mqtIxH+83udhBT97RMBInBoBOSV9SjHm/eoy2shbKuRvX8ClOkF0Flfvhp4uRwaqfINhGE+R4MfpPbormdqEMT2CNgl8cXO5uDX6aVYPtYPt5RfS5+x6erd6lrCh3s9NzZdElMb22DKatXnTGH1fHu9F1x9XSy85z09DEJLOCVGghGO42rkKGLl1veyZRJSlWdMIxABIvAQAtrGxrCZ076lrsaHc+yo+CTIsxj22NgVUxRxKuuGQc+C6AR7Qz1IHdFSztRIP4jtUbCJ4m1SNPjlso5Hxh4gYFkWr8SSz7c0/WPqaiLCmhyPTYN6WUzVwMeDTRRKiecjvaWmxif6Tc7tucUVDXyTlrpEgIQU7QQiQAQOnYAaS/6KqeqfVFYTfXhUHHuVKXPLoKc3wdL0qv9SP3RgVzsghvnQM9VYx5LOMWcKBRUmE3NO+7ulSPj9VzsE3f/IBPAkn8Y7bzVV/cPK0qo3d2maneZDz1RhK1P9nlisLeXzgtTZAt7TGOIbxROhY3bJ/VtCuIFqS5GQoj99IkAErgWBu+++237DwPAtpmbcqS6uNOQvTQNWQFfxqPjGFjU5rsSioJiSBHA2NYDExFQveEf6QWqLqJzofLsYDn6iEsOSTQBrzHJqjeuvM1XtTnluudSX79IUqItrUNjJgqniab7q9cSypsbBRnD1d4H/ulHwnhwsOpvq3ya0hO7kAKp34oe0+cgjdUigaRgiQAR+kYCylrzDMox3yrNLDny5oHdKWVwD47KYImjlJWDjgNUIQjHV3QbuoV7mmRJbwgY47C92tTR/u7wDkrWHElBiqfeZefnNyuKalGX7fQrUpV0xhaf5qrXOFDY1xornrWHWGBsTz919XQWnz/MkR6jxp8d9lUlIHfcdQM9PBK4xASWWer+Zl9+izK84shcxh2QGtKUYGNs7pTAf/cpLwGYD3iWyo+1SVxt4hvvAPdwLUkuzbHM4XylEA98o74Bk7TKBdDrt9WrF9xVzyivlpVU3eqXQG6sux6CwkwET93uVeqY4Ow/2ej8T4L4zJ1h9KTEa/qbU1vxbx32FSUgd9x1Az08ErjEB69sWrz4h9W4zL/++Mr/MZ3YTcktNjjOlMB/9ykuA53fFVD24ujuYVwq9U1JLZMfmsP2us5kS0MsL/EFruWQyxBesj5my+kJ5dpHPXZqBHHqmFtegmM2Bifu9GsUUB2ATBHCGmliOXSnxvA/sfv+bxEjgTyrFqxbskpCqhVWiORKBI07Auvtuu9Y3/LFiPn+7PLvEYV8+drppNQHFTI7EVAXWn+P5Us5UqAlcPSUxhd4poTkY53j7a8Ro4O8qMCyZxFYyMzOC6vb/2MzL5/LTCyxfKn9xGrDmFIop9vFQjWE+DPF53Szx3HNqCHzXnQR3T8eG2BIOcxxXOK6LS0LquK48PTcRqEICylrya8Vc/kXy9AJkz49DfnwWtNUEFLJ5ElOVWC/0TLklcIYaQertAO9wP7iHekAIBaYsO/8KVzT0k0oMSzZLBNS15H8UMtnHy7NLtiwL882AuhYHcycPpoGnV6uPFEs8DzSAq78bfGdHwHtmCByNDd9LGsrNnZ2davXNuPIzIiFVecY0AhEgAvsgoK6lPmHs7Lwe+/FhEUMs3KnFklAkMbUPinu/FIsu2nbFlLu3Ezwn+sE12IPi6jyA7dWu1vB/790aXbkfAlYqFdZ060vGzs6vKuiJxdII4zOAYW22341CVXqmcL8Irc1YU4qF+Fy9Hav2Ov9tYqjxn/fz/EflWhJSR2Ul6TmIwBEhYFmWU11J3lHIZN4hTy9C9sI45CfmSmIqJ5NnqgLrjF4Gmws9U03g7kcxNQCuwW4QQ4ELNqftNmcgcE8FhiWT2JcvFmsD0/bNYiZ7Y25qnpVGQE+suhLfbeqNYqrKUPGlxHNXdyurds6aGkdD/1YU7S/whsOpKpttxadDQqriiGkAIkAE9kvA+pnlUCPpuwpbO7fmsJXM+UmQJ2ZAi6XAlJXSlzr9ykqAczjA5hLBGQ4wMYX91VwDXSAEGn8CBXip2B6aL+uAZOwBAtibT4un8sZWRmJ9KC9MgDwxC+pqEop5BaBQffudczpAaA6Ae7AHfNePsmr5gqfunLP9+IluElL0x0wEiEBVEkgkEu46k/uavrH9bPxCz16YBHlyFvREmr1cSEyVf9lQTPEeaVdMdYF3dJD1WXM21n2naNnf6G4LxMo/Klm8TEBdif9M39w5K0/NMzGVn54vfTxk8mAVq6y1HZbR8LhA7Ig+0NQYDy1IbmeUCxyvfUJCiv6GiQARqFoCO2MrDU6/4zPG+tbNufHZUl++6fmSmMIwX6HKXi5VS3LvEyuJKRc40dvQ1wXeU4OsorWjoe5bouZ8NdfdsLN3a3TlfgiwMF+R+7Kxsf3k/NQcyxHEXMHLYW2oMjGFIWF7Yz24+7tKieenh1CEf0OKhF60n+eu9WtJSNX6CtL8icARJyCvbrTYLONT+vrGc3Jjs5BDz9TsAmiJNJg5pfq+1I/AejwgpiIB8Ax0M4+D1N8Fzoa6fxAg8HwuwslH4DGr8hHYfgfj+/rG9igmnufuHwd5dgm0tSQUFQzzVdHHA9aWkiQQWsKsfAaWQ/AM9ii8x/UWsTn4Z1UJuAKTIiFVAahkkggQgfIS0OIbQ2ax8CU9nX5c7uIM5DCHBF8u8RRYigpW0SzvgGQNWM6UWwIxGmJ5MFjJ2tXbAXa/72uiqf8219qqEKbKECjlTKWzemrdjU2Osa6aMr8MKssRVKGqPFMcB/YGP6uS7zszBL6zJ0GIhv9W8oov4xobM5UhVF1WSUhV13rQbIgAEXgUAkos9UQoFj+vJdP9+HLJX5gCeXYR9ORGKQHdJDFV7s2DCcVYgFFAMYWeqVNDrHgn7/V+XGoNvYPjuGNZN6jcnB/JnhWLudQC/EhPb57D4rQY5kMxpSfXSwnoVRTm4wQnOMNNTHD7sQ/fiX4Q/L63O1vCHzsOhTpJSB3GXwSNQQSIQFkIKPH0L4Omf1lLpDsw7IEJucrcMhipDSjKSnW21ijLk187I0xM+TxMTHkGeljOlNTTDna/94tiJPQqjuNIwVZoebTY+mBRV7+gr289Pj82wzxT8vwyGCimqskzZeOA97hBbIvsJp6PgKu7faFo6Td4e3qOfDkEElIV+gMgs0SACFSGAIopS9O/pcVTwdz4NOTYl/oK6KmNUpivGltrVAbFoVm9LKZEzIUZ7AEPJqD3doLd6/2u0Nz0XI7jqq3S0aGxqeRAGOLTk1vDpqH/nRpPdsrjs5DZDfOhZ8pUtarJmWKJ5w114OrrBN+5E0xwC82Bn0nR5usqyagabJOQqoZVoDkQASKwLwJKLHmLpRt/qsVSSLmTgwAAIABJREFUdRjmy5wfBxXFVHoTLFWtvgKG+3q66ryYJaDXeUFsbS6JqdFBcPe0g83t/rwYDb6e4zitOmde+7PSEpsjVsH4sbIa8zPP1PlJUBaWwEhvVZVnyiaJJc8lSzwfBc9wLzi83hud4cb/qv1VePQnICF1lFeXno0IHGEC6lrqdlPXPqquJpwopvA0H+aQGBvbpS918kyVffXRM4UVrcW25lIC+okBlmRs97o/IkSCmDNVRUfKyv7419SgEU8/ydC0L2ixVE9ubIaVAmH7fb16xBSHtaX8XpB62sB7ahh850bA1dayKDjEm7jm+sVrCrCCg5OQqiBcMk0EiEBlCWix5C0FVfsLdSXO5/F004UJUBdWwdjcITFVIfSYWOyo94PQ1gyeoV7mfZC62sHhdf+FEAm+rELDHnuzlmXxeiL9G0VF/4gaS3Rg26Tc+YlSztTGFpiKVhUJ6Oi5ZInnQz3gO3sCPCf6dEd93QfElvAfHtUQMAmpY//nSQCIQG0T0GLJ3ygo2l9rKzEue3ESchemQFlYA2NrGyz0TNGvvAQ4DjjBAfY6P0gdUXCjmMJGx91tYJek7wiR4M3lHZCsXSZgWZZDjSdfBob1MXlp2StPzEP2PB64WAJja/fj4VqXAuE44L0uEFsj4Dk1BL5S2Ywd3uN+nhhq+pejuJokpI7iqtIzEYFjRkBdS/0/RVX9sLq0JqFXChu/qksopjJgaTqF+cq9H1BMOZ3gaKwDqaMF3IPdJTHV1WbaBOHjghF8F9dJpRHKjf2yPS2ReqelFd6dX1iR8hNYpLZ04IKJKfRMXeNSIJydZxXPXT3tLLyHYT4xFPyU0BZ+M8dxRqW4XCu7JKSuFXkalwgQgbISkFeTb7Y09aP4QsG+fPmxaVAX18DYyZKYKivpXWMcBzZRAEdjPeu3hgno7pE+cHW06LwkfkCIht5biWHJZomAspK8w9K0NysrMU9+HMPaU6AuPiSsfS3F1O7ecEaC4BnGxPMTLAzs8HmeJ0RCf33U1pCE1FFbUXoeInCMCchriRdasvoNzBvB5HM84aQsx6BAYqoyu8Jm2xVTdSB2tIJnuIe9OKX2qMpL4p8IkeA7KzMwWbVWViSVE95tqcqb5KVVMY/tky5hWHsVCuiZQk/stRRTNg7sPi+IXa3gOz0M3rMjIHW2JaXWcMtRK9JJQor+HokAEThSBLS1xAsKsvpNbPaKIT6sNaWimMrkKWeqEiuNYkoSWAK61N0OnpFecA/3gauzzbDZ+T8UIsE/qsSwZBPAGrOcen3680Vdf4k8vWhjddUulsRUcSdbElPX8PQqnvJ0BBpYHp0fmxqfGgR7Q/2/StHQU4/S+pGQOkqrSc9CBIgAFuS06bH0Wwr5/B35mUUxd34S8pOzoC6vlcSUblzTl8tRXCKOtwEnCuBsqi+JqeE+cI/0gtjSvM45nG8TI4GvHsXcmGpZSy2W+n5BVp6pzC1xrBQIeqYWY1DMXHsxZfO4WMVzz8kB8J87Ce7ezlVOdN4qtYR/WC38rnYeJKSuliDdTwSIQNURwC91tS71DjMv35Gfmgc8zYdJudpKAgqZHImpSqwYbwObSyqJqa42lnyOeTFCJLjAC863HMXcmEpgPKhNNZa6q5DNvUKZX+ayF6chPz7DPLHF7UzJM3WtfjzPDiVgw2vv6RHwnhkEIRz8nmU5X+3uCMSv1bTKOS4JqXLSJFtEgAhUDQFrYUHUne43GNnsB1FMYc6UPDkP6tqumLqWL5eqoVTeiXA8DzaXyMI5UlcrK9iJYT4xGlrmeOcrxOjRPP5eXooHs5aeTHs9nuJHTFl5VX52icOTfLnxWdAu5wga6Ik9mO2rvQu9lUIkyPYChvg8w30aeF3P8bRGfnC1tqvhfhJS1bAKNAciQAQqQsAaG3Oq9YE7itncO/Ljs6zmjjw9D9pqAgrZ3TBfRUY+xkZ5HngJxVQ9a27sGx0C93AviJHmnaKNe6o7EvjZMaZT0UfHsLYWT37PlLVn5ibnWJPj/OQcKwVSzMklT+y1+GHFc58HpM4oeM+cYMnnru62gtQWcVyL6ZR7TBJS5SZK9ogAEagqArn5ZIh3wgeLmewt+ck5B5ZGkKfmQF1LQhFzpgrX7ku9qkCVcTJYRwj7rjmDjSD1dLAkY2wp4ww23WeXpNscgbrzR7XKdRkxHtiUGkv/cyGTeSoLa98/Udrvq4nSfkfP1DX4YVNjlng+0F1qajw6CM5Q42fF5tBrr8F0yjokCamy4iRjRIAIVCMBK77VoRS0O4uZ7G+w1hoXJgBfMlosCUX0TBmFapx2bc/JzgOPOVOhJlaYEZscY60pZ7Dx30Sv9HKu/uj2XquGhVPXEl8wtrOvkGcWIHPvGOApVm0NxVTu2ux3rC3lEkFsi4LnZD/4MMQ31Au84Kz52lIkpKphx9MciAARqDiB/HI6wtuKf25s7TwNwx2Z+8dBwZdLPFV6uRSo3265F4F5ptwu5plydbeD9/QQ68HmDDRdFB1wIxcO58s9JtkrEbA2NnyqbPxJIZu9TZ5egMw9lwBFlbaahGLuGn082DhwNNSD1NsO3jPDrBefFAn/MJOxPTs4HMzV6tqRkKrVlaN5EwEisG8CVizTpBblvze2t6/LT8xz2fvGHhBThWwO4Fr3Kdv3E9XADbueKUeoCdx4cuvM8K5nqmll22YOhklMVWwRrbvvtqv9w/9fcSdzE3pid352EZS5RVCX42Aq6jXxTNkEAZzNAXaq03dmBNwn+sDu9fy+GA29v1bDvSSkKraFyTARIALVSCC/HL+OB/isvrV9Oj8xy7EcksueqVyexFQFFu0Bz1Q4AO4+PAY/DO7+Lmwv86+WzflyV7RxpQLDkkn0TK1Yksan/95Y37wpPzUHmfvQE7sEWhw9U/LhiykbxxLPxfYW8J3GpsYjIHa0jPNe8TliMDhTi4tGQqoWV43mTASIwFURUGKpX4Ki+TV9faP18mk+BcMeyXUw8eVCnqmr4vtINzMx5XVjDSFw9XWAb3QQXP1d4Gys/4Hgcr6Aa2zMlH1QMsgIbC0s1Al24QvG5s5vYgkQ9MTKs4ugJ9LXRExxDqx4Xg/ugS52is87OoDh37+QWppfVotLRkKqFleN5kwEiMBVE1BTqV5LM+/VUmkPiqnc/eMgzy6BntpgOSRgXqOiO1f9ZNVrAMUU7/Ww0I67vxM8JwfB3d+NRTzHhUhwpFZDO9VL/MGZqclkl6Vbn9E3N58uTy1AFnOmZjFHMA2mrByuZ4oDVrxViIZZ4jmreD7Ua9ol14gQaZqoBZ4PnSMJqVpbMZovESACZSOgrqb7zKLxX3pqvb7kmUIxtQh6ahNMFFOkpcrG+rKhkmfKUyrQ2N/FjsFjaQRHnX9ScMB1XLB2k47LDqvMBrVEYsQyuW9qyfVheWoeMvdeKoX5EunDz5niebD7PSD1dYL/DFY8HwapLZoTTD3ItbYqZX70ipojIVVRvGScCBCBaiegxpK/YhqFu/TkemtubJqVRpBnlkBPb7IvdfJMlX8FmWfK5wWhJczCO56R/lLOlN/7jyY4ftvV2rRW/lHJIhIwkhs3FgvGl7TE+kBuAj2xE6WPh/QGmPnD9UxxTicI6J0c6WUn+DwnB4p2n+cjUjT8jlpaLRJStbRaNFciQAQqQkBdSz7NKhS+p8ZTQn5sBrIopqYXwdjYZl/qYJoVGfc4G8UCjbzfB+IDYqoPXL2d4PD7/0nIrP9fbnj4GjaIO9orw3IEC8XPasn0EJYCYWJqrhTWZmKqcHh11Xi/F6SOFvCcGmS1pVydrYucJN0mNQfurpVVICFVKytF8yQCRKCiBJTFRCdw5py6luAue6YUzJna2Cl5piyK85V7ATDp2F5X8kxhsU73SB+4+jrB7vNNStHgYLnHI3slApZlcdra+jMty/isFku15KcXIIun+VhYewNMRTs0MYXeSUegka279+wI+E4NgaOp4ROSA97JRSJyLawZCalaWCWaIxEgAodCIL+WOs0Z+r9oa4mG7MUpyF+aZgnoD3imSEyVdx04Dphnqs4LUmuEFevExrae/i7gPe4fKVr+OfWdndvlHZSsXSagxtKv4kzzg/JqrF7G3nznJ1nRTiO9BaaqHk6RWqx4LokgtIRYvpz39AjLmeM9ridKkeB/1MJqkZCqhVWiORIBInBoBNTV9K+Zhvp5bS0ZyV6chNzFaVDmlsDY3AZT1SnMV+6VQDHldIC93gdiWwQ8Az2sSKOru91weN1f1znzLd7m5nS5hyV7JQJqLPFGq2B+QF2NSznWPmmSfTwUNrbAlFWwiodQ8R8Tz1FMd7WyXCmsMya1RybFL35+mLvjjqqPq5OQor8mIkAEiMDDCCiriadAofgvyvIq5C5OQe7SNGCYz9jOkJiqxG5BMSU4wbErptxDveAZ6QOps1Xl3e4/l1pqv7FtJbCVy6aylniFpRmfVmNJJysFcmlq1xO7BRaKqUPIEcT1x1ZCePCA9eE7OQCO+rrPipFA1Tc1JiFVrp1IdogAEThSBKyNjRYlq6woi6uQvTAF+bFpUOaXoLCdZTkklDNV5uXGEI/gLHmm2iPgHukH73AfSF3tBV4SPy9Gg68r84hkbpeA9W2L156Qfo1VMD6hLK3xufEZJqbYx8PGDlgY5juEumq81w1iR5SF+HznRsHV175p551PcbYE76/mxSIhVc2rQ3MjAkTgmhIwEutP1mXl2+rSamP2/ATg17qysAIF9EyRmCr/2tjQMyUwz5TU3gKeE30lz1RXu8U7hPc4bcbHaiUBufxwKm9RiaX+CPTCW5XFFQc7cME8U8tQ2EYxpVfcM8XxPDia6sE10A3eMyOshYwQbPquINheUs31xUhIVX5v0ghEgAjUKIFS09ehF1iK/nF5aaUpd34S8uMzoCyslsSURjlTZV9amw04EcN8dSB1RlmoBxvcii2RdV4S3yuY2hdrrWBj2RlV0KCylnyPpenvUZZWOQxps7D2/AoUtnbA1LSK11WzucQHKp6zcgj93Rmnr+42IdL41xV87KsyTULqqvDRzUSACBx1AtbYmFOtb7rZ0oyvYq0dLNjJxNTiWinMdwgvl6PO+Beez8aBTRTB0ejHhrZMTHlPDuALNsGJzje6ouFvHTsmh/jA6mrytUVV/bS6tAZ44AJrq+HHg7G1AxZ+PFTy9CpvA7vfB1J3G8uVwjCf2Ba9IDm5p3CRyPohYtjzUCSk9oyKLiQCROC4EsC6O0os+QLQjG9gFWgM8+XG50BbRs9UFkxVO65oKvfcKKYkERwNdew0n/fUEEtAltoiBRPgRndb5GeVG/x4W2Z1phLrbzIV5aPywiprcpyf2A1r7+TAwo+HCpZV4wQHSzx3DfSA/7qTTEQ7Gny3i9HmP63GlSEhVY2rQnMiAkSg6ghYlmXXE6k3GXnlXcrcsi+L1aAnZ0Fdjj8Y5qvkl3rVETmECfE2sIkCOBoxzNfGXqhYGkFqjchgtz9DbA78mOO4qj8efwikKjKEFk99sCirb5HnlmzZ+8chPzFXCmtnsmDpRuU8U3jwwOPCEgjgPTXM8qWwhVDBAQO+aHSqIg97FUZJSF0FPLqVCBCB40VgZ2WlQeSFtxRl+fX5mSUXNjnGFhvaZTFVyZfL8UL94NNeFlNN9SB1lcQUy5kKB6dBcL5yV0xV0D9yXMGXnluJp//AzOXfK88vQ/be0n5Xl9egsFNhMYWJ5411rBej78wIeE4P4Zr/SIiGnsJx3CEUt9r7upOQ2jsrupIIEAEiACimnLzz/aasvIa11rh/gn2pa6vxyr9cjit/DPO5JHAG6plnynNiADwn+0EIB+YlyfF0LhSaO65oKv3cLMwXT99ezOU/IS+sQOZnFyE/NQ/ayu5+x5ypCv1YxfNoiIV00SvlHe5VeK/n98XmwMcqNOSBzJKQOhA2uokIEIHjTkCNJf+qmFOem59e4DL3XQIZXy6riQfF1HEHVO7nt9kAT3Q5mxpA7GoB36lh5pkSmoOQKKhSZ2enWu4hyV6JAIa11Xj6jmJefqe6sMLt/Pf9gB8RmIxezMmlBPRK/DgO+DofuLpaSuUQzp7AJtf/YXM5Xy5WkXgmIVWJxSebRIAIHHkC1saGT1P0LxcyuWflZ5ccOfRMTc2BtpZkOVOWUTjyDA79ATHMh2IKm9x2t4NndAA8w+iZalq3CeJThFDDhUOf0zEZ0EqlPFrBurOQlX8bmxtn7r3EPFPqShyK2XzFcqawfZAj1AieoT7wnRlm3imhoe5dzmjoQ9US4iMhdUz+COgxiQARKD8BdTnZDbz5p0Ym/3R5asGGp/mw+asaS0IRc0hITJUfOhNTEgihJpBQTJ3sB89wLwjBwCXe5bjVGQjcW/5BySLzTK3sNOh27aPGdvbl8uwCZO8bL4X50BPLxBSWRigzK/RKeVwgtDaD7/Qw68Pn6uvcsTxCvycUSpZ5tAOZIyF1IGx0ExEgAkSgREBeWY/abOa/GDs7A/hSyd0/DrnJOdDjaSjiUfECeabKvldsNvZydaKY6m0H70g/YH8+IdS0WHBw11OT47ITf8CgtbBVpzrUTxaz+ZdgKRCWMzW9CBp+PKCYqkCYj7PzYK/3g6u/C3znToD31CCI0fAlMRI6Ubkn3btlElJ7Z0VXEgEiQAQelYCymlwrbG1HUEyx0ggY5kMxlcmBVayqQ0ZHYxUfEFMBcPV3lCqgD/UycSVKDj/X2Jg5Gg9afU+hxGJtHNg/p2/t/Io2v8zt/O8FyE/Ps7B2Ma9URExhgVZnc4B5IH3nToL3RB84vO5XOsPBL15rQiSkrvUK0PhEgAgcCQL55XTExhW+a2ztnJOn5jnWmw/DHvEUmExMUbmjsi80bwNsdCuEUUx1gme4j3mmnE2Nazxn+/Vqb3Zbdh6HaDC/lj5j56xP6Vvbj0ePVA6LduLHQyxVElPlLgWCIT6/l+XGeU8PseRzV2d0hpOcvy4GAtOH+Oi/MBQJqWtJn8YmAkTgSBHQ4hvDVkH/qr65fRrr7eR2xRQL8+HpJvJMlX+9eR54n5ud3sPQj3e4jzW9FZrq7+McwkuFcMOl8g9KFpGAHkufs8D6ir6xNcg8sbjfJ+ZAT65DMbebgF5GVJzDzjyO7qGeUm2pkwNFR0P9R8TZid/nbrrpmsXQSUiVcZHJFBEgAkQgv5hu5h3mlJ7e8OJLhRXtxJdLepO9XIA8U+XfJDwPdr+nJKYGu1mIzz3YYznq68a3ePP6SCQil39QsogE1FSq1zLMf9bXt9qVmSXI3ncJ8pPzJTGVl0ueqXL90CvllkDAlkGnh1nyuauvY8cmSc+SIsH/KNcw+7VDQmq/xOh6IkAEiMAeCCgriZieXm+Wx2chc2EC5OkF0JMbzDMFJoX59oBwf5c47GD3lcQUeiw8I33g7u8GR71vXCiI/4drr9van0G6eq8EjFjqiQXT+rq2vh5Vpxchc/84yExMpUthvjKeXn0g8by3E7znRlgPRikS+mvhi5+7mbvjjmvyh0VCaq87ha4jAkSACOyDgLqU7DKh8G1jffNsfnwWskxMLYKe2mBf6uSZ2gfMPV3KAYZ+ePRMRULMK4ViyjXQBQ6v53uCTbidi9Qv7ckUXbRvAlo89TyzWPy0ntoIoEcqd2GStZPB/W7KZRRTHAAnCCA0B8B7chC8Z0dYbpzD632REA18Y98TL8MNJKTKAJFMEAEiQAQeiYAWjw+bhvUtPb0xnBubhuz5SVBQTKU3oCirAJQzVd6Ngy9ZuwP4Og+ILc0lz9SJAXB1t2l2v/drIu9+Bxf2pso7KFm7TECNp55hFYp/pyfX7bmJWchdnGIV/0tiSi1fKRAbB7zXg+sK3jNYW2oEXF2tiqzlw429vYd+WpOEFP0NEAEiQAQqSAB78wk254YWT0LuUklMydPzYKxvQ1FRyDNVAfZYDdte5wUx2gzu4V7wjA6Cq7PVcNR57hSaQ2+vwJBkcpdAbjV1ijcL92jJdVt+fIaJKUxENzBHUC7ffufsdnAEG8E90gf+sxjiGwZng/9vhUjwuYe9GCSkDps4jUcEiMCxI4CNX9Xl+IKWSLWjmMKwhzy7BMb6VunlQjlT5d0THAdMTPm9ILaGWRsZJqa624B3i78r5EOf4Xo5rbyDkrXLBLS1xLOLRfPLejxVnxubYR8Q8vQcGOnyfjzY3C4Q25pZnhT24XP1dKzxbumVYiT4g8NcDRJSh0mbxiICRODYEtBi64MFXf2akUifZp6pi1OgzC6Bvr4FJnmmyr8vUEwJTnBgzlRblOVLYZ82V1cb8JL0eiES+DzHkZgqP/iSRSW2/mKuoH9GiSU8+UslMYVFO42NbTAVrTxhbd4GjoY6kLDi+Zlh8I0OgjMS+puig3vNYVa3JyFVqV1EdokAESACDyGAXikjtn66WDC+o8UTXdkLUyzsocyhmNoGUy3Ty4WoP0iA48AmOMFe5wOxLcLCQL7TQyC0RjZ5l+v3xEjgK9XS+PYoLpua3Hi6qar/hL34cpemmJhi+z29VdrvZfDEcmIp8ZxVPD97EtyD3Qbn9j7D0x7+18NiSkLqsEjTOESACBABrLuznOy2bNasuhJj+VK5i5OgzC2DsbkDpqKW5eVCoH+egE0UwF7vY/WH8IQXFnOU2iK6wyM82REK/YR4VY4AVkDnCvo92mqcFezMjc+Uwtob22Dhfr/aJse7rYLEzhbwXz9aamrc0apK7RGpck/185ZJSB0WaRqHCBABIrBLQF9NjhaLhe+rK/GW7EUUU1OgLqyAvkFiqiKbBD1TTEz5WU6N50Q/eEeHQGyPAudy3OgKh/+rIuOSUUZAXk09Hwr657TVRH32vvGSmJpfhgKG+TT0TF2dmsKyF/amOlbywnfdKHhPDoCzsfHjYkvwdw9jCUhIHQZlGoMIEAEi8BAClmXZ9FjyWUXduFNdjbMwXx7DHgsrYGzu5pCUIexB0B9CwIZhvpKYkjpbSjlTo4MgtUY0XnK9RGhu/A7xqhwBJZZ8MejGF5XlmBObemM5EPx4YJ5YTb9qT6zNJYHYHtlNPB8G90CvbhOczz6MxHMSUpXbN2SZCBABIvCoBKyZGUF3+55f0I1Pasuxehb2uDQN6uJqKSG3DC8Xwv8wApiALgqlBOWuVvAM97IXrxAJpe2S69VCpOlviVllCFgAXD6WfJpNM/5JXV4D9ExlUUwtrUEBPx5UHcC6Cs+UjQN7Yz24eztYkc7ddf1bqbX5BRzHlbFPzS/yISFVmT1DVokAESACeyKgx5KvKRaKn5HnVyB3fpwl5SqLa1DYypQScq/m5bKnGRy/iziXCM5GFFNt2JMPvKeHWM0pXuSHhebm8eNH5PCeWE1uPM1UlH9SV+Lczn/fD/mJWVCXYmBs7YCF+/0qfnhK04kVz08Ns1N8npFesHu9bxQjwU9chdkr3kpC6oqI6AIiQASIQGUJyCupt4Guvl1ZXK3LYmsNDPMtx6CwVYYv9cpOvTatY86UJIKjqR6knrYH2smILREsmfAkKRL899p8sOqftWVZDi2WfnVRVd6vrSV9mf+9wHKm0DNlbGXAQk/sQT8eMPHc5wapvQW8506wE5pSW/THlkN6gbstEKsUHRJSlSJLdokAESACeySwsLAgRpyetxly/k3q4qqPiSl8uSzHWM6UpRkHf7nscQ7H7jLMmRJFcAQawNXTzk7zYRV0saU5xwvibZQzVbkdYSUSbtW0vcFStfcri6uQuW+MfTzgfi9sZ8DUMWfqYGE+TDx3NDWAGxPPsanxyUGwN9Z9yNXaXLGK9iSkKrdXyDIRIAJEYM8ENmZmfJLL9wFQtVfJs0sOdppvbAY05pnaAVMnMbVnmHu9ED1TGOYLNoKrtwPcQyimekCMhJM2p+Nlh5GovNepHrXrLMty6fH07xYV9Y+UxRXI3DPGEtCxTEJhO1vKETyIZ4oDwMRzIRoG75kh8J05Ae7+LtUl2Bq41lalEhxJSFWCKtkkAkSACByQgLqW+oGpqk/PzyxwufMTkEUxtZpgYspCMUW/shOweVzgRM/UYDd4BnvBPdQNUiS8BcBfJ7aF5so+IBl8gIAaT36smFffoC6v8Tv/c6HkicX9nsmChRXQD/DjeBvY/F4UUKXaUmdGQIyEksLUWAt3002FA5h8zFtISJWbKNkjAkSACFwlAS2W+o6RyT1XnluyYcHO3PgsaCsJKG7veqau0j7d/jACNg54t6vUBHeguxTmG+jGitkrPO94jjMauJeYVYaAlUyG9AL3xwU5/yJlKSZk77nIPLHqShwKmdyBc6ZKiedBVjPMf+4EeIf7ZIfPe7szGvxSuZ+EhFS5iZI9IkAEiMBVErA2N/1qXv+zQi73ImVumcMmx+x0E75ctrNgGeSZukrEv3j7boVsFFOewR5WZ8o10A3OcNO9dt7xWmdz0/+UfUwyyAgoiUQnZ3J/Uswrz8ZCnaxo56VSmK+YzR8szMdxwPs8IHW2gg/LIZwZBqmj5T6Tt9/qaQ1fLCd6ElLlpEm2iAARIAJlImBtbdVpivGNQib3q/L0PJQS0GdBxZcLfqkbZY9QlGnmNWxmV0w5w4FSWQRsctzXYQrBph+CZfyO2No6U8NPV9VTt+LZgGbm/7GYU86imMIEdCwFosdSu2IKS4Hs7xE4ux0cwQa2lr5zJ8Az0l90BupeLbZEvsRx3D6tPfrYJKT2ty50NREgAkTgUAlosfQlYzsznJ+egxz25hufBi2ehuJODqwCiamyLwbPA+9xgxBuAvdILzv1hYno9vq6b0pe8bVcff122cckg4yAFYu5NJP/aSGXO6ksrHCZe8cgPzYFWiwNhUweLGwns5/fbpkLoSUEvnMndxPPO8AmSANiNDC1H1OPdS0JqXKRJDtEgAgQgQoRUFbi3y/sZH5Nnl5gjY7zk3OgxVPkmaoQb87OA+91A/NMDfeBdxTFVCc4G/3oFoLmAAAgAElEQVSfVw3h7XXtdVsVGvrYm9VWEicsgC8b2dwZdX6Zw3Yy2bGSZ6qQzZcOXOznNB/Pg73eC67udvBdf4rVlnJGgl91tUZeWi7YJKTKRZLsEAEiQAQqRCCzutroAP7PCluZF8gzi5C5fwzkyfldMZUnz1QFuGM9IpvXDQImLA/1sGrZJc+U7zOinXsrFwzmKjAsmQQAfS19pmgV/6aQybbjfs9dmILcpUnmmTLz8r5LgbDE81BjqQ/fuZPgPdEPDq/3Vmdz01fKAZyEVDkokg0iQASIQIUJWOm0V9OK3zN2sk+SJ2Yhc/8480zpGObLySSmKsHfYQc7iqloiJVF8J4bweTlgr3O/yGxOXAHx3EUW60EdwzzJRJBtQDx4k7Glp9ehOyFUi9Ktt/z8v5KgXAAvNcDUndrqeL56BC4ujvGpLbmkXJMn4RUOSiSDSJABIjAIRFQMWdqY3MYRVSWialZ0BMbJKYqxB89U3a/hxV4dA9g0vII69HHeaTXuFsin6vQsGQWALKJRNBegPuMze1IyTOFRWqnQU+sl/b7fk6v2nnWEsgz0l+qLTU6aNnr/Hd976c/+p2bb765eDXASUhdDT26lwgQASJwDQjIy7HvFrZ2np2fmIPs+XHA3KkHXi6UgF7eFeEAOIcD7H4v80xh6xFscuzqbsOGuG8QI8FPlndAsvZQAvJK/HoO4C+Mze0BeWoeshen2OlVPbHrmdrH6VWb2wViSxi8Z0fAd2YEWwPdb4nSrZ7W0IWroU5C6mro0b1EgAgQgWtAAL/UHYb5GWNj+7k5fLncOwb4xa4lMIdEoTBfudeE40piyucGsT1SKo1weph5pniP631SJPQH5R6S7D1IIB+LnbWZth8YG1tNKKKyl6YhPzEDenwdTEXZcykQDk9k1vvA1dMB/seNsjV0hgJ/KrWG38xxnH5Q5iSkDkqO7iMCRIAIXEMCLGdKL96tb2yfzY/NQObeSyDPLICR3ICirJKYqsDaYNIy5kyJnS2s8jnWJpJaWwqcR3qnKxr6SAWGJJO7BKxUyqPpZlZPb0JufIbVmGI5guiZklWAwt6ic5wogBBqBM+pYVao0zPcW3CHG4Nc3cFPYpKQom1KBIgAEahRAtbGhk/TCj/RkusjKKYwZwo9U3p6A8w8ialKLCsTU3U+ENujJTF1egjEjhbgRekVUlu47O1HKvEMtWpTicXaocj9SE9ttGNPPkw+z0/Os/1ezMoA5h7E1G47IKmrFfyPOwW+sydwLZfFlnDHQYt0kpCq1R1F8yYCRIAI4OmmVCqsKIWvG+mNmzDskTk/DsrsEuipTTBlPM23h5cLkdw7AQzzOR3gaPAzMYV9+bCdjNjZCna3641iJPiJvRujK/dLQF5N3MAVzT830pv9WF8qj2JqN0fQVPHj4cr7HQ8QsMTz4T7wYeL56SEQGup+2xkOfGG/88HrSUgdhBrdQwSIABGoEgKWZXFGKnWyqBc/rSU2Hi9PzLDSCCUxtQGmsreXS5U8Tm1MA8WUUEpAx3wb1uR4uAdcnW067xJ+X2gOfbg2HqQ2Z6mvJkdNy/qxlkx7chenIHtxknliDbbfNbCKVxZTNrcEYmszSzxHz5Srq31a8klP5RobV/ZLhYTUfonR9USACBCBKiSQj69fx1vm36hriZb8JRRTY6DOLQHmlJiqtqcv9Sp8rKqeEgvz1fvB3dfBKqBjErq7q3XHJom/I4QDX6/qydf45CzL4tW1ZAFzpFhNtYtTIM8tgZHahKKiApjmYz+hzQb2xjpwD3SVvFInBkCMhD4qRkNv2S8aElL7JUbXEwEiQASqlIC6tvE0sIwvqqvxVqy3kz0/AcrcChjrmyXPVPEKL5cqfa5qnhYmLzsa68DV18lCfCimpNbIksMl3eYIN/2wmude63PTluJDJljf05LpLswPxJwpZW4ZjPUtKMrKFcWUTXSCIxwA3+lh8N9wGty9HbMOj+dmZzR4337YkJDaDy26lggQASJQ5QTUePrXTE37hBZLdeOLJXdxApSFVTDQM4Wn+a70pV7lz1d108Mw30PEFDY5dg92gRBtnuCcjle6oqGfVt2cj8iEMKytJtafCIbxJT253oWeKSzaqcwvg57eAsyZgsf6eECvlM8DYkeUCSk8hSlEQ5+WWiO3cxy3568OElJHZEPRYxABIkAEkACGPPTY+vOLhnanuppozl/CPmVTIM+vgJHeAgvDfCSmyrtZOA5sovBAqAj78mHISIw2j/GC7RZnKHS+vAOStcsErDvusBmvuf16s2D8RI0lbdn7xlk7GQX3+8bufn8MMcUODjTVs0KrdTeewVOYqquvs47jOG2vlElI7ZUUXUcEiAARqCECaiz9RqtYeL+8sOJCIYVJuSp6pjDMp+kAplVDT1MbU7W5pNJLebCbVc6W+rtADAfutrjiS10tLau18RS1OUt1JdVjWYUxLZF2Zu65BDkMay+tgrGxw4p2PtZ+5z0uEFojLOncf90ouHrbi0Ik6NhrOQQSUrW5Z2jWRIAIEIErEtDi6feYmv52eXFFLImpaVCX1lgOiaWhZ4rE1BUh7ucC9Ey5JXAGGpmYYq1kBrrB0djwFZdPegNXX7+9H3N07f4IqIn0syxN/7SWSLcwMYVhPhRTm9tgyY/hieV5Vs7C1d8F9U84x5pTO+t8vyFEQt/dywxISO2FEl1DBIgAEahRAtpa8q1FVXufsrTmRK9Ubnwa1IU19nLB03xgkZgq69LabCUxFWwCd38nO17v6e8GR6DxL8Vo8Nb95N6UdV7HwNjCwoIYFd0vLGjGh/VkOoCtkzBvSl1cBWNrp7TfHyXMZ5MEECJB8JwegbonnAV3f9c9ktP3DK7Zm74SOhJSVyJE/04EiAARqGECY2Njzi5/41st3bhDnl/mUUxhFXT0TOmYQ6IbJKbKvb5MTLnAGWosVT8/O8I8VM7Ghh+IkeAzyj0c2XuQgGVZghZfv9UqFj6nrSUgc+8YZO8bA3U5Bsbmrph6pBxBTDyv94HU2cISz/3XjWpCJPx2MRL4+JX4kpC6EiH6dyJABIjAESCgxpKfMzXjlcrsoi1zcZIdFdeWYuxLncRUBRaYswHvdYGzOQDu/m7wX3cSpL4OEOrqvuo05FdxnZ1qBUYlk7sE9MT6601d/6CylpQy91wETELXVnG/Z9jp1UfyxGLiOYpfz8lBqH/S47DY6g9tHt/LXNHHLtJJQoq2HREgAkTgmBBQY+nPFmX51crcEmQvTEJubAa0lfiumNIBKMpX3p3A86zJsTMSxFARC/O5ezvB4fd9UshsvIUbHtbLOyBZu0yAnV6Np99a0PXf02PJhuw9l9ieZ54pDPOxop0P2/AcBzyWQ4gGwXfDGaj/petACAZukToij1lclYQU7TsiQASIwDEioK0l31PIyXfIC8uQu38CcpOzoK7EobCVAQtP89GvrAQ4Ow+818PElGcAE9CHWfFOZ73va0Ik9OKyDkbGfo7A1sJWnUssvNHU9TerawkPhvlKp/nW2H5nOVMPC/Nd7sOHhwQanvQ4XK8Jd0/70GOhJSFFG48IEAEicIwIWGNjTr0+8AeFXP5d8vwSZO8dh/zELKirCShsZ0phPvqVlQC+nDEBXWqPspwp76kh5qHivZ5/ECPBXyvrYGTs5whYsZhL4/j3WUbxTeryWiln6jx6ptbYfsfefA8P89m8bhCjYfCdGYb6X74BhI7WF7qiwW89GloSUrTpiAARIALHkIAaS32hmMvflp9d5DB/JD8+C9pqHAqZHImpCuwHFFO82wVSRwsr/ug5NQCu7g7L7nN/Vijqb+ZaW5UKDEsmdwno8fU/K2rabcpKTMTSCFioVlmKQWEbw3wPE1M2Gzga67GeFDQ89QlQf+NZVWgNezmOKzwSUBJStM2IABEgAseUgBpP/WlhJ/s6eXaRHROXUUzFklDYyYFl4Gm+YwqmQo+NYqrUkqSF9eXznOgHV2eranO5/0hsDX1grwUgKzS9I23WsixJS6Q/ZCr6y9XVuCdz3xgTU6yuGp7m0zDM9+CGx1OXQrgJPKMDEHjmkwtSZ/TFQviRvVIkpI701qGHIwJEgAg8NgFlJY5hvvfKsxjmG4P81Bxoa0kokmeqIluHcziA93vYMXvsy4eCSuxo2eHcrne6o6FPV2RQMsoIZOPxgMOyv9fUtVeoKzEnhrWzY1hXbeXBnKndumocFulsrAOpuxX8jz+Lief/r7u38znkkaLNRASIABEgAj9HwLIsh7aW+ONCJv9meW4JWNhjcrYkpnIyhfkqsF+YmPK6WejIOzoInhMDIHW2aiA4XuSKhP6mAkOSyV0C1sKCqDrdX4Zi4YXy4ipk78X9Pg/K7BIY2ztgqXh6teSZwpY/znAjeEb6IfDrT/mpM9r2PHdHIP5wmOSRou1FBIgAETjmBFBMqfHUl4vbmVvyUwuAYQ95co6F+Yp5hcJ8FdgfnNMO9jofuHo6wXtqENynBsEVCc3Znc5b7ZHgf1IF9ApAf4hJJZb+iqVrz1eW1kTmiZ1ZAGVuudRO5nLOlJ0HZ1MDiO1RqH/S9Vv1T7zhd1yd0W+SkKrs2pB1IkAEiEBNEkgkEu56k/u0trHzUnl6nhUwxDCfHk+XPFOYM0W/shLgnE4WPnL1drCTfBjmE8JNP7UJ/MvFlpbpsg5Gxn6OwObcnN/l8n7AVPVb1ZWYO3s/7vd5UOaXWS9Kc9czxbslEFrC4Lt+FE/wvbn+cafuJCFFm4kIEAEiQAQekYC1uenX8/qd2tb2bfL0AmTuHQd5eg60RBpMJqYe8dAS0TwoAWxyLKCYKp0Q85weBu9IHzibg/dIbZHrKPn8oGD3dh/LmTK53zcL5mvV5TU7iinMFZQnZ8HYzICp68DZbKwHn9jZCp6hnje3/c5LSEjtDS9dRQSIABE4ngTk9fWoTTc/r69vPLMkpsZYDokeT4GpYJiveDzBVOqpbSimBOaZcvd1lcTUaD8IzaGsGAn6KjUs2S0RsCzLpsU37rQKxhuU5TXI3j8B6tIq5C5MsHYyVqEIjgY/2P1eqHvcqb9sf/7Tb+c6O7cfyo9ypGg3EQEiQASIwM8R0JLJk1CAz6mpjRvyk3OQPT8BMob5kutgYs5UgcRUObcMx9uAEwVwBpvA1d8J3tEh8J7sB0dTw39aULjZ1dKyWs7xyNYvEtDi6T8oatrtWizZJM+tQH58BuS5RdAT64DhPY7joP5JN8zUP/PJz6g70TtHQop2EREgAkSACDwmAT2+fp1ZLN6lJtOjl8WUMr0AeorEVEW2Ds+zF7YzhGKqC3yjg+Ae7gVHnf8fRMH2ci4cTlVkXDJa8kzFYi7Dsv9WwdDv0NObLeriKmudpCwsg7GdZYVqG5/6BGi86YZTnpH+8ySkaOMQASJABIjAFQnk11KnbYXCN7TUev8DYmpmkXmmirICUDSvaIMu2DsBrF1k82IhyAC4B3tKrWQGuk2+zvtZV0vz6/Zuia48CAHLspxqPH49Z9ru1je37azy+cYWmJoOFseBqzXyqULE/47w6GiehNRBCNM9RIAIEIFjSEBJrD8ZjMJfqvFEM1Y+z16YAHlmuRTmU1USU+XeEzzPqp8LkQCrfI5hPmyga3e7ni5GQ/9c7uHI3i8SsCyL0+NppaCqTi2W5LDCvxBu+keX330zFwzmHn4H5UjRLiICRIAIEIHHJKDHky8tFsw71bVEY25sBnIXJ9npJiO1CaaiApjkmSrnFmKtZPxeENsi4B7uB+/pITzVtwOi9BR3JHBPOcciW49MQInF2sHi38VxXMSUZV3qbn/eo9X2IiFFu4gIEAEiQASuSEBLpF9U1PS/0NYS9gfEFBYwTF8WU9SY74oQ93oBxwHndICj3o8Vz0ueqVODILVFpyyH/WWulvB/7dUUXVd5AiSkKs+YRiACRIAIHAkCaiz1q6Zu/IO6GufyY9Mlz9TcChjrm2DK6pF4xqp5CKwxJQngaKhjyefYpgRP8gmR0L+Lds9vchHfetXM9ZhPhITUMd8A9PhEgAgQgf0QUGLJl1i6cZe6EhdyF6chd2kS5PkV5pmyVG0/pujaKxGw2YDHfm+BenDtJp+joLI3+N7oao184kq3078fDgESUofDmUYhAkSACBwZAmos9XpT0z+sLK8JuYtTgP8pCytQ2NwBE8XUbtPXI/PA1/JBsCyCxwVCcxDcQz3gOzPC/tfu9z5LDAe+fy2nRmOXCJCQop1ABIgAESAC+yaAnilT1b+iLq1B9sIk80ypSzEwNndKnikSU/tm+og3cACcwwG8xw1SR7QU4js9CO7ezh2bQ3iV0BL8dnkGIisHJUBC6qDk6D4iQASIwDEnoMZTzyzK6t+rrLXGOOQuTYOytAYFbK1BYb7y7Q5MPseefHU+kHrawYvJ56eH0Uv1I8nlfTkXrlso32Bkab8ESEjtlxhdTwSIABEgAg8QUBKpV5h55ZPKcsyVvW8M8iimFtegsJMFS9PJM1WuvcIB2CQJHIF6cPd0gPfMCHhHB8HeUPe7UlvzpziOo7495WK9TzskpPYJjC4nAkSACBCBnyegJlJvKObVjykLyzw2fc2NTQOG/Ao7ORJT5dwsvA14926+1GD3br5UL/B+36ukSOCucg5FtvZOgITU3lnRlUSACBABIvAIBEqVoDduKeRzX8UTfNnzpTCfthqHwnYOLJ08U2XZOJgvZXcA73OD2NrMPFIY4nN3t+d5j/B/nMHg/WUZh4zsiwAJqX3hoouJABEgAkTgkQigmFJXU7cUFfmrCoqpe8chNzEN2kqcNXxlYT76lYUA5kvZ6/3g6moB76lh8J07AUI0/FOpJfyEsgxARvZFgITUvnDRxUSACBABIvBoBCzLEvTE+lv1nZ13KvOrYg4T0MdRTCXAyOYBdINypsqxfVixThGcoSZw93eWQnwn+8HZWP+5uCa/sbOzk6qjloPzHm2QkNojKLqMCBABIkAErkzAWtiq0wTjPUYm+0Z5ZhFy5ycgPzYD6loCitk8WEaBxNSVMV7xCs7Og83jAjEaBs9IH0s+d/d2xGxezwulSPA/rmiALigbARJSZUNJhogAESACRAAJWCs7DRqv/rGxnXmVPLXA6kzlJ2ZAiyWhmJHBMgwCVQYCrLlxnQ/EjhaWL+U7O4KNju+V8tEbuWGOYqllYLwXEySk9kKJriECRIAIEIF9EbDGxpyav+Hr+nb2N+XpecieRzE1C3osCYWcDICeKfpdHQEM8WF9qaZ6cGMLmdNDTFA5g00/EiPBX74643T3XgmQkNorKbqOCBABIkAE9kVATSa7Ld36nLG59cv56QU+h56pybmSZwrFVIFKH+0L6CNdjCE+UQQxEgDPiQHwnjsBnsEesInuX5ZaAz+6avtk4IoESEhdERFdQASIABEgAgcloMfS58xi4Yva5tbJ/Pgc5C5Ogjw5D1oiXRJTRRJTB2V7+T7OjiE+D4gdreA9hSG+Exjim7Uczpvd0eB9V2uf7n9sAiSkaIcQASJABIhARQlo8fiwacBP9fUNX35iDrIopqZQTK2DmUcxZVZ0/ONgHE/xORrrwD3QxWpLeUeHio76ug+J+a33csPDlC9VwU1AQqqCcMk0ESACRIAIlAhY29v1WlaJaal1MTc+CyzMN70AeiINZl6hk3xXu1E4rlT1PBIE91AP+K4bBc9wLzg97psczYF/u1rzdP+jEyAhRbuDCBABIkAEDoWAEkv9EhQKX9OS6dbcWElMybOLoKNnSlEATOtQ5nFUB+EcDrDXeUFsj4LvzDAriSC1RsbF9sgJjuPI7VehhSchVSGwZJYIEAEiQAR+kYAaSz7dRDEVTzdhg2MsjSDPLoGR3gRTUQFMet8feN9wHGDVc2eDH9xDvaziOZ7iczTWf1SMht5yYLt042MSICFFG4QIEAEiQAQOlUB2OTFit8yLaizJks+z5ydAWVgBY31rV0yRZ+rAC2Kzgc0tgdgSBu+pISam3L2dRUtwPNvd0vz3B7ZLNz4qARJStDmIABEgAkTg0AkosVg7GNa4uppwYZPj7MVpUFFMbWyXxJRFYuqgi8I5sbGxB9zdbeA5MwL+G06DGAr8a7yg/Dq1jzko1Ue/j4RU+ZmSRSJABIgAEdgDAWU18RRTN76srsZbc+cnIXdpCtTFVTA2t8FUNcqZ2gPDR7uE9eILN7EQn/+6k9hGpsh7PO8WW0If4TiOak5cBduH30pCqowwyRQRIAJEgAjsnYBlWZy8mngGZxS/KS+teHPnpyA/Ng3KwjIUtjNgajqJqb3j/PkreR7sXjfWkyq1j7l+FJPQL9h453OkjvDCQc3Sfb9IgIQU7QoiQASIABG4ZgRQTCmx1I2gGT+R55ZKOVPMM7UGhZ0sWCimKMx3oPXhnNg+pg7cfZ1MSLHE84a6z0ltkdccyCDd9IgESEjRxiACRIAIEIFrTqCQSP9fPSd/LT+75MldnIbcpUlQl2NQ2M6CpVM9yQMtECaeSwKIzUHwoFfqcadY+xjLLkbdbYHYgWzSTb9AgIQUbQoiQASIABG45gQsyxKVtcTriln5Xer8Sj16pfLj06AuxUqeKWxyTJ6pfa8Tto/h/V5w9bazE3y+syMgRppXhWiwm+M4Uqj7JkqhvTIgIxNEgAgQASJQCQLbS0v1os35toKs/p48U2pynBufYZ6pYiZXElP02x8BjmNeKWegEdwn+qHucafANdRjOPy+d4jNgY/tzxhd/UgEyCNF+4IIEAEiQASqhoC1siKpNucXi5ncb+Wn5tlJvtyladDWElDYyVGT44OsFMeBvc4HYkcLq3iOYsoZDf2nJHpu4cJ1lHh+EKYPuYeE1FUCpNuJABEgAkSg/ATU1cTfGZs7z8zPzPO5i1OAzY6ZmMqgmKLq5/slbhMw8bye9eHzXz/KcqZ4n/ft0uzkx7ibbiJX336BkpC6CmJ0KxEgAkSACFScgLy60cKZ2heMrczT8pOztstNjrVYEorZPImp/a6AzQa8xwViazPrwee77iS4OlsXwOl6oqulcXW/5uj6BwmQR4p2AxEgAkSACFQlAXUl1QNQ+CttY3uUneS7OAHyTKnJcTGvUJhvn6uGFc/t9X5wD3SD/3GnwHsK+/A1fF5qCb16n6bocvJI0R4gAkSACBCBWiBgLSyImtOlqPEksOTzC1Mgzy2Cnt4CU0YxRWG+Pa8jJp67RBAjYfCcGmStYzyDPabUHuH3bIMu/AUC5JGiTUEEiAARIAJVTcCyLJu6Er+krsYHMV8qe2kalLnlhzQ5JjG11wW8XA7BM9RdKtJ5ehiEYNNFIRIc5TiOGhzuFSR5pA5Aim4hAkSACBCBa0ZAXUn1mgXtK+pq4gb0SmXHpkCZW4HC5haYikY1pvaxMja3BEJzkIX2/Deewcrn2zbBeasYDf/dPszQpbsEyCNFW4EIEAEiQARqgoC6lu43de176mq8N3t+AtA7Jc8usb58FjY5pt/eCPA2cNTXlYp0XncSvOdOoFfqq2Jy7RXcuXPG3ozQVZcJkJCivUAEiAARIAI1QyAbzwZ4bSepLK5yufOTkL0wAcr8SklM6aQB9rqQNkkEIRIEz+lhqL/xDLh62k3e43qxEA58Y6826LoSARJStBOIABEgAkeYwMrKitRkF6/nTNMpq7n/aeju3qn1xzVWN27U8pm/UhZXIuiVwqKd6lIcCls7YBkkpvayvhzPA1/nA1dPG/NKYW0pR1PDp5Km/tbOzk51LzboGhJStAeIABEgAkeWgJVKhfWC+Qo9k4/abPytwNtcvNP5RrE1/Ilaf2jLsnhtNfkKI5v9I3lmMcAKdk7OgbqagCJ6pqiVzJWXGE/wiQLLlcLinP7HjYJ7sMfiBalfbA3OXNkAXUGhPdoDRIAIEIEjSMCKxVyaZftgQVafbO5k+4xc3qEn0yC2tYCzqWHD3dvedBQeO5FIuH0F672F7cztuYvTTmwjI8/MgxZPs758UCgehces6DNwdh54rxtc/V2srpTvzAgI4eBFsSV0sqIDHzHjFNo7YgtKj0MEiMDxI4AeGlhfdyla4c+hUHyusb4FxtYOyPPLYKQ2oCAr0PQrTwQxEsITWkfq//fVWOrf9fTmL2XvG2MhvvzkAhgbm2DmZLBMKotwpb8G9Eo52Qm+AfDfcAa8I/2wU+BD4Z5w6kr30r9TaI/2ABEgAkSg5gkoifWngG48vqhrbyls7XjRI6OtJUFbTYCytAqmqoHU0QINT3k8uLrawd1/tIQULqCyEv9HLZH61VL180nIT84/WGPKotJIj7XJOd4GvN/7YLXzM8MghAL3itHQ2Zr/4zikBzhSXyaHxIyGIQJEgAhccwJKLPVEDqznFP9/9t4DPLKsPBP+buVcpVRSlbLUUme1uqXOPT1MYMDYBAdwIDMsYcHsYnuNGQYDP9gGLxjjwQQDNgbWsBjMgo2BJQyTmukodZDUrSxVDlLlG+vW3f+c6p5p9XTPKFRJVXW/ep5+sJ8594T3O7f01hfeL8e9QUqmG0gPOvKPnw+AEI5Tr4y0lAJGr6XJxK5jQ2Db0w+27T01972vxGJ2Lst/UQjHfp+Qqczlq7SVjBRbRlmEVdxUjdkIxtYWsO/fRe+JubczDkbDm61tLf+xisdVP6TmXijVWxQBQAQQgZpHgA9Gvy3z/Ml8It3EByIaPhAGYTEIQihK/xVyHMjZHCh5GbQWMziPHwDH8AA4hvaAdXuPjmGYmksg4kKhLoWV/pn3BU+mr2tMEVIpLSVBEcWavxMbOqBGA/p6F1i2d9PqPcfBAcXQVP+3Jm/zH21oXpU8jERKJYbGYyICiED1IqB8WNGkH/S7jGB4UIHCJ6R4guGJB8ofAp7884VBjC7RJGs5x67QU9JazeA4UkwkJr3VWJm3u3fvzlYvGnfeueCPvlri2S/nxmcc2YvjkB2fpiFOOZPFSr7nje8xQHSlTBlWCzAAACAASURBVO0esA/tAdeR/WDuavfrbYbf1Tc3n6rFu1LKMyGRKiWaOBcigAggAiVGIDGXcBn0/O8zYv71+Uz2qBCNA78QpASBXwyCtJy4ng8kQEEQn9MqhbQDod6oA3vAdXwIFF3Bbe/ri5V4mxUzHR+KfjyfSL8vc+UaZC5dhdzYFAjhGPXSgVxzjriS4U4q+HQNdWDb0Vsk3vt3g9Zhf6+5w/N3DMNg1v7zII1EqmTXECdCBBABRKB0CJBGvUIw9q5CXro/n8m+QoouA+8LAr9IvFBBEKMkByoBBZYvEqg7VKhpLGYa0rMP7YW6E8OgNTJd5p6ehdLttPJm4vzhh6R44i9IFV9mdBxy12ZBjCxBgeWwJ9+dzMUwoLWYwNjVCo6hAXAd3ke8UgsmRdzBoEDn815yJFKV9x2AO0IEEAGVI8CFw92MzPw8n8m2iPGEmfeFgJ/3Uw+UGFuieT9yJve8BOoGhIRIkSRi4pWqu+sgGEzG/YbuttFahnhpasph0Vk+zYcjbyFinZnzV4Cb94EUT0GBR9HuO3IpvQ70jXVg291Pmxnb9+0EvdP2m0Zv8/+p5fuy0bMhkdoogvg8IoAIIAIlQEDx+cyCweBRJPgXRRQPC5E4VermfQEQfCGaRC7FkyCnMlAQJVDy+VWtqrGYwDawgyYR1508DIpJc4+9u/uXq3q4igdJkaUXi9ncP3JT820kxEcq+fiFAOSJWCcqn9/eskTt3GICS19XUaBzeC+YO9sUo9etZRgGdSTu8D4gkariLwrcOiKACNQGAnw0ug0E+e2yKL5BWk65CWmiHiiiB7UYAimZon3kCry45l5ylEjt6QfHoUGof9ERYAy6l1t7O1VR1s4HI2+Xc9wj2bEpPQ3xjU0SzalivhSKdd7+5dHrwNjSCPZ9u4peqYHtoDGYX25qa1LFnVnPNwoSqfWghs8gAogAIlACBJRvK1rhWOxTBUk8KqXSh8RwjCaSc4sBKqpJFcqXk1Dg+GLV2TrEJQmRsu7cRiv26u85Chqj7tWWns7vlGD7FT+FoigMH4h8TFpOPpS9dBXS5y5BbmoOSL4ZESqFAjpZnmNEhgGd006lEBwH99EefEZP8y9Mnqb7Kt7gW7RBJFJbBDwuiwggAupGgISeZDn/DSmdaRRDcQ1JJOcWAsDP+UBaTtF/pM1JgWggrYNA3UCXlLVbd/YWidS9xwAMhtfZetv/l1rQP3funH63u9XHLQaaSRuZzMUJ4EjrnOU0gCSpBYY1nVNjMhQFOof2QN3xITB3dwY0JsObTK3NP1vTRCoZjERKJYbGYyICiMDWI6DMzZlEs7mvkC98ocCLx4ToEvDzQRAChEQFgXikaCJ5liSSSyUp1ydEingXXEeHaJsY0OvfbNvW8dWtR2PzdiCEl/fkc5mfstfmWtKj40C8U0SDi+ZLyVjZ/xxLaBjQN9QVPZlH91MpBH296xNGr/shlEJ47r1FIrV57zKuhAggAipGgAsnuxmJ+6+yIL5JSqQai73wAtdFNcPUA0UTyXlh1Ynkq4GTEqm+LqohVX/fcWCMhrdae9q/sppna2WMoig6zh/8o0Iq+5HMlUlT6txlYK/NgRi5ri9VKwct1Tlo0rkZzEQKYXgvzZUytXtPacy615uam2dLtUytzINEqlYsiedABBCBikWAC8X+tyKIfflUZlAIhhmiRs7N+UEIhK/nQaWgwF0nUBsI490OANJHzbyNEKlhaLifEqm3WXvav1SxYJVpY7n5mEejzX+fD0YOZi6MUX0pbnqBanHR/DP8rECACHQampvAuqcPXEcPgG3fjoLWbr7P7PHUfMXnWq8CEqm1IobjEQFEABFYJQJ8IHK/AvAVOZvroJV4JAdqMQjs9ALkk2maSC7nOFCIoGaZPkUi1XmdSJ0AxqR7h7W784tlWq6ip1X8/gZOZuK5qzOQPnsJiMYUsQkRNVVQ9Xyl7TQMaG1WsPR3g/PIIDiHB8DgafqWuc3z+xVt5C3YHBKpLQAdl0QEEIHaRoANRI4zsnx3QRD/QlxKFNXIF/xUmZy0K6F6UJkslTModxk+JVI9HeC66yA03H8CNAbdey29nX9b2xa48+n4QPTvxUTyvxLVc0Km2KuzNDftdu111IrRjXMzBgMY25vBMbgHnMcGwbp9Gwn3GRmGKR/zr0LQkUhVodFwy4gAIlCZCGRCoV0GRfvKgig+JC4nbUTCgFbikVwoIqgZXYZ8hjQWJjpGMsAmVN8TImXqaYe6uw7R0B4Y9O+39XZ+vDIR3Jxd5eb9/yH4w7+eGR2D9LkxSnKJTheG+Fbiz2g1oK1zUh0yUvXpOLAbdHWu95u9blXfn1tvKRKpzXlvcRVEABGocQT4YOQBJS8/ks9ku4VgVE9CeNx8MQ9KjMQhn8yAzHLr1oNaL3wakxFM3W1U1bzh/mMkR+rD1t7Oj6x3vlp4jvdFXypzue/lpuZM6bOXgXiniIo8kZvYiNRELWBz6xlIsYK5r7PY9ProfuLdzJq8zfZaPOt6z4REar3I4XOIACKgegQURdFCKGQUQXdF5vlu0talmEQeoVpFJGQkXpczUIicwWa4oG6xCiVSna1Q96IjVP5AZzH+lbm74yG1G49bDH5UXEp8IDs6zqTOXwF2co5KTyhEqBM/zyDA6HRg8DSCY5AonQ+Bfd+OAhgMLzJ73U8gTEUEkEjhTUAEEAFEYB0IKNFoCy/I71Dy+f8mLadcpLEwlTNYDNA2JPnlJOQzOVCIKvkWahVRccWOVqpqXn/vUdBaTZ+2dHf80TqOXFOP5IKxIUbg/5WbD3STXKnMxXHg5gMgE20pbB+zwta6Osd1dfxi/z1DU+OPTV73r9XUhdjAYZBIbQA8fBQRQATUiYAQiv+pLEkn5HTm5UIwAhxpLjy7CEQbinil8ukMFLIcKCQPaovbkGiMhEh5qap5/T1HiD7Q56y9He9Sp+VWnpoPRN8lJVOfzV6ZhPS5i5AbnwYhslT0SpVYhqKa8SbhPeLVdAztAdexIbD0tJ836sy/zXjrFqr5XKXaOxKpUiGJ8yACiEDNIyBGo4OFPPy1nGPvEsIxE1HHJl4Mbs4HYjQOEmksnCFtXaSK+UNMiVS7h4px1t19CPR225fNPe3/peaNtYoDKmNjBsHZGOcW/Pb0hSuQPn8Z2GkfyJkMQF5exQzqGMJotaBvaQTb3h3gOnYA7Hv7Ba3V9iemVvdn1YHA858SiRTeAkQAEUAEXgCBlM9Xb2D0g4os/5zk0ZDEZG5+EfgbopqJNORJbzwi7FhhekT/f3I5GNs8tGKv7uRB0DtsXzP3dLwRjV5EQFleduYiiXhuclaXPj0K2bEpWmFJtKXQK3X9lpBGxi4HmHs7aBNjUsFn8jT/+fefePQvX/Oa16iecSKRwm8TRAARQATugIASi9kFqXBMkeS/kXPsLvIHllTi0Yq8xQCI0SWQE+lnq/EqEElKpFpboOHFJ6DuxDDonM5vWXrbUFTxuq2IV4q31X1FCMdeR9TOU2cvAjeziHIIt9zlYtGClzYydh05QMJ744zO+EpTu3u6Aq/9pm4JidSmwo2LIQKIQLUgQMM+dY3fkFnubjG27KZ6UPNEmZxoQl1vLsyyRVXyLc6Dej5Mi0SqGRpefBe4jh8AfZ3ru5ae9t+pFjtsxj5Zf+SokmO/yU7Pd6ZI4vmlCVp5WSB6X5grRU1AWsbo3Q1gI42Mjw2Bff8uYOz2g1Zv07nNsFElr4FEqpKtg3tDBBCBLUGAD0T+JwC8Rogvdwi+EJCKPJJMTkJ6YmwJ8uks7Y0HSmErFA3WhMnNRMp5dD8YGlw/sPR0vHJNk9T4YEVR9Hwg8lkxGn9bdnQCCJnKTc5CnsghYB++ovUZBrSOYssY4pEi1Xt6d+NnLR2eP6zx6/GCx0Mi9YIQ4QBEABFQCwKCLzJQUJT3Fzj29/hwjHqguHkfcLMkmXwJ8qkMFIioZj5f8QTqhs0Yg74Y2nvgLnAe3g/GRtePzL0dL1OLTVd7TmJ7WRR+yE4vtCVPj0Lm4gSI/hDIOSLSudpZanscIeVmEt7bvwcIKbf295D/X/U8QvUA1Pa1x9MhAojAahDgA4HtwGjvLnDiI9JyysD7Q8DOLVIiRZTJSXPhfCoHSl4C2EJNqNWc5dYxK4nUPtA31f/U2tPxwHrmqvVn+ED0y2Js6cE0aR1z5hLkrk5DPpEGhVRh4qcY3mtsANtAP7iIOOf+XaCz2XcbPQ3jaoYHiZSarY9nRwQQAeBD0ZcpUv5D+VzuoOALM1TOYGYB+ECkmExONKGIqGaVlsMXiVQzNDxwEpyH9oGusf6Xtm0d96Dpn4uAEok0c5wUzk3OQfrMRUiPjAORuKAVfCjSSQHTOmxFcc7D+8BxcACMLe7HTV733Wq+T0ik1Gx9PDsioHIEuEDkZ4okHRVCUQutxJsjobxFEENREOMJ+gdUkYgmVPUCdTORon/4mhuesPR0nKzeE5V355lF/zuVpfTnCIlKnx4p5kolMsV7gB9gTAYwd7WBff9ucB0fAuv23pTJ63apGRokUmq2Pp4dEVAhAsmFhTqj3rxbyed/kE+k6ojnifTFoxV5C37aG48kkxer8QpVjxAlUt5maHjJSXAMEyLVeMrS23686g9WpgNkZyPNGkW8zE7PNaXOjEJmdAJ4XxgKHFfR1ZllguM50zJaDRg8brDt2wmuI/vBPriTYyyW3zC3NP5is/ZQaesgkao0i+B+EAFEoGwI8IHYdqUgPVxg+deIsWUDUSRn5/zAz/tBjMRASqSLYTxSqVUjZe8riNTQXjB6mp629LQfLRvIVT6xcu6cnm/0vk9cWv4oSThPPT0K7PR8sYKPFBngB3T1zuvhvUFwHhpQdPX1/2xudb9ZrdAgkVKr5fHciIDKEBBD8UcKefGEsJQc5KkmlJ/+gaSaULFlkHMcFASh5rwOK4nUHjB63KctPe1HVGb+NR2XDUSOKSz3z+zU/LbUmYuQGRkrqp0TXSn8gMZqBnN3O5VAIC1jLN3t3zN43K9mGEaVKudIpPClQAQQgZpGgA0E2jWM7kv5LPeAEAgxRFizGMrzgxCOFyUNiCZUhbV2KZVRbkOkzlh62g+Xav5anEdRFEYMRf+J80femL10FVKnLwA7vQhSPFET4d6N2ozR6cDY4QHH/t20gMGyo2dWY7G82ex1P77RuavxeSRS1Wg13DMigAi8IAIk10Vn0AwrkvBvYiJp4BeCwJJqPNLixR8CaTkFcoYthmtqIBfqToCsJFK7wdDiPmft7Tj4ggCqfAAfjL5U5vhvZS9fc6bPXqS5UkIkDgrHqxwZANBoiIwGWHf0FGUQDuwGvcvxLlNr8+fUCA4SKTVaHc+MCNQ4AlIkfr8kiO8qsPyrCGmiYTxConyhoqQB8ULxQtVKGqzFfCuI1AFCpJrOW7d1Dq9lDrWO5QORS5wvuDd99hKkz10CdnoB5HSupon3qmxNVM7tNjBv6wDX4UFwHNpHChoeHgv7/3p4eFh15Y1IpFZ1a3AQIoAIVAMCiqJo+GD0g4okvVWMLrUR4sRNLwC34KckKp9IgUwkDYjAYo0kk7+QXVYQqf27yB+885beDiRSLwQcAIjB2JCUzZ0jSedJIoVwZZIScVrRqfKPxmgAU1cr2IcGqKaUuafjLNhNr7Q2NYXUBg0SKbVZHM+LCNQgAoRAwfS0XrA4UnKONXJEE2pmAai45uwiiPFlmgsFYh6UGs2FWk1ojyhRG73NF6y9HUM1eA3KciRuMSRyswt6knSeHrkC3KwfmxnTJsY6UgEKlp29UHfXIbAN7ACt2bLD1Np0rSyGqOBJkUhVsHFwa4gAIvDCCCiJhIvPCu8o5PN/lI8vN5HeeOyMD7g5IqwZo7pQVNJARV6om1G72SNFiVSre8Ta03nghZHFEQQB1hf8zXwi82/ZixOQeOossFMLkF9KYDNjDQP6OhdJNAfnkf1F1fx610mz1/2E2m4OEim1WRzPiwjUEAJ8ZOnFBUF8SyGbew0fjGi4mUVgZ0kuVBikSBzymSzNhaLJ5FWsTr4Rk91KpEytLSOWnnYkUqsElQsmOgtc5gl2cq49dXoEMqPjIAQixUpPlYSH7wSVxmoBS18nOA7uK4b32j3fNbV5fmeV0NbMMCRSNWNKPAgioC4E+GDsbxRJ+n0xttTCzi4CFdecnqdeKFKRR9u7kIo8lf+xW0GkBneCqc2DRGoNrwoV6Gxpe58QjHw0c2kCkk+eA34uQBtZ13K152ogInfL1NkK9n07wHViGKz9vaK502tczbO1NAaJVC1ZE8+CCKgAAd4X7QOm8Kl8jn057w/THCh2ah4EXwiEUBzkXBYKJBlYrv72LqUw53OIlLd5xLINQ3trwZYLRB+UM5nPZ69M6olXKkuSzkMx1Yf3GCKD4GkC+97t4Dy6HxxDA2DuajUwDKOqyj0kUmt5m3AsIoAIbBkCKZ+vXq813AOC+L+k5aSRmysqkxN9qGcq8nJEF0pWvRfqZiPdSqSM3uYRKxKpNd1jJZhu5Avst9jJuftIwnnq9EVK3OV0dk3z1OJgXZ0TbHv6qQQCyZMyNta93dDS9A+1eNY7nQmJlJqsjWdFBKoUATG8dKQgiX8sc/wreF/QQPrjkao80mhYjC1BPpUFRRRVoQu1VhMikVorYrcfz4einxXjyXemz4xqUmcvAnt1tqh0rvLQMWkXY+3vBvvwALiO7gdzu3fE6HWrKgcPiVRp3jGcBRFABMqEQDoYvEsvwXfEpeUmfiHI5KbmgZ/3AQnrkUaysoor8lYD+QoitW8nmFoxtLca3G4dw/r9bRpFP5a6cNnxjNJ5MKJ6TSlyv8xdbWDfv5v23bPu6vObvO729WBcrc8gkapWy+G+EYEaRoD0OoNwtlEosN+VBeEuwR+mqtJE0oBU5hFRRPRCre4CrCRSO4BW7WFob3Xg3TKKD0Z93NxiW+rMdaXzWR8U1B7e0zBgbG0B++AucB4aANv+XRGwmferSZgTidS6Xid8CBFABMqFgKIoei4UfQVI+T/KJ1LHeF+wSKJmFoEPhEGKJYpeKJJQrvKwympssIJIDewAUxsSqdXgdrsxXDDyOjmV/Xrq9CikzoxCbmIapKVUzTa8XhVODAP6xnqw7ukD5+FBcA7v5TV220OWtpZPr+r5GhiERKoGjIhHQARqCQHeH/m2zPH3iZFYfVFYs6hQLgQjVJ2ciGtCQUEStUqj30qkjG0tmGy+SuxuHUY8pdx8oJCbmILkqQuQuXQVRKIpRbTKVPzROu1g6esC15H94Dg0QPo5/pO5teUtaoEEiZRaLI3nRAQqHAExHD9ckOUvSan0XlKJR5oMs5NzNBdKii/TthxU1gC9UGuyJBKpNcH1goN5X/h73GLgVcmnR4DkSpGCBznLqvpeas0mMPW0g2NoL5VBsPZ2fdXY6n7zC4JZIwOQSNWIIfEYiEC1IqDMKSZBH3pTQZI/I8YTBtKCg5uZv+6FCoO0nIYCzwMQWQP8rBmBFURq73YwtnvQI7VmFJ99gPWFDsmp9On06AQkHzsD3OwCDTerrYfjzRAyeh2YOlppwjlROLfs6Pkp6MxvsnY0BTcAddU8ikSqakyFG0UEag8BPhh5AOTCi/M59k+IFhRVJ5+cB5IXRRPK09mi6KHKGg2X0tIrPVLbwdiGRGoj+GYWw3s0Iv+L3PhMU/LUecheuUZbxtBejir9MDotCeeBbXc/OI8NgX1ge0Rrs7zR5G3+iRogQSKlBivjGRGBCkSAC0Zeq0j5v5KWU+2kGo+ok/NzfuD9IcgnUiDnOBTXLIHdVnqk+sHU5h2x9KGy+XqhVcJhqyApH2dnfe9On7sEJPGcXwiAnCPhvfXOWuXPEYXzehdYtveA6/gQOIb2KLp65xvM3uZvVPnJVrV9JFKrggkHIQKIQCkR4EPRvy9wwtv4YETHTc0BS5sNL9JGw1IyAyBJoGCLl5JAfiuRKob2ulQlmFgSIG+ahA1E35ePL308fWEMUqfOAzs1V6zeI82x1fhhALQ2G1i2d4PjujCnocX9BnNb89fVAAcSKTVYGc+ICFQAAoqiaMVIZKcsFp6Q01kXtxgA9toccPM+EBZDIMYT9Fc9lTXAT8kQeE6OFKna60MitRGA2WDktxSW+3xmdMJNqvdyY5MghmOqVtbXmE1g7u0Ex/BeKoNgbG/5sKWr7S/V0HcPidRG3iZ8FhFABFaFgJJM1glZ4S0FUXq3GIt3cbM+WpVH2rwIoShIiQwoPF9M2FVreGRVSK590HNypFqRSK0dxZVPKDPLTsEk/XtuYvqu5OlRyJy/DPxiEAqcemUQGKMBTB1esA/uBNexIbBs63zKXGf/DaauLrlRvCv9eSRSlW4h3B8iUAMIcP7wKTnLDgqBsJkkk7OzC/QPjxiJ09JxqsODsgZlsTR6pMoCK/DB6E/4YPSB1NMXIH3mIhWNlVOZ8ixWBbOSyj2acL6nD1wnDoJ9z3Ze0Vl6rF1NoSrY/oa2iERqQ/Dhw4gAInAnBJQPf1jDvf3tw1pF+zMhvmynFXlT87QqTwiEQFxOFcU1SVUefsqGABKp8kArhqJvlnLcV5JPnmOSp0eAnZgBKbZcnsWqYFZGowFdgwtse/rBcWQ/OIcHgLHYW9UggYBEqgouKG4REag2BMIXw1ZnHXygIIn/XYwtmYmwJvnFTqryhFCEyhrQMIhak3M30aDPSTYn8geYI7VhCyiKouODUT59/rKWJJxnL18DIuEBai2SYBjQ2q1g27MdHIf2gevIIBRclj5ne/v0hsGu8AmQSFW4gXB7iEC1IZALBoe1iubt+VT2Qc4XZEiPPFLVREN5sWWQM7liUi6SqE0xLRKp8sHMB2MCOzVjSD51AdIXrgA35wdFxe1itDYLmLd3g/PgPnAe2Q/G5oa3mDta/6l8FqiMmZFIVYYdcBeIQE0gwIdif6xI0rvE5WQ3N70A7DTJh/KB6A+BlEhDgb2uDVUTp62OQ6wgUnv6i8rm6JEqifH4YOzzQjj6juST52i7GBK6Jj8U1PrRWExgpq1iBsB57ACYO1p/ZO7wvKzW8UAiVesWxvMhApuAgKIoZiEcfVOBEz7Hh6JASFRucha4WX8xoZw0G5Yk9YY9NsEGd1oCPVLlA18ZGzOweotA+u6lTl2A7Pg05JeTqi2c0BiNYGh3g2P/XkqkbDv7FHN7i6Z8FqiMmZFIVYYdcBeIQNUiIIVid0t56d2FLPs7HGk2PDUH3Owi7ZVHmg3LGRYgnwcFq/K2xMbokSov7OycT8lcvArJp85B5vJVkELq1ZMid83gbgD7gT20ebFjcDeYOzw1zzNq/oDlfYVwdkRAvQgoisJwwcjvMlL+U+Jy0ku0oXJEYHNukfYeI21eiKwB7ZWHny1DgNHrwdjaDA0vOQl2DO2V3A7cQuBKbnphd/KJs5AZGaMJ52oVlWV0OtDVO8Gxfxc4jh4A58EBsHS11TzPqPkDlvytwQkRAUSAeJd0Qjj2MZnj3yGEok722jxwswvUEyUEY5DPZEERRYACqmtu9XW5mUiR0nQT5kiV1CTsQvC/C6HIpwmRSp+/AqS4guQCqvHDaDWgdTnBNrCDqps7D+8Dps7ttTZZa1pLComUGm87nhkR2AAC2UikWSspF+Us28wtkDYvM9cFNkMgRZdBJgnl2OZlAwiX9lEkUqXF89bZOH/oHmk59YsUyZP61Qjkrs6CnMmqMk+KIRIILjtYd/SC87pHytDQ8AfG1qZvltcKWzs7EqmtxR9XRwSqBgFlbs6UN9mO5kXpS1Ii0cvOXBfYnJ4HwR+GfDJNtaGUPIbyKsmoSKTKaw0uGD1ZyGR/mr4wZkg8eRZyY1MgLSVVK++hddjA0t8FriP7qZ6U0dPyFZO36a3ltcLWzo5Eamvxx9URgapBgA9E/r7AC78hROIdNwQ2acPhUBRkIrBJ9HMwlFdx9kQiVV6TCKGlXVI282326szuxGNnIHN5AqTwkmp/UGisZrCQ5sWH9oHz6CCY29tGTK3uA+W1wtbOjkRqa/HH1RGBqkCAC8bm5XS6jfeFtJRETc4BtxikLTHkHAeKJGKz4Qq1JOmBZmxtocnmtt39YOpAHalSmmppasphUnSf5hYCb1l+/AxkRydA8IdAEaVSLlM1c2nMJjB3t4NjuCiBYOntnDB53buq5gDr2CgSqXWAho8gAmpAgGrk1LkHtAX5S2IiOUiq8mjDYRLKIyQqkQKZ5QFkWQ1wVO0ZVxApTDYvix25ef9HeX/44cTjZyB9YQz4OV/RQ6vCD0OIVLsHbPt3Qd1dh8Da3zVham1BIqXCu4BHRgRUjwAXDH9A4aV3iLHlNnZmHthrs7QFhhCMQD6VhYIgoMBmFdySFaE99EiVxWKCP/pRLhx5OPXUOUidLiqcq7Zyz2QEo9cN9n07oe7uw2Dd3jNh7vAikSrLzcNJEQFEoCIRUB59VMf37/46EdjkgyEdaTZMSdS8H8ToUrFXHtGGQoHNirTfrZtaSaT6wNThxRYxJbacEIp9SFxa/vPU6UsaknDOXp0ptopR4TvCGA1gaG6kEgh1Jw+Bbee2aXO9/RDjciVKDHvFTIehvYoxBW4EEdh6BHh/rB80ylfy6fRxbi7A5K7OADezACSpXFpKYa+8rTfRmnewQpBzdx8YkUitGcMXekAIRl4rptJ/lxmZqCd6UtmxKcgnSOWe+nTUyH3TN9WDbd92qDtxCKw7e4MGh+NVBk/j2RfCsVr/OxKparUc7hsRKDECQiD8SlmS/0FaTrq5OR/kxqeA/C9VKV9OQUEQQcF8qBKjXv7pkEiVH2M2FDpUSGW/lRub6SYeKdIyhhRiQKFQ/sUrbAWibq5vcIJt305wHR0Cy66+hLGh/u1GT8O/VthWS7YdJFIlgxInQgSqEwFFUQxCKPbOAsd/ig9FtUSZmaUNhxdBCMeL0gakAkmFGxhp7gAAIABJREFUfxSq06Ird72yag9De+WwqZJK1efCSz9jJ+f2J588B5nRcRCCUVW+M0TdXFdXJFLOQ/vAPrCD0zfVfdDkaf5UObCvhDmRSFWCFXAPiMAWIcAFE50M5D+Qz2TfKARCBqLKTHKiSL88KZYAOcdiPtQW2aZUy2KOVKmQvPM8pO8kOzl3ilsIHEk8dhoyI+NUpFaVHlwNAzqXgyab24f2gn1wp2Jsdn/a5G364/JbYmtWQCK1NbjjqojAliOQjUZbtFJhJJ9Mt/DzAZrXQfvlLYZAWkqAwouqFRXccuOUcAMriNSuPjB1YrJ5CeF9Zqrc9MIpzhc8mnyMSCBcoRIhqmzYzRAiZQfbwE6w798F9gN7wOR1P2LyuN9TDtwrYU4kUpVgBdwDIrCJCDz66KO6w/27DoOcf0yKLmnZOR+wV+eAnZ4DMRgFKZGm+VAYyttEo5RxqRWhPSRSZUOanfWd4oPho8kniATCKAiLoaJEiNo+hEg5bWDbux1se3eA4/AgmFqbkUip7R7geRGBWkWA5HIIWeG1ssB/RAzH6nLX5oCbngd2ZhHEcIyWbFMSpcKy7Vq1+UqP1DYwdbai/EEZjM3O+U4JkfjR1FPnIXnqPPCESLFcGVaq8ClJ42KHDaw7t4Ftbz+4jg2Bqd2DRKrCzYbbQwQQgVUgQJoOCwbL9/LZ3HEhGLHnxqepcCC3UNSHKrA85kOtAsdqG7LSI4VEqlz2Y+f9p8TY0tHkUxeAJJzz/hAUiJaU2j7XiRRpXExaEhEtKVOHF4mU2u4BnhcRqDUElHDYKsgQl5IZE1Enz12boZV55FeztJwEhZAorMqrNbPT8yCR2hyzcvP+/xSXk7+W+tUoJB4/DbwvBHIqszmLV9IqhEjZrWDZ1gHW3duh/kVHwNTufcTUijlSlWQm3AsigAisEgEibcAFo8OQl7+WX0725qbmgZ2ao54o8otZJq1eeF6VwoGrhLDqh60I7e3sBVNXG4b2ymDV3Jz/i3I6/bbU0xcpkeLmAyAn02VYqcKnvE6kTJ2tYNvTD/X3HQdzW8tnjW0t72EYpiYVSjHZvMLvJG4PEdgIAlww+mcKxz8oxJa3cZOzkLs2CyS5nGjckLAD6kNtBN3qePZmImXd2QtmJFJlMVxuzvfncpb9SPr0dSI1uwj5hHqJlLG1BWwD26Hh3mNgavN82S+x7+7r66vJ7HskUmV5pXBSRGDrEeACkacKLDcoBCKWHCFREzPAL/hBiCxRfSjIy5hUvvVmKvsObg7tkQRgcxcmm5cDdH7G/06JZz+XPnMJlh8/A9zUPOQTqXIsVdlzEo+UzQoGTxPVkqq/9yhJNv8Xs8PyTqahoSaZJRKpyr6SuDtEYM0IKEtLDoHP/3s+mztJWrywk/PUE0X+7/xyEmRSSSSrr3XFmoGskQdWeqSQSJXLrNyC//Uyy38tffYyJB4/A6RPpVqJlMZmAWNzI9j374a6uw+DuaP1e+Ym59sYhyNeLvy3cl4kUluJPq6NCJQYgVwwNsRI4ofyqczLSYsX9toc5GbmQZgPgpRMQ4EXALBfXolRr+zpMLS3OfZh532/VeDF7xIxzsRjZ4BUxdLGxTWZFfQ8mDIMECJlaKoHx9BeWrVnbG/5ibXO/iDT2BjYHGts7ipIpDYXb1wNESgbAnwg+m5ZEv+LFE8McDMLkB2fAn7OD3wgTKuHCgL2yysb+BU88crQHuZIlctU/FzwpbLA/Sg9Ok49UtkrkyAvp0BRmyYbIVIWc5FIHdwLrhMHiZr+4zqH5c2m5ubZcuG/lfMikdpK9HFtRKBECPDB6KcVSXob7w9biLhmbnwK2Ol5qg9FRDZpqwq1faGXCNtqnwY9UptjQW4+dE9B4H+RHh2D5BNnIXPpKsiJtPpkRSiRMoG+oQ6ch/eB69gwycs7LduMb3J4vVc3xxqbuwoSqc3FG1dDBEqKABHZ5I2Whwos9zC/GGIIeSK5GSSsJ0WXQc5x2C+vpIhX32QrPVI9YO5qR/mDMpiRnQ8cU0TxqfTFCUg+fhYyFyeo/IHqGhcTImU2gb6xSKScR4fA0tV6Tucwv9Ho8YyXAfotnxKJ1JabADeACKwPAdYXb9WA/J58NvOn3EIAcldni+1e5vyQX0pAgeNBIZV5+FE1AiuI1I5eMHejjlQ5LkRuZnEYZPks8UQlCJEaHVcpkQLQmK4TqSOD4Dx6gLQlGjW4rK83trRcKQf2Wz0nEqmttgCujwisAwEuFLqHkZmHxOXk/fx8gOZDsSSpfDEMUiIJCi+AgpV560C29h5ZoWy+owdM3eiRKoeVs3P+QUaSRiiRIqG9G0RKbT9mmJuI1OFBcB47AObO1kv6Otvrjc3Nl8qB/VbPiURqqy2A6yMCa0SA98d+XVHkLwuReLOwGGAyl69RzRohEAEplQZFlDAfao2Y1vJwJFKbY93srH8fk5dGyfuYfPwMJVJ5EtpTLZFygfPw/qJHqsM7rnE6XmdtdY9sjjU2dxUkUpuLN66GCGwIAT4U/bUCJ/wfIRIz0J55xBNFSFQ4BnI6WyRR+EEEbkIAidTmXAfB59ub5/KXKJEiHqmRMSRShEgRj1SHd5xxIJHanJuIqyACiMBtEVAURS+Eom+ROeELQiAMuck5YCfngJteACEahwJJKkcShbfnNgis6LWHob2y3ZFnPFJqD+0BPJtsfmQQXEeHSI7UJX2d6/XG5noM7ZXtBuLEiAAicEcElGSyTmTF/yGls/9NCEUt2bFJ2niYm/WBFEvQpsNKnsgbIIiIwHMRWOGR2t4Dph7MkSrHPWF9oUMKx5/OXCQ5UmeerdpTW2iPECmSbN5UB05CpI4NEx2pEb3T8gZMNi/HzcM5EQFE4HkRIPIGgsHyL/l09lW8P8SQkmp2egH4hQBI8WUo8CJAAdu94DW6MwIrq/Z6wIzJ5mW5Ltxc6O6CxP+SEimSI6VW+YMbHilCpA4Pguv4MOm1d07vcL7B6G2cKAv4Wzwp5khtsQFweUTgTghk/dFBHcjfFJfTO0izYdJygvTM4/0h2sOrwAmYVI7X5wURWEGktveAGT1SL4jZegZkF4MvYXjhx+mRcUgSj9SlayAnU6qsniU6UlTZnAhynjgI5g7P01qr/U2m1qZr68G20p9BIlXpFsL9qRIBPrD0YpDFLwjx5R52doH2zGOvzgAfiNCkctozD5XKVXk31nrolUSqG8w9HSjIuVYQVzFeWAy+Ks8J30uPXKE6Utkr1yCfSKvPY0zkDyiRagDHoQHatNjY2vK4zoktYlZxjXAIIoAIlAIB1h8+ArL8HTESbyW5ULTx8OQcCKFosd0LyhuUAmbVzIFEanNMzS0EX1/g+a+lz18nUuOTKiZSZjA0N4BjeADqX3QEjG3NP2ZctrdasGnx5lxGXAURUCsCiqJo0v5Yr74gTRLSxI5PQ5ZW5s2DEIpBIceDIolqhQfPvU4EkEitE7g1Psb7Qu/O57hH0ucuUUFOEoonIXjVeY6JR8piBmNLE9gP7IH6+46B0dv0Pdlc/zaH1xFfI6xVMRxDe1VhJtxkrSNAKvN4lv8dRZD+gfeHITcxfb1nno82HqbyBqQyDz+IwBoRQCK1RsDWOZzzhT4kZ3MfTp25SJPNiTxJfjm1ztmq+LEbRMrbDPYDu6HhvuOgb2n6F6vD/A6mqSlTxSe749aRSNWiVfFMVYVAJhx2ayV4uMBxbxACESclUePTwC34QYotg8xyANjupapsWkmbRSK1OdbgFoNfyGezb0/9apQSKW5mseiRUtuHNC22msHU1gL2/buh/r7jYPK4v2TKJd/N7N5dky51JFJqu+R43opDgA9EHs+ns4c4X8jITkxDdmIaSJWetJSCAiFRmFRecTarpg2tIFL93WDuxWTzctiP94V+KKXSL0ueGoHlx54GYT5Alc1V92EY0NosYGz3gOPAHqi75whJNv+spd3zh7WKBRKpWrUsnqviEUguLNSZ9OYJKZlqpu1eJmZoSI+QqHwqCwWORxJV8Vas/A2uJFJdYO7txKq9MpiN84VPicvLR1OnRiDxy6eBhOhltRIpu5X01wPH0B6oO3mYCHI+YvK431MG2CtiSiRSFWEG3ITaEOADse2KnP9GPpkaZmcXiyTq2gzwC0FamVcQBIACSpWr7V6U47w3EylLfxdYkEiVA2agRCoaO5p6egSWf3kGhEAI5FS2LGtV9KTEI2W3Er0ycAzvBdexIUKqkEhVtNFwc4hAlSHAzYW6QFv4prSUOsJOzxcTyyfnQfCHIZ/OoLxBldmz0re7gkj1dYFlG3qkymEzzhc6JYSiR1O/GqE5UqQnJvlRpLoPIVIOG1j6usB5aB84Dg4QZXMkUqq7CHhgRKBMCOQWY14NI58TozFPbmoeclemaN88qhGVzoEiSWVaGadVKwJIpDbH8txC4BRPiNSpC5B84iwN7dEcR7V9GAZ0LjtYtveA68h+sA3uIonnSKTUdg/wvIhAqRFQxhQD37B0FyPlv8uHI052ch6yl69BbnoepFAc5GwWFBU2Ny01zjjfcxFYSaQ6wbKtC3OkynBRuPnAKc4XLBKpX10AYTEIBaEmi9SeHz1CpOocYN25DVxH94N1YAeYvM1IpMpw53BKREA1CMzNzZk8essbZVF8SIzEOljqiZoEEtYTwnGQcywAkijV3IfNPugKIrWtCyx9GNortQ2UKcXI6QKPc/O+Q8knz0H67CXgF4OgSCrUfiNEqt4Jtt394DoxDNZd2wrGFvenTJ6mPy017pUyHyabV4olcB81i4AQin48z/JvEULRJiLSR3pwcTM+EGPEE8WiRlTNWr4yDraSSHWS3BX0SJXYNPxipFeWhB+wU/O7Uk+dg/SFMRB8IVBkucQrVcF0DAP6xjqwDWyHursOgbm/mzU2NTxk8ro/UwW7X9cWkUitCzZ8CBFYHQJ8MPodmRdeyftDOtJ0mITziNSBGF8u5k+g0ObqgMRR60YAidS6oVv1g3wgcr+c476am5huTTx5FrKXroIQjKqvYTFBjGHA4G6guVF1dx0Ec1/nsrHe9Vajt/l7qwa0ygYikaoyg+F2qwMBJZFw8TnxMwrPv5bzBbW5sWnITUw9S6J4AUlUdZiy6neJRKr8JuSDkbfLmdwnM5eu2kjFXm5sCsTYsjqJlIYBA+mzt58QqUPEAxpg7I5XWFubLpTfEluzAhKprcEdV61hBJS5OROvN32+kONezy0GtdmxKdo3j18IgLSUgAKSqBq2fuUdbQWR6u0ESz+G9kptJS4Y+f/kdPbh9LnLTOKx05C7Ogv5ZEqdWnBaDRg9brATMc4TB8G6vWfK7LIOMw0NNSvzjkSq1G8Uzqd6BDh/+GdyNncvN+djstQTNQ2CPwTSUhKFNlV/OzYfgJVEqgMs/d2YI1ViMwjh+EeFaPxhkmR+o2Ex1ZBSY3snnZb22XMMD4Dz6AGw7eydMHe27iox5BU1HRKpijIHbqbaERBCsTNSMnWQnfPTPAlKooIRkJaToAiSOr9Yq92oVb5/JFLlNyAhUpwv+DCRPkidHgVSmVvgSJ/M8q9daSswBgOYOjzgPDxIxTitO7dNmNtakEhVmqFwP4hApSGghEJNvASfldLp15BeeZmL14Akl/OBCOQJiRJJGbQKv1UrzVAq3M/NRMrc0wHW7eiRKuU1IKF8Tmf+n/y8793Jp85D5vxlWpVL2zyp8KOxmMDU2UrFOO3De8Ha3zNh8rqRSKnwLuCREYFVI5D2pxsMSu7zYiL5alKRl7l0FYjMgUBIVCJVbPmCH0RgixBAIlVe4LlwuFvh819jJ+dOJE8ViRTvj6j2vad99rrbwXl8GBxDu8Hc0Xbe1OoeLq8VtnZ2DO1tLf64epUjwAUTnRqQvitE40Ok+TBVK782C2IwCvlkBlu+VLl9a2H7K4lUO0n+xRypEhqWDUSOAyf8OHPlqo0SqQvjIMWWQcmrUIwTALROOylooNIHpHLP2NLyBZO36Z0lhLzipkIiVXEmwQ1VAwKKojBCMN4PIH9XjC3vZmcWIXN5glbrSIREpbPqVDWuBuOpbI8rcqR62kkPNCRSJbwDnD90j5xhf5EZuQKJJ85BbnwKpGVSsVco4SrVM5WuzknUzCmRsg3uBF2j89UWj+c71XOCte8UidTaMcMnEAEQQ/FDsih8SownTnCzhERdA/baLBXhkzNIovCKVA4CRSLVDA0vOQnm7g6w7kAiVUrr8L7or4lLS/9J+uulT49Sj7RqK/YAQEdVzXdA3fFhsO/bAUqdrdne0hItJeaVNhcSqUqzCO6n4hHgwvF7FUH8hBhbGuamrzcfnpoHMRRDElXx1lPfBimR8jZDw0tPgqW7AyxIpEp6CdiF0F8LgdD/SD09AuQfyZOkXQvU+CFinO4GsO/fDc4jB8A+uAOs27pqnmfU/AHVeJfxzOVDQAhGfqsgK38nRKKt7CQhUVeBnVoAIRSFQo7FcF75oH/hmTUaYDQMDakoBayQvAHYM0TqJYRItYNlZy+G9l74Nq16BLsQSLCTs67kqQu0WTHxSiuCuOrna2kguWsGjxscQ3vAeWQ/bVxs6W6reZ5R8wespUuKZ9k6BJRvf1srnrj7VbIkPyLG4h6SC5W9Mgnc1BzViSpwPCiSChuUbp1JiiszAIxeD1q7DTRGPSVQcioDBVIpqcaGsbexx81EilRTWZFIlfTWsrM+JT06BkT6IHd5EsRwTJ3NigFAYzaBobUFnAf3UjFOa3+PZG5vMZQU8AqcDIlUBRoFt1R5CLCB2O+BKH5CiMY62GtzkBubBHZ6HoRQrOiJyiOJ2lSrMQwwWi0wJiPoG1ygs1tB57RBPpUBIbxUDLESMqVGZelbDEG9BN5maKQ5UkikSnlP+UiyN7+8NJ06MwqpX12A7Pg05JeSpVyiqubSWi1g6m6jQpyu40Ng7vB+z9Ta8ltVdYh1bBaJ1DpAw0fUhYAYir8zz/MfEiKxZiKySTxRROpAjMShkEUStem3gWFAYzKCzmEDUiFkaGkEU4eXboOoyefTOeoVIF5CJFLEY0eIlBsaX3I3mLvbiNI0hvZKdGmFUOz7XCD0CqpofoYomi9CIZsr0ezVNw3VkOrrAufwXnCdGAZ9U/0fWDpav1l9J1nbjpFIrQ0vHK0yBPhg7L1KXvoQH4o6SUd3Gs6bWwQxHKcJpeiJ2twLweh0wBgNoG+sA0NjHZjaPKS7PBjbWyh5iv/4cZBzXDHcyvKqLUG/2So3iFTDAyfB0kM8UkikSnVr+UBEyE3OGpJPnoPM6DhNNFdrfhQwDNWQsu3aRhXNibK53m7sMvf0LJQK70qdB4lUpVoG97WlCCiKouWD8TeDKHySj8ad2cuTkBufBG7mOokiOVGYg7OpNmIMetBazKCrd4GptRnM/V1g7esCU1c7aAwG4OYWIPzN/6AaXsXkfw6JFEkju54ATOQPLKRFDOZIleTeKuGwlReVVHp0TEuIVPbKNRB9YVBUqh9FQu26RhfY9m6nieb2gZ2gsRtbrR0dwZIAXsGTIJGqYOPg1rYOAd4feUdBEv+KD8VcxBNFcqK4OR+IkaWiJwpJ1OYZh1TjGfSgd9pB724geRdg3tZFFLrB1N5C8qS+IacyO4XY0lDk2z+kqvLP5K7J6hRFvNUjZfS4gXikzL3okSrVxeWC0T+T09m/TD09wqROj0BuYoYqmqv1Q95RQ0sTJVJ1Jw+BdXtvTnGat9nc7nCtY4JEqtYtjOdbMwJcMPwBhc//mRCO2LI0nHcN+PlAMSeKRU/UmgHdwAPkVy7Nh6pzgMHTBLTpbl83WPq7Qd9Q95TWYPicwdP43fTFsT9V8oWPRP71hww3TfLXlkBOZ0BBIvWMR6rxgbuK+O3C0N4GruQzj/LB6H/ygfCvJZ86B5nzV4CdXgA5nS3F1FU5B3lPjR0eKnlQf99xMLZ7fylp5d+s6+6u+ex7JFJVeWVx0+VCQAjF31cQhQ/yoYg1e+kazYniFwLUw6GQcJ5K3fblwvv55mV0WlpOrW+oozlQFuKF2tELlt4O0Nps/2iym/6EcbkSZI705Yk/Lkj5v4r920/0uWtzIEbjICfSSKRuDu09cFcxR2pXHyabb/BCR6NRm53P/wc7vXB34smzkBmdoN8TCi9scObqfVxjMYO5px3s+3ZC3YsOg7658f3Wno5PMgxT800HkUhV773FnZcQAZITJYQiDypC/pNcOGrPkebDY1PAzfuL+TacgPk2JcT7eaci2lA6HWht1mJFHkko39FDSZSpvdWnMRu/bva6P3DzHNkr196YF8XPLP3Ho05CfsXYMuSXEkikbiJSjS++C0w97WDbjURqo1dZCER/V8pkP5e9fK0++avzQHIopUhcvSF/kmhut1JPsfPQPnAc2ge6hvo32Hravr5RrKvheSRS1WAl3GPZEeBD0XfJHP+XQijquFGdx8/7QYwu0aRl9ESV3QTFBTQa0Bj0oHPaab6Fqau16IXa1gUmT9NPCkbTw1Zv07lbd5O6PP7rIBW+tPzzU570ucsgxZdpvgqG9m5KNn/xCRraQyK18bvM+kLvk5YSH0+fHoHU6UvATS+AlEgCqFVRX6ulem7WHT3guusQyZNS9C7XG8ztzd/YONqVPwMSqcq3Ee6wzAhwwejDiii9XwiELdmxSchevgbcQgAkJFFlRv6W6bUa0BiL+VCkya6lt5NUmBERyYK+vu4HoDP9oaWtwX+7TSVGr9zDyMpXk0+d60idGikSqegSEqmbQ3uESPV2gA1Dexu618pCso6H7N9xi6HXkd56pC0MvxAEWcX6UcSDTHIYiee44f4T5IdPUOtyvMHc0vjzDYFdJQ8jkaoSQ+E2y4MAHwy/tyDJH+NDUUvu4sT1nKggCGESziM6RNizrTzI3zIr8URZzKBvdIKx1Ut/2RI9GnN3B+gclk9cCfg+ODw8LN1pL5lLkyflvPTP6acvdCWeOAfSUgIk2qoDq/ao/EFLEzS8+ESRnGJob0NXWgzEDkgceyZ7aUKbPD0KJJeStoUhSvoq/ZCKPVO7B6x7d0DDvUfB2Ob5Megtb7L1NEfUAAkSKTVYGc/4HAQURWH4QPiNiiR/SghH62li+dgkkHCeQL4UaWI5kqiyXx2SD6XV0nwovbueKpTTUF5fN5g7W2c1JuOD5nbPL19oH+nL08cKEveN9NOj3cknz1MiJYaiSKSe8Ug1QT3xFBCP1O5+TDZ/oQv1PP+dD0Tul5ZTP02duwikUTFPuhwQ2QMVk3byI4i0hnEdGgDHoUHy7n7V3Nn65g3AXFWPIpGqKnPhZkuFQC4QfpAR838lhKJNhEBlLhOJAz9NGKUSB1idVyqo7zwP6ZdH8qFsFtC3NIGlu52GBkj4ydTquay36N+qb2k5yzDMCzLa3PT0UD4jfDP1qwt9pHmstJQEMRhBInWDSBGP1P0nwLwNidRGLza3GPwJtxh8IHV6FNJnLxbDeiqWPSCNw3UuJ1i2dYLz+BDY9+8Co8f9T+bWlrdsFOtqeR6JVLVYCvdZMgT4QPRdSj7/F3ww7MxemYLs5avALxBPVFFsE5BElQzrO05E++UZQOsoJpVbiUr5jl4wb+sEU1PDeUZvfJ3R23h1tRvJTE3tKmSE76SeHtmJRGolajeH9miOFHqkVnutbjuOmw/ImUvjmuSpEerFFgIR9baFIQgxDOmpR1oPQd3dNNGc0zud/8PU6v77DQFdRQ8jkaoiY+FWN4aAAgojBuK/J8vSI0I42pC7dA0yRGxzzg9CMAoFogGDJGpjIK/yaZoPRUQ2W5upQrl1ey8pnS7onbYvmNo871rlNM8M42aCHUJq+Qfpp0f2IZG6A5G677pHag+G9tZ6v26M5wLhB+VU5svp81doWI+dnKXir2pujk1C8waPG2z7dkDdXQfBtqM3bLbW72W8jvh6ca6255BIVZvFcL/rRiDnD/06k5c/I0Tivbkrk1SxnJv1PduAGEnUurFd9YNEqZyKbDrB3NEKlu3dNB/Ksq0jrrNZ/9zIZf+R6etbs6phyuerV2KpH6efHjmIROr2RKr+/uM02dyGRGrV1/XWgVwgssTNLtYnf3UBMiNj9PujkGXXPV8tPFhUNPeCY3gAnIcGiGfZb273tNfC2VZ7BiRSq0UKx1U1AlwodI8iyJ8TwrEdufHposQBSRKlEgcs5tKU27pUZFMPGqsJDA11YOpup54oS38XmDvb84zB8FpzR8t3GYaR17MVxeczp6LJn6dPjx5FInUHInXfcZrHgkRqPTcMQIwmBvNs7snslUkraQtDux4sBgHy67qy69tEBT6lddhoXqPz8H5wHtwL5s62c0ZP08EK3GrZtoREqmzQ4sSVggC3GD0J2sI3+ECknR2fhsylq8DNLlz3RGHvvM2wE0kqp0rl7vpiw+H+7mLT4dbmnFZvPGFoc49uZB9EmT554covM2cunkg+SeQPMNn8Bp40R6q5sVi1h0Rq3deMD0a/LMTib0mfvsgQ0Vd2ck7VTYopkAwDujon1XtzHR8G+4FdoK+rf7O5zf3VdQNdhQ8ikapCo+GWV4cAkTiQgrHBQkH+Oh+J7c6OTRfDedPzxQRRXkBP1Oqg3NAoxmig7SOMXnexX15fN1j39BeMDXUTjN7waqO3cWJDC1x/OHn+8mOZMxdPJpBIrYDzGSJ13zGw9HWBbc92lD9Y44VTwmErLynf5uZ8LyO5USSsRxqZq1mEk/IonRb0jfVg27cLXMf2g2NwFyHrquMVqjvwGt8fHF7FCAjB4I6CpHxWiC7dl7s6UyRRU/O0ATFt+yKr2yVfdtMSeQOjgbZ7Md1oOkzCeTu3gd5l/6ZGa/hoqUgUOQslUmcvnUw8cRY9UjcZ91kidRwsfSS0h0RqrXefC4b/IJ/OfjF36ZqNiHCSNlJUhFOq+X68zwsVyXckXQjsQ3vAdWQ/8TJz5s5Wy1rxrfbjVrRLAAAgAElEQVTxSKSq3YK4/9sikPanG/RK7ttCJH5v7tpsMSdqao5++clZFhSV5zWU+9owGg0wpmK7F1OHhyaU08q8bZ2gczkeNmkKX2S83pJW9VAide7SycTjSKRutu8zROpe4pHqBtterNpby/1X5uZMgs70ET4S/9PU6RFIn7kI3Jwf8om0uqt8SaNimwVMXW3gPHqANis2trr/xdLR+tq14FsLY5FI1YIV8QwrECBueEHWnBIi0QH22iwV22SvzYEQihQ9UUiiynpjSDk0YzaCvt4Jps62orwBaffS0QqM3fZOS9j9FWaYKXk/DUqkzl85mXjsNHqkbuuRwtDeei4+vxjplSXhfO7qtDN15hJkR8doakCBW3Nx6XqWr9xnNBrQuexg2dELrqMHwDG0F7Qux7C103u+cjddnp0hkSoPrjjrFiGgLC87+Zz0LWlp6aU3PFHkfwVfGAockqhym4V4P6i8QWMdmDpbab88665+MLe28IzV/Bdmr/tj5doDJVIXxk4mfvk0EqnbEal7jhKtLiKYiDlSa7iEkj98L59M/zx9/jLVjiLVvrQhtsp/kJECEr27Aex7toPr2AGw7tku66y2Xaa2psk1wFsTQ5FI1YQZ8RAEAWVpycGzwmelpdTr2ek5yFwinqgZEAJRkDNZ1X/xlfuWMHo9aO0WMDTVFz1Ru/vAtnMbEetbZozGv7a0uj9Rzj0gkbo9us+G9o5eD+0hkVrLPeR8QT87s9iaOnMRMuevAL9AksxZVYtwEvxoflR7C9gP7IG640NExuRUQWP8bVu3O7wWfGthLBKpWrAinoEiwPvD35eWk6/ITc9D9tJVyE3MgBCMgJzJqT4ptNxXhJIohw2MLY1g7u0E644e6vI3NTdNaAy6Dxi9zd8r9x4IkcqOjJ9cfvRX6JFCj1RJrhsfjr1CzuS+n7k4AclT54El3ykkyVwseWS6JPvdtEk0DOhsVjD1dIDzyCA4Du4Di8f9fkOH55MMw6guAx+J1KbdPFyonAhwgcjT+VT6MDs1D9mLE5CdmAbBH0YSVU7Qr89NNaIcNqIJRUNHFpJUvr0bjE0NZwta3TstnsYLq2k8vNGtUiI1OnFy+RenrhOpKFZm3mha7G6EunuOgnU7hvbWcs/4YPQat+DvTz09WlQyn1mEfDK9lilqcizJg9Q11dECEpJobh/cCYZ617tMrc2fq8kDv8ChkEip0eo1dOalqSWHxZL/Qj6T/T1uZoHJjE5AbnwK+MVQMZyn8vLkspqayhvoQedwgLHtes+8ndvAvK0DDE2NTwDkX2/2ehfKuoebJqdE6uLEyeWf3yBSEdQJu5lI3XuUCqFijtTqbiTnD9+rSNJ3s2NTrtSvRmjlL+8PqbtB8Y0fT3o9GLxNYB/cDXUnhkjIeJpxmN9kaW5+anXo1tYoJFK1ZU9VnUZRFJMQjHwin2Hfyc759NnRcchOTNHE8nwihSSqnLdBqwEN1YgiJKqFKhvbdvWBuasNdC7nNzjR8O763vpUObdw69zPJVLokSIY0Rwpd8N1j1QPEqlVXEpFUfR8MPJVMRz/gxu5UezUHEhLKQClsIoZanuIhsgedHip5IHj0CBYu9u+b4x6Xl2OatxqQBKJVDVYCfd4WwT4YPTTci73Dm7WZ0pfnIDc2CTwN0iU2nMYynhnqLyByUDlDYxtXrDu3Aa23YREtYLOan3EaNQ8xLjd2TJu4bZTEyKVu3T15NLPnsLQ3k0IIZFa+02UwvF7xSz7NXZqtpVIHpCwHpU8YLm1T1aDT+gaXGDZ3kNFOO0Hdium5qavG73uN9bgUVd1JCRSq4IJB1UaAlww+n5FFD/GzixqiCeKaEUJvhBIy0lMBC2nsbRaIN3eDc31YPQ0E5VssO7pA0tXGzBG0/82eZtet1XJppRIXb52cumnT2Ky+W2IVP2LjoJlB3qkXuj1+PCHP6z5s7e9461iLPFFIr6ZOnsZuJl5kGIJzLm70RbG3QC2gZ3gOj4E9oHtnMZieYnZ637ihbCt1f+ORKpWLVuj51LOndOLno7fykvi3/Nz/gZSnZe5cg2EhQD9oiuIYo2efOuPRTxRGpsZDE0NNJxn37sDLDt7idCmoDEa/t3kdb96K3eJROr26D/jkXrREZocbBtA+YPnu6e5WMwLGW6anZo3p88WvVG8P0zFfEFRtvKKV8TaGguRPfCAY2gPOA8OkpB+ytTW7KqIzW3RJpBIbRHwuOzaESBNiPOh2AmR5b8oBEI7s1cmi/3z5vwgxpZBEQQA/J5bO7CreYJU6ditYGhuBFN3Gw3lWft7wNDavKQxGj9v9ro/uJppyjmGEqkrkyeX/u8TGNq7XWiPECnqkdqBgpzPcxG5YPSjUnz54fSFK5A6PUr7c0rxBOZcEswYBnQOG5j7u8B5eBAcwwNgbmv5kdHjflk53+1KnxuJVKVbCPf3DAJKKlXPJ7KnOF9wO2kamr18Fbg5HyVRtF0D/losy20hHd5JcqnR4wbLti7a7oW0fTG0uEMavebDRoH7GtPdzZdl8TVMSonU2NTJpZ88jqG92xGpu68TqQEkUne6VlNTU8Z2oy2TvTqtJySKSKlwvhB6o64Dxuh0oG9wgnXv9mJ+1P7doHVaus0ez/waXtWaG4pEquZMWpsHUh59VCf075I4XwCyY9PFL7jZRRAjS1DgeYACuqLKYnm9ruiJamkqls7v2V7UiGpuEmRN4TetHs+PyrLuOiYlRIodnz4Z//Fj6JG6lUg1NYDrRYfBtoOE9pBI3el6ET06aTl5ODsyBknSnPjqDIjojXoGLqpm3toMdhLWO7SPdC5QzJ2tmnW8rjX1CBKpmjJnbR6Gj0R6FUH+gRCJ7yIaUUTPhQhvCqEoFHgBQMZy5JJbnmFAQ9XKraTFC1h3dIN1dz9Yt3WDobH+sqzRvsna2nSh5OtuYELqkZqYPrlEiFQ8CWIQdaRoNEavBX1TI9QhkXre2yVEIgMyn/8hOznXlnp6BDKXrgK/GIQCaQeDHwANA1qbFcw97cUmxQcHwORx/62pw/tetcODRErtN6DCz8/Nh7tBU/gnIbZ8N+mbl710DUgTYjEcAznHIokqh/00DJCWLzqnnZIo285esO7pB0tvJ+hdzsc0jOY9xvbmS+VYeiNzUo/UxPTJ+I9IaC8BYhB1pJ4lUg1Qf/fholQFeqSec82UuTkTb7A+IsWXHkyfu8yQ/Cj26mwxNyqvuo4nt30NSdGCvqGOVuk6Dw2CfXAXGOtthw0ez5mNvLe18CwSqVqwYg2fgfOFH80nUidz12Y06dEx+uUmhGIgZ3NIosphd40GaFd3lwP0LY1g29MPtl39tPWL3m4ZUXTm3zY1O+c3o+XLWo9XJFIzxdBenBAp9EjdTKTq7j5Mm0gjkXruzSIq5gVR/Hbu6mxD5txlSI+OgxiIFH+sYe4lAANU9sTobQb78F5wHR4E87bOca3d/EqT2z291ne11sYjkao1i9bIeYjMgdDa+Z18Kv0K0nw4c0O13B9BElUuG5NwnskIujoH6JvqwbF/N1h39YFlWyfo7La00dNUzzCMXK7lNzrvc4kUeqSKREpH7YkeqdvfMOWcoheaI58UYkvvSZ+7BOnzl4GbXkDdqJvh0mhA57SBuacDHIcGwDk8QHTkHjJ1eD5eiT+qNvpdstbnkUitFTEcX3YElHDYysvMH8ss9+Hc1Rkme/Eq5MYnaf+8fCYHgK720ttAo6EkiqqVt7aAbW8/DQOZu9pBa7c+ZXrqsbuZ17ymYkkUAYQSqaszJ5d+9BhNEMbQXvGaFHOkGqDu5GFacWnH0N6K94dbjJ4siNxj2bFJIN4okhslBEn+JRax3ACKVO7qiQjnnn6aZG7ft4vVuZzvNXmb/qH0X0bVNyMSqeqzWU3vWFEUrRha+v18LvM3uenFJlKdR5sQE8FN0nU9X9F/y6vTNrRvnhH0jXVg6vDQUJ519zYwd7YpWov5JwXIv83S2uqr9MMhkbq9hZ4lUodoP0QM7a3EiQ9EJrnFQF/m/JWiN2rGB/lUGhT8rnkGKCrCSUR4D+wB1+H9YOnrOgsG5rer4XthM763kEhtBsq4xqoREP3RQUngfs7N+urJL8Ps2BQIC37IL6eggP3zVo3jqgcST5TZSD0W5nYPaWhb9ER1t5NcqVMmRn4l4/XGVz3fFg68QaTiP7qRI4WhvZUeqUM0VIseqWcvKR+MfDGfyb2NCPumTl+kP9qIN0oRsEPCMygREc46B1j6usFxcC84Du0Dk6f5/5q87pds4eteUUsjkaooc6h7M0o02sKxUoiIbBKxTaJczs37IR8nrV8kTPos9fUgOVFW0vKlHkydreQPLG0hYupozTNG/Vlza/OxUi9ZzvkIkeKuzZ6M/+cvMbR3E9DPeKTuuu6R2oc6UgQePpLsAYn7ITvr25F8+gKtCOZmfVDI5EApoKTKM2E9vR70TXXEkwmuYwfAMbi7wFgtD5hbGn9ezve5muZGIlVN1qrhvUqRpWN5Xvwx7w/aCYnKEBJFEj4JiSKtX1Bws7TWJ54oqxmM7now93TS3AfSzd3kbclqLcZvB/ncu7orQK18LYemHqlrsyeXkEitgI0SqUaSI3WwGNrbt1P1LWKWZ5adZqP0GWl5+Y2ZC+O0n152YqqYYI6e72fvD6nWs1joDy3HMOmtt490NWBNrc3WtbybtT4WiVStW7gKzpdbDB1kQPmSGI7vIy52QqRypL8VqpaXx3okJ8psBkNzA235QkgU6cFm8rawjF73OUlT+Gu7xxMrz+LlmxWJ1O2xvZlI0dAeEilgA5FjCs//e258up6QKJpg7g+DTMQ3Ue7g2aieTgtap522hHIe3Q+Oob2gczf8mcXj/kT53uTqmxmJVPXZrKZ2rPj9DQKj+4oYX3559sq0JjNyhZIoIriJ3dbLYGpCoixmMLgbwNrXBVYazqMkCjR63Z8vKdKnvF5vVUo5F4nU3MmlHz0KYgyr9p4NzTzrkUIiVUSFWwz6+UCklZCoYoL5IuQTKUwwv+Urh1bytjSBY3AXlT2w7d0B81zauHv3bkwiuzl8XoavapwSEVgVArRCLxj9gJhIfSQ7Pg2Z0aKacFFwkwXAPIVV4bjqQVotaElOVHMjqbqhOQ+kf56huSmp0es/aGp1f3bVc1XgQJojNTlXzJGKLaP8wXUb0dJ1In9w18FisvmgukN7Qjj6ASmZ+RjRpktfGKMtp8RoHBQB8zBXvNYaDWjtFjB1tYHz8CAN6xlbW75r6fT+TgW+/lu6JfRIbSn86l6cD0Tfnc9kHslNTEOGaEVNzIDgD4FMkj1llDko6e0gLnriiWppok2H7Xt3gKW/CwxNDX6dyfwhfXP91xmGkUq65iZPViRS8yfj/0k8UkiknvFIUSJVD667SI5Uv6qJFB+MvrQgST8ivTqJ+GZmdAL4OR/IHI+dEm55X0mbKJpkvrsPHAf3kXsDuvq6e82epkc3+dWu+OWQSFW8iWpzg3wg+ocyy34id23OnLk0AezENHALAcin/h977wEeSVqdC5+q6q7QSbGz4kiaIGk0eSPMssQlXbjcXUzcBRYMNhi82BhjX2x4wMD9cQBjwHAJSzBwiTYZs8RlYXdndqImSTOjUeis2LGquqvrf87X0uzCzoxaUmuk7j793H187fnqq6r3fFV663znvG+aBDcrGXIOgBME4B02JE1g39HD0vMsE+VuTZpW/nWK3/MDjuPUSp52I+ZiRGr00sHpHxCReiL+pYxUMzQ+5QA4BuqXSGUnp4MCZ3xDjcVvXjh0ApjQ79kLkJ9bAMiTn97vPbPY0WtTQGrzQsO+neC6cTfYtrQ/xNulu2Wv9+JGPN+b+ZxEpDZzdGr02rKR+J2Q076QvTBhYzVRZy+WZA6wRoE6ZioadfwjytttpZqoHb3sqxK39ZBUCaK82+ppPMlxXE30ehORuvLS+T0ihRmpPfW5taeGYn9ZSGc/lDwyLKRPnGFyB7ilV8xW/TdERd8ZbDKeB2tLI2tCce7dyTr2RE/rB+Wg92/JEubJcBORqvwSpBmvgUAmFNrL6eaP1cmIO3n0FLN+Qe2W/Mw8ieBVeOVwFgvwDgUkrxtsO3pYwSh6ZYnu5pDJ83fa2nwPV/iUGzrdZSKFW3tx2tp70tYeZqSwRmpPf93JH6iT4TsMLf/d3MUJa/IxrIs6C6hXx8zPSVrlSc8tL8sgomn5rh1MO8q+vTcs2OR75YDnxxv6kG/SkxOR2qSBqcXLMmdm2tSM/h0tHNuP7cZsS+/COBQSc1BUNWo7rlTQOY5t5wkOG+u4cezoYWKbSl83iC1NFzgL/6eS3/NArWSilmB7MpGKgWnURLJtTSuDZaRacWtvf2lrr86IlGmaFnUq+qAWit6UPDLMpA6y5y5CYT5FGfArrSyeA8HlBFtPB7j2DbJtPaUj8KAc8B5c00Ks4YOJSNVwcDfTrZljY7ImOb6qxeIvxpR66vhpyIygVtQ0FLHQk7RbKhMurImyWEokyo0mo2gJUtrOs7Y0qSbHP10Jeh6pNRKF4D1OpH4JenwG9DARKcTlcSK1D+wD28BVZ0RKDce/n5+dez5255W69M6yjCUrI6D3zpPeO5xoBdHTzNZKw027wbV3AARZfqHc5vt+ZV5StTcLEanai+mmvCM9HP+oNjv31vTJEUaisufGQAvHwMjk6GVWyYhZSyQKa6BQaNO5awfYejtZRkKWBBfndqcqebrNNBcRqStH4zKRunVfKSO1d6Butva0SOLDRiZ7X/rcBSF1ZBjQBD03HgZT1cCkLb0nkygsMncsKpnvHQTXgaGSzlzQS1zhGi87Amcz/SWowWsxv/51Qb354DuMdPoD6dMXuNQJJFEXQZuMQiGZJq2oSsUct/NQ4sBhZ7UNrLAcSVRPJ2aixnhRepHkaz5ZqdNtxnkYkTqPXXuUkXpifJaIVMMt+xi5dtUJkdLDiX1GXv9C9tLUQOrwCUgPj0L2/CUwkhkwC9Sld6VnmEkeNDeAbfsWaLhpD7j2DoKlqfFeJej53GZ85jfLNRGR2iyRqNHryIWirzdz2scyI2Ny6tgpphWVmwiDsZACk1qOKxN1RqKwsNwGks8N9v5eVhOF9i/W5saLYBFeK/vdD9Z6tw0RqWtnpBpu2btIpAZrPiOVikTcFr34ZS0+/WwU3sRyAtSrY00t1Bl8lYWyKHkQ8DArGFQyt/V1T9m62/pqQR6lMi/bq0C3npPT3PWNQD42c3Nez/8wd36sEYXvUifPgTo2QUWeFV4WHNvOs4PV0wLOwa1MJ4qJbbY0ASdYByV/y2kAMCt82k03XYlIjZcEOWNUI7UUoMsZqZsXidS+2idS6lT0B/rM3PPSp0chzRpbzoEem2ZbelQXdXXCbcFsVF83uPaj5MEQSJ7WP5GCnk/V+kfYWl9mlJFaK4J0/BURMMPhVs0UfpabDA2ljp6GFNYmXJiA/DS5q1dyyZRIlI2RKMfgtsWaKCRRjao0esbJ3X573exhEJFaJiN18x62Rlw1TKRM0+S0yPQbjEzmU/jhlh7GmswzzDGhmNMAyDHh6tkoRQbR3wrOXf1sW8++fcssL0l3KW2+n1fynVWLcxGRqsWobvA9JcPhVtHgPqFGE3exDr0TSKLGQY8uduht8PXVxOkv10TZmO2LfUffIonqALGleZSXpJeKnqZjNXGvZd7E5a099NqjjNRl1EoZqSZouGkvOHbWNpHKRRK3FXPqf+ZGxxpTJ8+yLb3s+XEoZrJkSHyN54hDXz3MRvV2lSQPDgzhe+Xjyu8efBv30peSX9cy7yAiUmW+pGlY+QjkpmJfzE/Pvjo9XCJR2dFx0CPxkhExtRuXD+TVRi6SKFYT5W0tGdFiTRTTiWocL/L8K21B70NrP1F1zUBE6loZqdonUnpk+oCeTn9Rj8S3s0zUsdOQHR2DwlyS6jGXeZR5lo1yM6KNBsWOga1xwabcQwKc5b0DiUiVhxONKhMBbDfOJ9P3ZU6PCsmjw5A9exHUqSgU02hETOKIZcJ47WFWC1iWdKIG+sCxqx/sqBPV2gScleuVvd4LFTlPlU1Skj8YPzj9I8xITZOO1GL8Hs9I7VnMSO2suWJzLCVQdeOXamR6IHN6lG3nYXF5YXYBippOH3DXepYFHiwuJyi9HaxLD7Wj5Db/Kcnv2cVxHGWjyngPEpEqAyQasjwCpdqE+LPMgvGT9JnzgHVR6eGzoI6FmQ0DtRsvj2FZI1DiAL3zvK3gwO48tH3p6wKptWkuq0ndzT3NC2XNU4ODHq+RIiL1xPBeJlI3LhKp/bVFpFDsV7XK39cTs8/ATBRmwjPDI0x0kzkmFOkD7lqPOydLTDLFifVzKMC5qx8ExTaw2KRSg2+Kyt8SEanKY1qXM+qxuV2FbOZrufGp7WnWoXeWeejhFyGRqAotiSUShTVR23sYiUKxTbG1aUTguFeL7f5HK3SmqpyGiNS1t/ZcN+4BJ9ZI1RCRMsNhm8ZZ/i4/PfdO/IBDApU+NQLaVBQMdEygLPi1n2VBAIvLAcqW9sVOvZ0gdwQfVtp8N1flS2CDLpqI1AYBX0unzY1FukzO+JoWjt2YOnoG0qfOMRKFNh0mptXpt3YE0DvPrjwutom2L9u6wdrSHAWBv9MW9P62HiQOrgUkEanliNRuJo3RUCNEyjRNQYsm3qQnZj+UG5t0sGwUSqyMh8DIZIlELffWQRVzSQQrmhMPboWGA7vAMbQdRIdjvxhwP7bc4fTvjyNARIpWw5oRyE1Ff5lPzB5MHTvNMUPQ89ihlyAPvTUjuziBwANvU0DytpQUyzETtXULiJ4WAL7YqQQCE5U6VTXPQ0Tq2kQKi4jtNUSk1Eji+fr07P/TpiL2kvXUGchdmgIjlSGZgzIeZNap1+gCZUtbSYBz/xCIQd//tfHG27j29lwZU9CQRQSISNFSWDUC+EWoRmLvMpKZ9+GXYAoNQc9dAD0UByObo9qEVSP7hAPxZYeZKG8r2LZtAeeefrBv7QbR3RrLWcwbmolEXQaLiNTViZSlpQkabtxVykgdGKr6YvNMKLTXTKqPIXHCLb00duhdnCw1tZBjQllvHl6RQPSWOvWcewex8zdrdbleJQVav1PWBDToMgJEpGgxrBqB7FT8LtByX0qfuSCljp6C9KlRUNH+BWUOSPhu1bhePhAzUYrMbF8wA+XctZ0ZiIqelvPAi6+X21p/TYrDj8NMRKo+iFQ2HPufxWT6W7lLU1zm3EXW2JK7OFFqatEL1KFXxpuHw049zEb1dLKPM9eBXaAE/d+RHOJrueb6bVgpA7orDiEitVrk6vw4NTzzHEPNfCZ3cbINSVTm1AjkLoWgMDtPMgeVWBtIorCbxtPKDERRJwoLzEWfe47j+TvloPeXHMdRO9ITsCYitQyRumEIHEM7qjojlQ0lXmbMz31MiyRaUd6AkaixSSgkU2BqeSJRZb572AdawA32gW1MfNM5tH1eUKS75aDve2VOQcOegAARKVoOK0YgFw53Qt58QA1Fe5OPDbNOGUyr56dnyRB0xWhe4QCeY5korIFCkU3Hru3g2NELUsALvEUcEH3NZygT9WTckEip58cPJpiyOelILSGE8gdsa2//EDh2Vy+RyoXjTy3MJ7+nRxMNmbMXIHVkGLJjU1BAA3Ts0KNfWQgseXOiH6dzzyC4bsRslG/8uw/9quelpGJeFoZ/OIiI1Kpgq9+DTNO0qlOxf89Pz74OVcuTR4Yhh8XlsZmSZgspl69tcWAnjU0G0d0Mtr4u1kWDBeaS3xu3itY7rQHPg2s7Qe0eTRmpa2SkmpFI7QTHnv6qzEhlQqE9kNJ+nQtFHNlzY5A8egrUS1NMtZzeOyt4pvH9wrJRHnDs2sEkD5w7txcNxeJ3+nzxFcxEQykjRWtgtQhkQ/F3GgvJDzH7F9zSO3MBtEgcilmVistXC+rScfzidl5rEyh9naww2DHQh5mokCBKfyWGx7/B7d+fX+tpavV4IlLXIlKNrDPLuXeg6oiUFo69JL+Q/rIaiijZkUul7jzczptbWBTcNGt1SVf8vjAbZWlqAFtfJzj37YSGfTux4PzTSrvvjRU/WR1NSBmpOgr2Wm9VDyfuK2QzH0ifuSAnj5yC7JnzkMPicmw3JvXgtcGLJAo1XVoaQelFErWNabso7QGNs4pvlQz1S9SSfG2IiUgtQ6SwM2vfYFURKS0Svys/M/8xLT7jzZw9D6njZ1kmKj8zT5molb5xOA4E9OfEbNTufkasHTt65nmLtF/uqE9bqZVCeLXxRKQqhWSNz6OGY88p6oX7sxfHfanDJyF9+jzTbEHlcurQW2PwMd0uS+xLERWGUX0aiZTS2Qac1fIOKeD5J6qJWh7jyzVS6LUXpRqpJcRYjVRTA8tGoVZQtcgfZKPRG4uz6QfVSNyaPXuhtJ03EYY8uiVQTdTyD8QfjOBFK1ham0quCNipt28IXRHeLAU8n6T3y4rh/L0DiEitDb+6OHp+fLzJCpbP65H4i9D+BV9o2G6MX4WkXL7GJbCoLmxpcoHc1QaOnTvAMdgHSmcwa7Ep/yoFPO9a4xnq5nAiUtfISCGRwj+e+3dBww2bW0cKfTvVSOJWYyH1YG4iBNmRMdadp05FStt5OarFXPFDjdkolwPkzgA4WW3UENh7Ok8WRe4eezB4dMXz0QFEpGgNrAyB7FTk44XE3J+ifx4jUSOXWFcUFXmuDMcnjeY44EQLWBobQOkKgn1wG8tG2braVN6u3K8Z+t82tLfPrvEsdXP45a09ykj9/kseM1KNSKR2gOvA7k1NpMxTpqg2JF5RWJj/dG48bM2OXCxt56HtSzINRQ1NiKkmaqUP9ZIVDDauuPYO4n+6pdH1N7Lf/U8rnYvGPxkBykjRqrgmAmo49qlCMv3HKVQuP3oKsucugjoVgyJ6WVGH3upXD5IoC5IoB8jtgVJhOZKovv/prwwAACAASURBVC4QZOX7ecF4ndPvT6z+BPV3JBGpa2SkGl0lDamb9mxaIhUOh20tpuXPtOm5v1anwo24nYeWU+pECArJTCn7Te+cFT/YuLUrOB2g9LSDc/cA042ydbXPS4qlk2tpSa54Qjrgyd/EhAkhcDUEcuHYq0DL/1t65GJD8vBJyJweBRV1W6i4fO2LBkmUywFS0MskDlBwE0mUxemckgPu9rWfoP5mICJ1dSIlNDgZWW+8ZS/+IT1uD3Xt527nCptllaCsijYV+6Q+v3AvGp6jYnnm5Fkm8otOCaZO5ueritWSnIqvFZxDO8C5H61g+k2bpynAORzRVc1JBxGRojVQHgJmbH5LLpu5X50MPRXbjVPH0Iah1HJMXlblYXi1UZiJEpx2kNq8YO/vYy84RqIanA8pbb6nrG32+j36cSL1K2aarYdjpLIPACwj4XKyLtDGp+zHYvMTNsVy02bpAtWiszuLmvoZfXbuBtSky4xchAw2s4yHoIgkqmBQJmqVjzVntZY6gbGJBY2J9w6C7Hd/S27337nKKemwKyBAW3u0LJ6EgDk2JmuC9DU1mngRptaZDcOFcdDjM1Rcvtb1gn/U7DaQg16w9fcyEoUmxJamhp+anHGvLRicXOsp6vV4IlLXyEg5HWAf6IOmgzeA68DOYY1ruLWlb+O3dfTozE35TObT+enZwczoJQ5LB7Kjl0qenVg+gJ6dVBK1ukea59gHG5YOoE8nGhMrfV1nLVb5BSR3sDpIr/pxXNnpaLZaQECLxO7PzyTvTp44wzHRzdFL7OueiW5SjcLqQ2wRSqrCfg/YGYnazjJSYlPDCaMoPNfe4Q6vfnI6kojUtYiUnSnkNz3tJnDtHzxt97U+lWto2NBGhnxs5tl6Kv1ZLRxrQ/KEpue58SnQIwkwUmkqKl/jI80pEojulpLcAUpf7O4HS3Pje+WA5/0ct3m2ddd4m5vicMpIbYowbJ6LUMPhO4p68Ufp4RFgPnqnRyA3HoZiNgdgkEfuqiMlCCCg9Qv65yGJwuLy/l4QPe45SSi2cz5fZtVz04EMgctE6se/Yn+MaWuvtDBwa4932MG+fQs0334L2oKcsTd5bue8jthGLB0zHneoWvEjRU27N3thnFlMpU+NsM48fXqOXBIqEBSO58HS3ABKTwezgmk4MARKR/Bnkuh9Mefh0hU4BU3xBASISNFyuIxAJhTfw+Xz38qNTXSnjpwG9NLLjU2BsZAs1SnQb3UIoGr5Eona2l0iUWj94ms9XuSlF9qCLbSdtzpkf+8oIlJXz0gxIrW1G5qfcSu49g2eszsbn8m1tUxVAPayp0B9qORUokcqFj6qLySfm7s4weXOT0Dm3AVWf5mfT5ZMz8kloWxMrzgQNaNsMkhtfrAPbgXX3gEsITA4SXqDEvR8fm2T09FXQoCIFK0LhoA6EesxzcIXUAgPt/OYnxWKbiZmSy83+q0OAeafJzITYqW3q7SdN9gHss97FmThzbLX+wtSFV4dtH94FBGpaxMpbGhoeeZTwLm3f9TS7HyO4vONVQb58mbJTcVfY+r66/XEzK2YicqOjkHuwgSrhyogiaKi8vKAXGYUt2g1dXlLb88AyB7PR8VA659X5AQ0yZMQICJFiwLwS1EPx/9On1l4d2r4rJA8dAKy5y+xzidSEV7DAmGCmyJYWxvBtgVT7NvBMbgNU+wLgsX6l9ZA6/1Uq7AGfP/gUCJSyxCp3k5oedZTwLln4Ly1ofH5cpt7pHLoX3smNRz/eiGTvUObijqRPLEs1KUp9o5BoU3KeFcoEgKKrzpBbvOx4nLs0lO2dOQUkWvlAoFshc5C0/wBAkSkaEmAFp0dLKSSJ9Nnz0Py8DBkTo2ANhUFI5OjNPtq1weSKKsV0PoFVcuxTgFVy5UtHQYvWj8qB7x/sdqp6bgrI7BEpGZ+/CvQqEbqMkhLNVK2ng5oefZTwbm7/6LY4vwfkt9/aj3XEvtAm4wNGJz5QWMh+QLUhMqdv8SaV7BkID89C6aqg4mdefRbOwK4pWdXQPR7wIGyKmhSvXNbTnTYnmUNeh9a+wlohqshQESqztdGLpK4DXT9l/hySx4ZhszwOSaCV5hPkRnxGtYGI1H4ZdgZZPo9uKWnbOkoCjblk3LQ+5Y1TE2HXgUBykgtk5HqboeWOw4iqR+Xfc0vEd3uI+u1mMzJSUUTxLuNnPb+fGK2NTc2ybbysmOT7CON+XRiyQB1AVcsBJxoLZUQYB3m7n6sjTJFd8uXZafyNq6xca5iJ6KJnoQAEak6XhS5sUgXWLn/0ELRW9BDj4lunkcz4jmqi1rDuuCsKLhZMgjFzjznrn5QejvB4rB9TNJzf8V1d6trmJ4OXYZIUUbq9wFaykgpXW3Q+tzbkNRPyS1NL1uvLAX7OCsYbyxkMi/XJiLAOvPwP9zKi8+AkcrQ+6XCT/GS6KrcFWSZb2YD091xjpeFOyWfb7jCp6Pp/gABIlJ1uiRM0+TVSOJd+enZ96ZPjQrJQ8eZy7oenYFiLlenqKz9tlG1nLcrILf7wN6/FVy7d4Bt2xYkVl+N6tnXdROJWjvIlJFaEYaXiVRnEFqf9zRwDm6LWN3Nd8tB7wMrmqiMwVokfldRzX9WSyQc2mSUy2BB+dgUqJMRRqJA08GkrrwykFzBkEUbGGY3NbAVXPt2Mt9OwWZ7kxxwf2oFM9HQVSJARGqVwFX7YdpU/KX5TPr/Zc5eAOajd+YCaKEo+1qkdPvqosv+YKHgZgAFN/vAuWsH2Pt7wNrc/CtJTd9BmajV4VruUY/XSP0atEicdKQWgSsRKRsonZiRehr+kY2LvtZ7ZZ/7++Vie61xzAnB6ugA0/hOIZPtV6ciUNrKuwTaZAS0aAIKyRSrh6Jf5RFgXXqtTWDr60ZpC3Du3gGS131MDnr3VP5sNOOVECAiVYfrYmEy3ms19N9lL060IolKnzzHxPAKCykA0ota3Yrg+VKhJwpuopLwru1g39EHoqf5V7LguIvzOxOrm5iOKhcBIlJXRuoykerAjNTtaBUzI/vdfyL5Pd8oF9urjTNjMa+mF99uaNqr8zPzfty+wwwU/k8tFGMF5eiIYBY2jT/yWm95Ux2PZQSWBifIXW3sww0VzOWutqO2zuDNHMdpm+pia/hiiEjVcHCvdGuLW3oPalPhW5LHzkDqyCnInh+HAtZF5bH4s84AqcTtYmpdkcHqaQZ7Xxc4hnYwwU3R7z1hkfi7Ra/3eCVOQ3NcG4HHi81/DTplpC6DtUSk5I4AuJ/3dLQnmhcD7rcpfu8X17KmtFDiPcVC/pn5+YVbtHCcQ/Kkjk1CDrfxYtNM1qCoaWT1shaQr3Usdumh+Tlu6WFd1L6dKLqq8g7lXtnv/Srp060X8E+el4jU9cN6U5wJ9Vz02fm7MifPwsJjw4AmofjlaGqUdl9tgEoCeE1g6+1kLzT8MpTafHMgWN9oa/N8E4ierhbaFR1HROpaGSk0r/WD+/lPB9v2LSk56H2HHPCuqn5Gj8d3mwX4TCGb261ORQXcvstenIDcRBj0aBwKswsl6RSSNVjR+l3pYA7LCLwtYNu6BZz7UL18O4itLf8q+d33cRxHfl4rBXQN44lIrQG8ajqUZaLCiXuMbOZfsiOXGrC4PHP6PGA9g5GkuqhVxZIJblrB0uAApadEolxD20Hubs8LovheKeD5h1XNSwetCgHa2rsWkbKB5PeC50XPwvb4rNIe+Fs54P5IuUCbvzAt2W3TuyxF4w5D19+vJ2aZjAGSJxW38cIx5pPHslBk81IurKseh+8da3Mj89IrbekNgq3Dfzhv4V7g8Ho3xENx1TdTAwcSkaqBIJZzC9nJ6aBZyH1THQ/fVLKAOc30ogy0ZshT/UI5GP7eGCa4aQGLC2UOUCsKM1HbGaGy2JS/kQKeD654TjpgTQhQRuraREp0t4DnJXeAra8rL7cH3qe0ed9XDuBaJDJQNIWXFTXtzcZCqkkNxUCdCDFrFyRTSKqwvhKNzUmhvBxE1zhG4EFocILS7gcH04ti6uUgSPKL5KD7u2ucnQ5fBQJEpFYBWjUeooaiv1HD8VtTWBd17BRzXMcXIG3prS6aJa0oOzMGxZZj7JSx9XaBxel4qxz0fGx1s9JRa0GAEanRSwdnfvIgde09AcilGilLowt8f/RC3II2le72D8t+9zuvhffhw4etg/72b4BR3JpfSG7TIgleDUVAvRQCNRRlPpz52Xm2jcfqK4tUYLmW9VvWsYtNLZLfA7b+XtalhyrmvMtxpy3g/VZZc9CgiiNARKrikG6+CXPh+AeMVPpdaEScPHQSMqMXQZ+KQVFVqXpnNeHi0YqhVOT5BJkD0+pyfWSWN/53gDytVoPqmo+hrb1rZ6QEuw38r3wx2w6y93T+o+R3v+NKR4yOjkpt9oZ3cwB/ZWSyVnUqyqRRcuMh0CbD7AMMlcmNVBaKuk42UmteueVPgE0toqcZbIvq5Y7dAyC5m/5VCnj/irr0ysex0iOJSFUa0U02Xz42c3Mhm/1R+txYQ+rIMKRQ6uDSFBTxK5KKQVceLR479BQQfa1g37alpBW1cxtIrc2/BpN/w/U0gl35xdf2EaWM1PjBmZ+QjtQTI80yUnYb8KIVAq+9i3k/2rdu+T0iZZqmkJuK7hMsQmcxX/ickVUdWmya1T4heUIyhZ14+dk5KKSyJY88zELR77ohgFlw1IvCbTznnn40nwbJ5zln8vyr7R3+Q9ftQuhET0KAiFQNL4r0ZGyILxr3a1ORPcmjw4DbermLkyWpA9KLWnnkkURJUkn8DknUzm3g2LkdBTiTFkF4gTXgeXDlk9IRlULgMpH671+DFiZBziVcl7b2eGuJSGH3nmNH72UilQ/HDxoALzELhZcU0tl2tIjCrTttMgpaJAZ6JFHawktlwMhpJU0oUiev1LItbx5BWNSLCoBzqFRcrnS3zQmK/ErZ7/lReZPQqPVCgIjUeiG7wfMy01BOfJ82PXtf+uRZnlnAnB+HfGwGiirptK04PKgVJYlgaWoApa8TbTbQ/BXkNj8IsjAk+XwnVzwnHVBRBC7XSP33g0SknoDsEzNSvle+CJSOADi29fwjJ1kfAeDeWcznffn5ZFthbgFUzECxrbwY6LEE5OdTl1XJqRuvosu1/MmwuBxLCdAxYaAPzYjBPrAVBIftNbLP/UXSiyofyvUaSURqvZDd4Hn1S6E9eV0/kj6DFjAnIH16FPRQDIxMlopCVxGbksyBC5QtbaUOvT39oHQGVZCkZ9qC3odWMSUdUmEEiEhdGdAnZqQanrIfGvYPMc0z3CoqpDNM90mPToM6GQItkih14c3Nsy08/OhiXb2Ugarwai1zOhTdtMkgeltB2baFkSjMgostTT+RA547ypyFhq0zAkSk1hngjZhei84OFjX1WPbCuJB8bBjSJ85CbnwKCvMpEslbTUAswuMyB/19rOXY1tORFF2uv7b6Wj7NcZyxmmnpmMoiQETqGkRqsUYKM6relzyHtc8XNR0KM/OLHXgzrIA8P58EI5uDIvriFQpUAlDZJbri2XhZAqu7GWx9neDaWzIjtnpaDimi8wWczxlf8YR0wLogQERqXWDduEnD4bCt2RT+S4vEn5lEvagjw6UtvZl5kjpYTVhYWt0GUpsXHNuRRJXsX6xO5+dFxXIf19y8sJpp6ZjKI0BE6ipEShCAt8mAf5SB56HhhiEwiyYY6Szbtisk02Ck0lDMaVDU8qUaKNMk8/LKL9EVzchZrWBtaQRlSzvz0MPaKCngPV60Wu9xtJHt1IrAXOfBRKTWGeDrPX0uHP+Hwtz8X2VOn7csPHYSMqcvgB6JsZckeznSr3wEULMF0+rooYeZKPTQG9wGYmvzpFQQd3GdjXPlT0Yj1xsBIlJXJ1IgWkGQJabEj7V+nMCDkV4sHjeKpQ48o0jviPVepGXOf9mMGOvZdm4Hx55+sPd1Z0xeeKWt3ftdqosqE8jrNIyI1HUCer1PYwJwWijxwkIu+8XcxfGG5KMnID08AupkGIyFNL0gVxoAZkQsgbjYoYcpdSRSkt8dk3PpTq6vjyr2V4rpOo8nInUNgHmekSfgHn/lY1YKDMw+rXNgaPoVIYA1bYLTUSou718sLt/Rawp25dNywPumFU1Gg68LAkSkrgvM638SMxy2qXn4uhqKPj917DQkD58EdGPHQlLSe1k5/rxkBQsaEfd0sC9CZkQc9J61WKWXi22eYyufkY5YbwSISK03wjT/eiOAZJd32EHytYJtew9TLke9Omuj6xtym/+l631+mn91CBCRWh1um+6o3FTsi/mZuVenT56D5JGTkDl3kXXiMAsY2tJbUbw4iwUsjU6Qu9vAMYAdejtA2dKZsNiVN4qelv8iZ/UVwXndBjMiNXLp4MxPSf7guoFOJ6ocAqxDryT2a9vWDa4Du8C+tRvNib8iu2xv4RqplKByYFd2JiJSlcVzQ2bTIvGXGqr+tfSpEQ71otKnRkCbiEIxl2NFpfQrH4GlVnG5zcc89LBDz4leVoryMSngfjvHceTwXD6c13UkEqnsyNjB2Z/+hnSkrivydLI1I8B06qxg9brRVBpc+3eCffsWkPy+h4oF/i57lzuy5nPQBOuGABGpdYP2+kycnZwO8lz+gezFye2po6cgeew05C5MsLoo1n1Dv7IRYGl1m419EWJnHgpuoiGopbHhYaXNe3PZE9HADUGAEalzYwdnH3iIWZvo4RiYWEBNP0JgMyPAccBJImpDgdLbAc7d/UxwU+kMTguC5Xmiv5XsXzZz/ACAiNQmD9C1Li8ZDreKReETWjxxF3ropR4bhuzIGOixGTDRTJR+5SOAaXVFRo2Wkv0LkznYCpK75SeSLNzJeTzp8iejkRuBwGUi9bOHSsrcRKQ2Igx0zpUgsEiimMxBRwDsQ9vBObQd5I7ggkWW/1QKuL+ykulo7MYgQERqY3CvyFnVaOIFhfnkVzJnLzgXDp2ADKqXRxJMH4bqolYGMX4RMg+93k4meodfhXLA+1tOEF9LRsQrw3KjRpeI1MWDsz/7LRGpjQoCnXdFCLD3TnMDyO0BcAz0gmP3AGaidLBJ99mD/k+saDIavGEIEJHaMOjXdmLzsGnNtYZSubFJiamX45beeBgKC6RevlJkUfhOaHCgCSjTiXKhIWhPxzwI1j9Wgu5vkmbLShHdmPGXidQDi0QqQlt7GxMJOms5CDDbqUYXyO0+sO/oBdf+IZC72lAA+P3yb375Hu6lLyXHhHKA3ARjiEhtgiCs9BJM0xT1SOJ3aiS+l6mX45be+UuQn54DU8+vdLq6Ho8deoLTBlLQB86hbSX7l61bQHTYPib6PW+ta3Cq7OYZkTq7lJGKgh6JU41UlcWwLi4Xt/Os6N3pADnoA9uOntLHW18nWOyOT8kBN2lFVdlCICJVZQHDy1VD8bcYmczHsC4qierlp0ZBi8ShmFPJkHgl8UTlcocNRTaZ8B1qReGXodDo/IStzf/mlUxFYzcegRKRunBw9me/Ay1ERGrjI0JXcCUESgboThD9HnDs6GX2L7YtHSi58s+S3/MOklepvnVDRKrKYqaGoi8s6vlP58YmfSi6mTp+FlQU3kymiEStMJboPyZ6SpotTHRzaDuI7pbPyYrlzzm3O7XC6Wj4BiPAiNSZCwdnf760tUcZqQ0OCZ3+DxBAEiU47SjuC/ZtPeDaPwhKdztYnI4PyHH/e7j9HG0pVOGqISJVRUFLJBJOh27+sxaOvj59/AwsPHqcSR3kUb2cuvRWFMmlIk8sLsdWY6xPUIK+YV5R7hHdjUdWNBkN3hQIEJHaFGGgi7gKAoxE2RVWRoAaUa4bdmF3Hlibm+6Xre4/4zwcdQZX6eohIlVFgVOnYm/KJ5OfzJw+zyxg0otdemxLj9TLy44kMwR1OVhhp2NoO7gwtd7doXKy/HbZ3/rJsieigZsKgd8jUlNR0KMJqpHaVBGq04thNVGWUhlBwAv27T3g3NMPypYOEFuav2eI3Jvsbne4TtGpidsmIlUlYcxF5rpAzZzInL/kTB4+wbb0tMkIFFLpkms7/cpDQOBZal0OelmHHsoc2Lb1gMWp3CcHfB8pbxIatRkRQCKVOX3+4NzPF2ukiEhtxjDV3TVd3s7zu9m7hr1zejtBbGr8jiRI93GBpvG6A6XGbpiIVJUEVA3Fj6uhyBAzJGbCm5egMI9berSlXnYI0YYBU+veVrD397JsFNZGCQ2uv7O1+95PMgdlI7kpBzIidWr04NwvHi4VmxOR2pRxqpuLWspEYU2U38O6gV37BkDp7gBLs+tbAMbbbO3tobrBo4ZvlIjUJg+uaZqcGk58rphK35MaPsuVhDfPgx6OQ1HVNvnVb67L41G5HBWEt3aDE7NR+wZB8rQ+aHKFl9MLbXPFajVXw4jU8OjBuV8+DGooCnkiUquBkY6pBAKLEgeCY7EmCk2I9+0EqTNoSq3NPzcF6Q2Kr3GsEqeiOTYeASJSGx+Da15Bdip6E+TzX8icH9+KelGYkdImw2CksmAapNdWbvhYXVRzI9i2tLNMlHPPICjtvilOFN8gBzw/LnceGrd5EWBE6uTIwblfPQzqVBTysWmqkdq84ardK0MShYXlWIeJmShmOYU1Ue3op/dz3oS3i23e47ULQP3dGRGpTRxzMxbzZtXCl/Kx6Weljp2B5JFhyI1egvzMPJh52tIrO3QCDxaXE+SOADgGt4JzzwDYt3XnQZFfYfN7vln2PDRwUyNQIlLnDs796hEiUps6UrV7cRzPATCdKFdJn27rFnDs3sG288Qm17dAEt4lezyjtYtAfd4ZEalNHPdsKPqyYjLz5dTwOSH5yDHInLsAenSmJLxJXXrlRQ5FN+0KiN5WRqJQuRy39YQG+7tlv/cDJH5XHoybfZT5dVOY3zL8y+zwuacwIjUZgTyadxepEWOzx65Wro8TeACLBSxNrlJ3HtZE7R0AuTOIxOorRVN4h72DuvNqJd5PvA8iUps0qqlIxC1oxThav2AmKnX0FKgTpS09oC298qKGxeWyBFZ3ExO/c+7eAc5d/WBpbTpsa/cfKG8SGlUNCMRPxR2iGv1p5uTITXO/RCIVBj0+C0BEqhrCV/XXyEgU2r4seufZtnaDa88AKF1tRWuD6z9FC7yZ83iiVX+jdANXRICI1CZcGGY0atcM7ndqOLYTt/RSj52ALNvSW6AtvRXEC+sUsLgc7RccQzuYdosU8J7grdJdcpt7ZAVT0dBNjgB+eBTD0z9Mnzy3nxGp8RDo03NEpDZ53Gri8gQBeEkES1MDyB1+sPd1sW5gubsNxEbX/aIpv4MLuKZr4l7pJohIVcsaUEOxdxjpzPtSw6MSakZlTo2AFknQlt4KAshZBBAaFuuiULl83yAoWzqnBJt0rxzw/vcKpqKhVYBALhzu0CIz382cPLeLde1dCoE+g0TKrIKrp0usVgTQ9Jx9sLU2gtzZBjYkUQN9oHS1owDn+2W++EEuEMhW6/3RdZeHAGWkysPpuo1SYzPPKqrq53MXJ4LMS+/YafZHoZBM09d1mVHAgk/eZgMx6AZHP5KonWAf6EM/q09KZ4ffyt1+e6HMqWhYlSCghhLbtEjsW+nhswOzjEhNsaYMIlJVEsAqvEzsBOasVrC6m1lHHtq+YAmB0tUGvE15r5z1fJDr40ijpgpju9JLJiK1UsTWcfzk5KTi5sT3a7HE25nw5uHFLT300tP0dTxzbU3NKxJYPS1gx7bjvYPg2LkVJLf7jBz09NfWndLdLCGgx+N7slPxr2VOnN06+4vfgXpxEvJzSWrKoCVSeQQ4AMxE8TalVDqAfp07esHW143eeQVBFj8tB71vrvyJacbNigARqU0UmVwkfo+xkL4/c+Y8JB87Cenhc6Ch8GaWuvTKDdNSXRT6WJX0ovpBbvP/RukI3M5xHGWiygWyysblpqLP0KKJz2eGz7XP/vx3kLswDoWFNBGpKovjpr9c1IiyWEBw2UHETFRPB7Oawv8pet0pq035Nyng+ZtNfx90gRVFgIhUReFc/WSmacrqZHQse2HclzoyzDr1WJdeMg1mgYQ3y0GWExbrojpLelGuvYNYaB7lbfI9VBdVDoLVO0abit+pxmKfSJ8855792W9Zc4aRylTvDdGVbz4EeB6w9tLS4ATR52bkybkLNaJQaLN5wiKJ7xGDns9vvgunK1pvBIhIrTfCZc6vRuNH9ej07vTJc4A2MNkzF0CfniUvvTLxw2G83QZSmw8c/X3QcGAIbFu7TEuD8yPSbzzv4F7KERtdAZbVNlSdir1Rjcb/KTN8zj7zwEOQGxkDI5Orttug692sCCCJYkKbTpCCPrad59i5mIlqbh4RrOY9Vq/3UdKl26wBXN/rIiK1vviWNbsemb5bz2T+LXv2gjN56DggmVJDMTAzOTBJeHN5DDHdLolMdNO2tYspl+OXouRp/Y4c8Lxk+QloRLUjkBkP/X0+Mfse3A6f/elvIHturNTlSj9CYK0ICHypHqoRu4CDrDMPdaIwIyU1Nz2m88XnOX2++FpPQ8dXLwJEpDY4dthtZBr6/epk5KbkY6eY8Gb24gQY8ykwC1TSU0542Jdik4t1zqCnFfO16mybMKFwC5kRl4Ng9Y/JjE2WiNTJc8C29s5dJFPv6g/rxt4BxwEIPAgOO4gtKG8QLBWVI4HqCBgWp/0bcjR0N7d/P/l1bWykNvzsRKQ2MASmaVr1cPxvtZm5v8sMn+PmHzkO2ZGLTJHZVKlrtqzQ8DxY8EsRt/R2oejmANh6Ok3Rbnu61e/+ZVlz0KCqRyAzOvb3+vT8e7C+cP43hyFz7iJ1ulZ9VDfwBjDLbbWC4FwsKu9uA8fAVlD6OkHyejKCTf6EVtQ/1NDePruBV0mn3iQIEJHawEAwG5hcIZYZucgt2cBoUzEw0lnSjConLmgB41BA8rnZSw6JFHbQiA2Ol0tB39fKdnUU4wAAIABJREFUmYLGVD8C5uSkks0Z/0eLxv9s/sFDkDp+hhWbmzolCqo/uhtwB/heUSQQXA6Q/B78MAPbti2sbED2ukEQhOda/O6fcBxHaq8bEJ7NeEoiUhsUFdM0JTUUG1VD0XbczkPxTdayPZcEM09beuWEhdVFeZqZfguSKNfegaLkbvmWJJh/ygUCZMlQDog1MAa3xwu5zLfUsakB1JDKnD7PRGzNPBGpGgjv9bsF/GvIL9ZDNTewonI0HsbCcrmrzRRbmoZNrvBcKhe4fiGpljMRkdqgSOXC0b81kpn3L3XpoQ2MHpsp1XVQgfnyUbEIYG1qYK3HJRI1CHJHIM6J1juVgOfB5SegEbWCQDYUu7WYzf0mc3oUMCOVHh4BPRwHk8y9ayXE638fuJUnWkGwK2B1t7BSAVQpt23rBjno1QS7/b843ni33NZGHp3rH42qOwMRqQ0ImRqKPcssGF/MoGbU4ROQOnoacuMhKKYyYJJb/fIRwQJQpx0NiFkLsnPvADh39AHI0q22oPe3y09AI2oJgVw4/r7CfPJ/Jx89zkRsk48eg/wsqZrXUozX9V5wK0+WmDen5G0FpacdbL3dLBMlBTwgiNaX6bz5c6ffn1jX66DJqxYBIlLXOXRYYK5G4h/VIok/SaMNzGPDrMMoP0c2MGWFYvGlZ/W2gH1HH7j29INrd78pNDj/QWnzvbusOWhQzSBgTpqKakayufEwJA8dg9TJc5A5NQpF0pCqmRiv540w02G0lGpuANHnATtKG2zfgpluU2xuzJo2cZuttTW0ntdAc1c/AkSkrmMMTdPk8pH4q/Kp7P3pcxf41KET7MVfsoHJ0ZZeGbEoOa03sQJQlDlw7OkHye9+WLE4X8gFXFQXVQaGtTJEi87uLBa07+nR6c706VFInzjLNNjy07NQVMmbslbivC73wWNXnggWl5355aG0AWagbL1dWCKgCYryTV6SPyT5mofX5fw0aU0hQETqOobTPGWKOXvoYXUysocVmB86wbb0jAW0gaEC8+VCweGWXqOLvfSYBcy+QZC72s+INtvdYsB9eLnj6d9rAwHzPSav/XH8maaa/0d9ZnYQu14z58ZYJkqPJaCwkAIoUkNVbUS78neBNi/YlWdpbADR24LvELD3ocBmO4r45iyy8larYHyV8/nIY6jy8NfkjESkrmNY1XDs2/nZ+f+ZOnEWFh5FG5jzoCfmFvVu6MW/XCh4uwIy2jMM9IJr/xA4tvfkBZfjQ7Lf816OIwuY5fCrlX/PTUW+YGTVO/RIwpMZuQjaVBTSp0YgPz0HBawzJA22Wgl1Ze+DaUNZgF8S2Gz3M3XyxSwU2r/8HAThb21tvocre2KardYRICJ1nSK8MBnvE83CCG5BoNRB6thp9gcAt/RMo3idrqJ6T1OSOmhhWi6ufTvBMbQdJI/7pBz0DFXvXdGVl4tAOBy2NZvCLWaxiB8jTnU8DNnzl0BPzELm3AXIzy5AMZeDYpr89crFtK7GMVkDGSwuRykLhVYvvV1MYFP2uXO83f512e9+HXnl1dWqqNjNEpGqGJRXnyg9FvdZrOYP1Uh0D3boIZFCwcACFpiTZtSyEcCCULSAkbuC4NyDFjADIHe2nTkzHdm1n+wZlsWv2gdkJmIv5k3jxUYme7cWm+bU8SnITUZAHQ+BHpuGwnySyYaYqk5dr9Ue7Epf/2IWCrt8rc2NIAW9oGzpYDWWcrsPrM1Nv+QU6T8Un/szlT41zVc/CBCRug6xViOxPynMpT+cPjtqRxKVPnEO9Pg0FLMqFZgvhz/HlRSGgyWpA8xG2Xq7dM6h3GUP+r673OH079WLQC4cP8iB+bJCOvuq/MycU50IgxZNQO78OMtE6VhUnslBUdNLHyQkHVK9wV6HK8daKE6WwNLgAslXykIhiVK620D0e9MWm/wlUzA/aAsGJ9fh9DRlHSFARGqdg62H4nsKef376kQ4kHzsJJM7UC9NQWEhTS/+MrDnFRlEXyvYt/eUuvR2bUfH9b8/GZn8IGWjygCwCoeYpilrkcQHi5p2tz4z36RH4lxuIgTaZBTUqQjkZ+bBSGVYFooJ2ILJ/h/9CIElBJBACQ4by0KhuKbc1VZSKG8PgOhuBt4CgzOmORYIBLKEGiGwVgSISK0VwWWOz05G3lmYXfhQ6vhpQMFANFMtzMxDEX3ASMH8mujhF6WlBaUOOsCxqx9c+wex2PxnspV7Befzxdc5dDT9dUQApUEgFnPrRe7WYsH4dn4+CVokDtpEBHKTYdDx/x9NMAJlZLKl56dgXMcrpFNtegQ4AE6wADalWFBc09cKEquF6kRJA/TknBccjv9Wgp4/2vT3QhdYVQgQkVrHcGVDsVtMVXsoO3KxVGB+9BSooUXNKNqGuDbyPM8KQ+XOwBO39PKCIr1C8nu+uY5ho6mvMwKmaYpaKP5aM194RSGTOYh1T5h5UicioEfjoIbjYCRTYKRxG08DEwkUfYRc5yht8tMJAvCSCJYGB1hbm5kiOdvG6wiC1BEAq8vxoCBK/yoG3d+mgvJNHssqvDwiUusUNBOA08KJU+pEaEeSmRKfgOz5cTCSaXKlXw5zVC+3ySB6WsE+0IdmxODYuR1rHe5Vgp7PLXc4/Xt1ILD4jLytaBhPM1Kp5+uJOYvKsk+JUiF5YgbyM3NgpLNMYJNprRGBqo7gXq+rxG480Qq8HbfxGkDye1j2SekKMr05sbVZ5222N3BFeEju8F64XpdF56kvBIhIrVO8c6HoZ4x09l4md/DIMUifHGFbE6RxszzgqPVidTeBsqWTmREjkRJ97p/Jn/3Us7n3vIe0IpaHcNOP0CIz/WbR+LKRzQxoiVlRD8VAxU68yTBT+kfLJCOVLhGoPG6Db/pbogu8zggwYU2bApZGF4juJkac5M42ZmSOdZXWBtcDPG95q+hvOctxHK2g6xyfejodEal1iHYqHN5hLZhfzVyc3IVbeskjw6CNh1l9BznSLwO4wLMXI35VolYUdukp3e1hi1V8rtTuPbEO4aIprxMCZjRq101rp1HQ32vq+TvziRlWB4WaUGooBlo4ygrJC0igchp14l2nuFTVafAvFmahlJImlLWliRWTS+0BsCGBCrhBcrecBqv120rAQ96bVRXc6r1YIlIVjp0Zjzs03fywPj3zJvT9Wjh0AjJnLzDVZVMj/6/l4OYdNpaet/f3MQsYe3/vgtTous/qc99PX5XLobd5/12fjN5YBHhlQVVfbiwkWxlxmooyPSisg8rHZxmBMjIqmIU8AInUbt5gbtCVoUUUCvOiJhTau8gBL0ioTo7beEEf1kZFLHbbDySL+Tec35/YoMuk09YhAkSkKhz01HhkgM9rD2ZHxppQ6gDro3QslkU3eiowvybanNUKVm8L67LBTJRz9w4Q3S0Pyk7lRVxj41yFQ0XTXQcEzJmZNl0zPmqo6mB+PrkVt+3UqSgjUVooyrSgmKBmToOirpc88qgO6jpEpopOgaKaorUkZ9DoBNHnASngZVt4qC+H/wmK/LBFVu6zQv4keeRVUWxr5FKJSFU4kLnJyIQWTbSjgvnCI0chd34CsJUbyJT42iRKEEBocLItPVQvZ9movm4Yjk6JpBdV4UV6HaYzTdOqhhLv5IrG3+nz81YtnCjVP4WipW68xAwzF0aLJKyDIvJ0HYJSjaewWECwK4xEST73ZU0ouc0PYsADYktTQRAsN1n9rcfIb7MaA1wb10xEqoJx1MKxFxfSue+khs9C8tETgObE+cQsFFWV3OivhTOql9sVEP1ucAxuA+e+QXAMbDUsLsdLZJ+b1MsruEbXcyrUgtKmEr2GWdzBFY1vF5JpQY9hBioGTJU8Egc9moDCQrLUiafhFh5pQa1nTKpybsxA8Txwi954KGcgB0rdeEigMANlbWkKC4rynwUd3ufo9kSr8j7pomsGASJSFQqlmkhsBdU4lB2bcGFxORaZqxenoJDO0B+LZTBmhsTuZlDQkHjPYGlLr6X5M3KH/4+pLqpCC3SdpzETCaeuGX9mFPIvMVK5vVp8mkMtKA3/C8VBjyVKnXgopokZKKyBoi28dY5K9U2PvpqsDsplB7G5EUSUM2j3s/9wO09sbc7ydvl+nhd/KLe5f1B9d0hXXIsIEJGqUFTVUPzj+dnZN6VOjPALh45D9vQo6DPzJHewHL48B5amBlYw6ti1A1z7h0Bp9z/IC9Jr5E7vxeUOp3/feARyU/EPgGk8s7CQ3MO0oKZwCy/GaqH06DTkZ+dZBsrUUQuKxDQ3PmKb7wpYIbm4WEje5GINJ1LQB0pHAMSgF2S/FwSb8qjFIvyFBQpHOLJ22XxBrOMrIiJVgeAXYtMv1rK5z+YuTDYvHDoGqSOnWDEtim/S79oIoJAeti/bB3qh4YbdYN+2RbO47O+RfJ4PEXabFwGsgSpEp28xiuaXCqlUuxafBj0UZ1t4aigKWiQGhdkky8hityozFaYfIfCHCKD4rigC77SzbjzJ7wYF5Qw6sBPPi4SqaGl05YHjnqe0+X5OABICmxEBIlJrjEo8Hnc41cKH9cTMm1iB+aETkB0dg8JckhTMl8NWtGJXHti3dTPhTQfr0mv9ktLmvXu5Q+nfNwYBMxJxqwY3BMXiu42cepsenwYNlcixBgolDSLxRTXyDBRzpEa+MVGqgrNiDZS1VEiOvnhWTwuTMGBbeKwTzwdWp+MCL0vfKljgnx1eb6wK7oousU4RICK1xsDnpiK3F3PqA5kzF3gkUenjZ5mCOXYjUQ3INcBlwpsNIHcFwLV7AJx7B8De05kqcka/ra1tao1hocPXAQEtHPtfZsF4RSGjPic/O2dXwyUtKKyFwiJyfXqOic7i2jexBorkPtYhClU+Jc8BypzwsgTWJtdlXzwsIkcShQ0nlqaGBV6SPsgJwm+VgOfBKr9juvw6QICI1BqDnJuMjKuT4Y6S3MExyI1NlhTMaSvj6shiOt+usDoIx85ti8KbfWj3cLOtzffwGkNCh1cYgexU9Cae5z9ZSGfa8zPzLRojUJGSHhR24iGBWkA7F7W07qmIvMIRqIHpOGAEipMlloESUZE86GMSBtiNJwU9qEhe5KzW/zCA+7D9s/9+iuygaiDudXILRKTWEOhcdPp9RjL5v9MnzsLCw8cgPTyyKHegrWHW2j+UCW96msHe1wWOfYOYkTLF1pYPyPGp93L79+drH4HNf4eHDx+2Dra3d5h58/2mnn+ZNj0DOtOCQgIVASRTKO1RSCKB0ki1f/OHdGOuEAkUduIhgXI6wNraVDIWbvMuShn4cHs/w9uVtGzldnMekjLYmEDRWdeCABGpVaKXnozuFMB8IHth3JN87CSkDp+E3KVQScGctHGujirPg6XJBXJXGzjRS2//EMidgdNWUXqVGPQcXWU46LAKIWCapqhGp2+BfP4pRT3/Puy4w61qjRGoUgYKPfIKmIFCMU3MQNEWXoXQr6FpcAsPPfFsMgh2OyNQItZBseyTF+SAD0RPsybYlAdNwfppJej+Nglq1lD86+xWiEitIuCmaQpaZPpj+vTMG9MnzvILjx6HzJnzzHCV/PSuDSi6tWMaH730Gm7YBbbtPQsWl+PNSsD7H6sIBR1SQQS08PT2YtF4l5HLPcNYSAWZoTCzc4mUtvCQQM2nwMAaKCRQ5IdXQfRrZCoU0xQEloESHAqILY0g+twgBVEHqqQJhQ0mFrvtARAtX5R52084nzNeI3dPt1GnCBCRWkXgM6HoC01V+7J6cdKVPHQC0FMPrS9QK4fqQ64OKHbpWN3NYOvrYpkoFN6UvJ5jUnbhJq6vj/ZDV7EWK3GIGY3atSL/w6Ku9eVnFvwsA7VUAxWOgR6fYV2oRk4tdaJSBqoSsNfcHIxAMVNhG1gaXEyNHLvvWBdeewAkbwtYnM5LJg/vUMD+C67NNVNzINAN1SUCRKRWGPaxsTHZb1E+pMUTb0sdOQ0Ljx6D7Og4M14181Tec1U4eR4ElwOUDj/r0HPu3QmOvs55qT3QTOrlK1yEFRiOdi5qJNJhFri7oGh8ID+3YEXxzJIaeclQWEMCNZ8EI4sEalGNvALnpilqDAFBAF6ygmC3sW170dNakjFo8zEhTdHfmrc2NUZ5QfiCFPC8u8bunm6HEAAiUitcBGoo9kwjm/tp5ux5WDh0EtJHT5fkDshP7xqpKA54RWatzfYdvdBwYAjs/b2mxWl/ldIe+MoKQ0DD14iAHorvMThufzGX+0cjlXaxDBRTIsci8jigNlRhFu1cciwDZVLN3xoRr8HD8S8H1kBJIqCoLkoZYA2UFEAtKF/JzsXnxgLzkxZZ+o7OF//N6fcnahAJuiVCgIjUSteAGoqezk1EdqSODpfkDi6S3MFyGLItvZZGUHo7wbVvJzh394Pkdf+7bIW/IKuH5dCr3L+bo6OSZnd90NT0Z+aT6QE9NsMjeVrqwtNjmIFaACOdg6Kml7bwSMqgcgGolZmYnUspA2VtdIHoRQK11IW3SKBczgQni39msfLnRI/nWK3cOt0HIXAlBCgjtYJ1kZ2Kf6SYy74tffIsLDxyHNInzkA+Psvav+l3dQSEBifIuKW3czs03LQHlM7ACMjKa2xt3t8RbtcHAS0Se2/RMP+0MLvQpCWmBZQxKG3hxUCLJaCAhsLoh6dRBur6RKQKz7Iopsm28BqdTExzyUx4KQtlbWzQOdH6D3kz/3FXWxvVQFVhmOmSV44AEakyMTMTCb+qGb/OXpzoRakDlDzIjU1BMZMtGbHS74oI8LLIUvxsS++GXeAY3Jq3NDX8s+z3/DVBtr4IZC4l/MAXb+TB+D+FZHors3MJxSCHJCoUBT2GhsJIoNAPLw9mgfzw1jciVTo72rmIFhAUBSyNLtYwslRIjorkUsBtWpsaJnhFmZDmEs/kBgb0Kr1TumxCYFUIEJEqAzYmdxCKfzg/v/C29PA5Hrf0MqfPgz49C6ZK74yrQchZBLR7AKWnA1x7d4Jr7wCIbb7DSpvvKRzHURqvjLW3miGZiYkAL8jPMXXt1UZWvZ0RqHAc1En0w4uXMlAz848bCuOHAG3hrQbq2j4Gt/Asi354LicjUKKvFRTswCsZCoO1uXFGkKWv8iL/GdHrPV7bgNDdEQJXRoCIVBkrIzsVuxl0/Wu5S5MdyUOlbBRujTC5A2oFv8rK4lgNhdTuA+fQDnBhgfnWbjBlea+dhDfLWHWrG5ILRV8HBePeQjKzOz83Z1OnFu1cQjHQUUxzMQNVzGlgFg2Aorm6E9FRtYsAakFZLayI3OKyg7VlSY0c/fCwkNwDluZGECzSuyyS5bcWv/t3HMdRy3Ltrgi6s2UQICK1DEDm178u6Lcc/Gt1eu79qeOnYeF3RyE3Mgb5uYWSpg79rogAL4rMBsa2rRsaDuwCx9AOkJoaXy51+L5GkFUegdxE/CAnwH/l0ymnHp8V9MUuPCT8bAtvGu1cMkzGgHwgK49/rcyIReTYiYcyBqgFxSQMgr6SInmbF6SWZuAU+cfAGW+U/f4pjuOKtXLvdB+EwGoRICK1DHLqZLyvmNdGMiNjsHDoBKQeOwF6JMG0dSgbdRXwBJ7VUihoA7N3AFz7hvCFfIyzwgttbW1Tq12sdNzvIzAzOuqy21w3QqHwlkJO+x+oPK5HE6BOhEuK5LiFNz0HhVSm5IdHxJ+W0JUQwAyUpaRGbnWV/PBQC0pq9zM/PDnoxf9bQnDYL5oc9xe2oPchApIQIAQeR4CI1HJEKhT7mRZNPD159BQzJs6NjjGjVvqjdHXgeLvC2qEdg1uh4YbdKHsQs7oaXi+3ub9PD9/aETDDYZtuWl9UyKvPMFX93vz0HLNwYVIGbAsvAfr0HBipNBRRjRxroGgLeu3A19oMPA/AcSCgH57TjvVOJSkDJE/tAUagRHdLnlek7wqS+DXR5/4e1TbW2iKg+6kEAkSkroFiLhR/nanrn02fGoHkI8cgdQzFN6fZHycqzr0ycFhbYWltAvvWLeA6UNKMElubfyALvpdyAS5biUVbz3NkQvE9vFn8eCGd3VaYW2jG7jsVVcgno0wYtrSFt0Sg0FCYaqDqeb1c8d6X/PBQC4oRqAYQva2seNzW08mEcyVvK/CK8rDVavlLlS+OkJgmrSJC4OoIEJG6CjamafJqOP6QOhm+KfXYKUgeOg7ZC+NgpDJUY3K19YRft047yF1BcO4ZgIb9QyBv6UjaOgOtVIy6+tcQrkUYi7s1mXuomFN79MQsaJEY5CYioIeRSMUgPzPHDIVpC2/1ONfFkbiFh514NgWs7iawosZbdzvLQCndbSB5Wky+wZUQeO4tkt/zjbrAhG6SEFgjAkSkrgKgHk7cp6dSH8icuSCj3AGKcKIXGctG0e/JCHDAaiywtsIx0AeuG3aBc6APLI2Nb5cD7n8hyFaOwC9+8QvLzf1Dtxc17Q5T0/9cn53jmR8eE9NctHOZngUjmS7V7OULYNIW3sqBroMjOJQysFqZIjmrgWptZjVQkt8Ntq3d+L+bFpfzsEWRjog+95vqABK6RUKgYggQkboClLlotBu04hfUqchTk0eGIfnocSa+iX+wyHfsKlt6S5pR3e1M6gAzUpLf8xVbV/CVFVutdTIRGgprkfizigXzjqKae0thPmnFGijmh4daULiFl5iFwkIKitkcFPMFAIOap+pkeaz8NjkOeFkqqZG3NIHcGQSlKwjKlg7mj2dtaghxFstnQDA/pwQCEys/AR1BCNQ3AkSkrhB/NZp4YWFu4T9TwyP8wsNHIXNqlP3hYv5jJFx4hWzUomZUmxccQ9ug4YY9YOvtTHOK/Cxbm+/h+n7EVnb3pmmKWjj+QyOXG8jPJb16bJpj5GkqCmo49gQCpUIRu/AoA7UygOtxNG65O2xg9bSAc2g7NNyyD0RPMysu56zWLwmC9QOiv+UCbb/X4+Kge64EAkSk/gBFVDFXp6JabmxKQOHNhUePgXopDEYmQ1/9V1lxWHNh9baAfdsW5qXnGNhqWFoa32Vr93+4Eou01ufANbcwseBSLNrHjYLx8nxiBrTYNGhTYVb/pKEWFMoYYA0UWhLRFl6tL4nK3t9i7SJmnxpu3gvuFz3TFGy2hFWx/C+rx/Obyp6MZiME6g8BIlJ/EHM1FHtHfiH1/6VOnGHim5nhESjML0BRy1M26krPB8cxzajLBeY37AIp6DspSPxdcjB4rv4eqZXdcTYUuxWM4k2mnn9XIZlsUSNx0JmdC9ZAxQALywvzSShmckxyg7aWV4YvjYaSxIHTzrbxGp+6H9wvfEaCE6x/bO/t+E/ChxAgBNaOABGpJ2CYi853Qz53Pnt+nF84dBxSh9AKBrNROdpCucpa4xWZtUsvaUbZ+ntBdDn+SPJ7vr725Vm7M2iRyACYwqsK2ezLCslMlx5LlAyFJ8JMVFOPzzAChWuPbSnjFh5tK9fugljPO3sikbrtBnC/4OlxjoM32Pu2fHc9T0tzEwL1ggARqSdEWgsnvqLPzb88heKbaEyMtVHzSTDxDxn9noQAa6NudIFtaxeTOkBTYinoHZb8nl1kHXH1BaOGE/9i6vpd+uycV5+es2iTYVBRBwozUPFptoVnYBG5qpV0oIhA0dO3FgSWiJS3FZpuuxFan/+0OMcJr7f3dX5vLdPSsYQAIVBCgIjU4kpYNCb+YvbSZG/y4WOQfGyYZQiMdBqANA2f/LxgJ5BNAanDD65dO8B1w26w93SkbL2dLnq4fh8B1IFKRSLNoim81DSMf8zPLSh6bAaYmCaqkU9GAe1dCnMLYGANFG7hoRo5/QiBSiCwRKT8bmh+2o3Q+pzb4mAR7rX3dJLTQCXwpTnqHgEiUgBghk2bZsY+qE/PvTV19DQrMM+cvcj+sJEVzJWfEU4UWeePDQvMb9gNzqFtptDo+gtbR4A0o54AmRqLbYEC3GHk1Nca2dx+3LbTIomSjAHaucSnIT+XBCONBIoMhev+jbweACwSKSngYRmpluccjBc5817X1h4iUuuBN81ZdwgQkQIALTIzYOQyD2RGL/mSh04AdusxY+JMliw2rvRI8IsF5p1BcOGW3r5B9Nb7ESdyb7C1t4fq7im6wg0np6ZarLzljWZOe14hk7s1H59h8gWXi8hjM5Cfm2c1UCb64aEOFG3h0dJZDwSWiFTQC0233QCtd9wWA5O717616wfrcTqakxCoNwSISAFALhT7cj4x80pmTPy7I5AdGWedethmTr8nI3C5wHxgK2untm3tygoOx7ts7b5/JbwA/RhfZOTz/9dYSLn06VlJncAOvGhpCy+egPwsZqAyYKoaEShaMOuPwJJ1U5sPGg8eKBEpnnudvafrh+t/cjoDIVD7CNQ9kcpOTgahwE1lzp6HhUeOl7JRMbSCwUJfUot+0iPA80zIT9naBY037ALH7n6QfO4fKu3+59f+43L1OzQnJ5s1UzhgmvApI5Pt1OLTbOsOrVzUqShbU3msgUJDYY228Op5rVz3e18iUu1+aHzqAWh9zsEYmMXX2bf1EJG67sGgE9YiAnVPpNRw/NdaNPHU1JFhmH/kGGTPjYGRTFE26kqrHV/IiwXmziEsMN8F9q3dpmCz75J8zSdr8QFZ7p4SZxNOp8t8bVHVnmrk1DuxaBwtXLSJCKihRQI1M8cyUMWcDmahQFt4y4FK/15ZBJaIVEeA6Ui1PvsgZqRea+/t+lFlT0SzEQL1iUBdEyktGv8jI6ffnzlznhkTo+wBFgIzY2KqV3nSE7FkeMoKzG/aA87BbWh2+ia5zfupent8zMOHrflgx6uMfOFlhXTm2fnp+dL2HVq5oBJ5fAbyM/NgpNIsu2kaBaq3q7dFslnud4lIdSKROoBEKipwwmvl3vYfb5ZLpOsgBKoZgbomUmo4/o1cOHZn+rFhWHjkKOQuTDARRGo9v8KS5nmmjqx0tTFD4oYDQ6hmHlFs4lbO40lX80Ow0mtPhsOtYlE4X0ghNwoLAAAgAElEQVSnbfnpOetSETlKGeiROBRmF6CAW3hYA4UyBkTKVwoxja8kAktEqisITU89AC3PekrUNOC1ju3dRKQqiTPNVbcI1C2R0qKJlxXS2U9lzl5wodxB6tgZ1qlXzObqdjFc68bRPR4VzO3be6Hxlr0oe5C2Ol13yh3en9QDYNFo1N5icLsKRvEDRVW7TU9MgxYuyRggkUJbF8xAlQiUWtrCQzFN+hECG43AZSLVBk0HD0DL058SNXnzNY6+7rp4djcafjp/7SNQl0RqbmysURakj2vRxCuYbtTDRyF7YRyMhRRlo66w5jmBB0tTAyg9HSW5g70DYPW2/pdNbnwD53cmavkxQTFNNZx4rWkYe4rZ7BvyswsiKpCjmGYOi8gjcchPz4GRyoCBMgbY6UlNCrW8JKrv3haJlNLdzrr2Wp5xa1QA/h65r+O/q+9m6IoJgc2HQF0SKTUU2mZk88czZy5IuKXHslHxGaqNusr65O0K6kSBc2g7uG7aDbaezijvsN9pC3of2nxLunJXlIskbuMM4y+NTOZp+mzSoUdioIZioI6HmJCmnpiDAjYm5DQoEoGqHPA0U2URWCJSW9qh6eAN0Pz0W6ImFO9x9G0hIlVZpGm2OkWgLolUbjI6qkXjvWgDs/DwEcien2BFwUC2HE96DDiLwLJR9h294DqwC5x7doDobX1UCXhvrMVnxjRNfCY4LZI4ZKjqXhTS1GIzoE5MsUJyLRyHwvQs5HELL6uBmc9TDVQtLoRauqcnEqmn3QTNt98UMYvcPY6tnT+tpdukeyEENgqBuiNSemT6QCGbfTR1aoRt6eHWXj4xWzKIpaLg31+H+AJ22EDqCIBzdz/TjVJ6O2eVzqC71kyJzV/8wpLt2b6HKxZfYxYK9+Zn5iQmY4BdeIxAxSA/MweFhRRTI4dCoSSmST9CYLMjcCUixXF3O3o6H9jsl07XRwhUAwJ1RaQw26CF48fVUHRn8vBJSD56nNVGFRbSAAaZxP7hguVFESyeZrBvR7mDveAY6AOx2fUmuS1QU3IH+UjiNsMwXlTIZO8qLKTatEgc8D91IsxqoPTEbKmIPKuWDIVprVTDu42ucQmBJxCp5ttvhqaDN0Z4gfv/2XsP8Liu6953nX6mo0wHQADsTSQlkeqCJEtyt9wSX8d28tJzE9/45cWJ83zLu0qP/eLkOrGTGydxjeOSuFuJLduRJUtiRweIRqIPOjC9z5z7rX1mQIAkRKGfmVn8Pn3JvcGcs/dvrwH/XGvt//pZ077GHxEkIkAENk+gooRUcnL2N/PJ5EciPQMm9I2KYm8UczFPbp5kmT0BG8wFuxXUxjqw3XWc2R0o9d7vmG2m93IuV6QctpsIBPbwmvh0Nh5/MhMM12MsoIUB84GamgM018QMFAoodCNnGUvKWpbD0VfWHlYKqcfvh+qH7p3SBO5nrSSkKisOaLfbRqBihFRPT4+8t8r5mdTE9HvCrV0QOtsGieFx9hclUInmpgDjFQVkvwusRw+AHbNRR/ZlJLv955Q615e3LRp34MHaV78qwKOPmtJp7f/JZbN/kFlYhPTsIiTHJ9ksPBzrkp5fhOxSGHIsA5WmW3g7cC70im0ksEpIPQDVD98b4DntZ037m/5jG99KjyYCFUOgYoRUKjDzzkw0/vn4latm5hvVcQXS05SNumWk4zy9WgeY9i7bHWiyx/llkwi/xDU0lKzRViowfySXzbxRy2Q+mAtFfEnsgUIrg4kp1guFAioTjEA+GmdN5GTMWjG/B8t7oyuEVO0TD0LVQ2cCPCe+z7S//rny3jjtjgjsDIGKEFLa7Kw1kch+Jj0991M4BiZ4thUS18b1mXp0U+/mbBSzO3CD7eRRsJ+5A2/sLclm89sln+v5nQnLrX1LYmqpiYPMb+disfuy4fgZFNCsB2p8kv1PtL7QM1AJ0HCgMMXE1h4APW13CawUUk8+BFUPng7wHLzPtL+JhNTungy9vUwIVISQio3N+bl0fCTaOyiFzrZCuOMKZGbppt6tYpiTRBCr7KzBHM038bae6vd+U/G73l5qMY9u5NWa8Lu5ZPLns6HInvTcAsfKd+NTbC5eanYRssEQu4XHbm2iEzn1QJXaMdN6b0cAhZTdAmjIWfvah6DqfhRS2ntNB5p/fLuP0v+dCBCB2xOoCCGVGJ/uSk3PHg9f7oLwuXaIDY2Sb9QtVRQHggXtDrxgO3EUHPedAsvB5qipsc52+1Ayxk+gE3lkaqpGznFntLz2b5lgiJXsUmNTeiM59kDNzusZqGhcbyKnW3jGODxaxfYQWCmkXvcwVN9/epIT+feamhtKMsO8PZDoqURg4wTKXkglArMPaanUTyLd/UxEoW8UczEn36ibooaTZZBc1SiewH7vKbDdcQjk6qr/rDaWht1BbGTOJ4j5t+VSqd/Ix+LHkzPzzL4Ab+GxJvLZecgshSAXieslvFwWgMbhbfy3B32yNAisEFLO1z0MjvvvnsyD9l7bgWYSUqVxgrRKgxMoeyGVDMy+kArMPBxC36jz7RAfGmVjPcjF/IbI5HkQbBbd7uDOo+A4cxLUBv/3c2bxfXa/f97IcaxNT1syeeEPM8nEsVw0/trM3ALLPDEzzWIGajEIWWwiL/ZAUQnPyEdKa9tKAquEVAs47r9rktf495gO7nlhK19DzyIClUqgrIVUIjD9nnwy/TfR3iEHiiiWjZqeI9+oW0Q7r8o4iJiNgnHccwosxw9oot32AVO995Mcxxkyb4NlvPTUwnvy2eyfZUIhb2Z+ScBhwljCS40FIDW3CJnFEOSiMT0DiSU8Q+6kUn/90L53hMBKIfX6R8Bx752TvMj/jGnvnp/syPvpJUSgzAmUrZDShofVpGz6ZHp67hfDrT0QerkV4tdGIRekm3o31/Q4EKvtYGqs0+fp3X0M1D113zQ1+N7NcVzKSN8BDYCD6WlXJiU05LjMi7lITE3NLbAZeOhEzuwMpuYguxSCbDQK+WRazz5SBspIx0hr2UkCNwipqvvumsjmc++xH9pLQmonz4HeVbYEylZIJQKBlnw8/ZX4wIg3iDP1OnohHShko+gv1VUBzZtUkL1OsN5xGOyn78DeqBRvtf6iye/6ZyNFvjY4qGQsVT+XTSb/Uy6ZfCwzu8AnA7PMB4qV8KbnChmoKOQTKd3GgM7aSEdIa9kNAiuF1BswI3XXBM/Dz5j2Nb64G8uhdxKBciNQlkJKu3RJSnnrP5qamf8tLOcFz15mvVF6Nipbbme4uf2IAogOG5j3N4Ht7uNgv+sYmBrrn1f97kc39+Ct+zSbkTg9/zuQyT6ciURel5kPyqyEh1mo8YDeRL4QhFxEL+GxM0YrA/pDBIgAABNSVjA114PzDY+C495TExzHvdu8v/ElwkMEiMDmCZSnkEIDzlhqMdZ/TULzzWhbD6SmCi7mlKFYnY0y6+ab1hOHsHeCjYQxqYKF8/vjmw+vzT8hHZi7O5fLfSUfi+1Jzi5K7BYe9kCNByA1PQfZxRBkwjHQUik2UJj+EAEicAOBZSHVAE6WkTo1kctl320/vJ+EFAULEdgCAmUppJKBmb9Jzy7+eri1G0LnWiHWPwy5UAS0DGWjVsYMM9+sdoBpfyM47jmpm2+6az+qNtb93hbE1oYfERofrzHxSmM+n/10Np48hXYVWLZLjAUgzXqgZlkGKhvGHijKQG0YNH2wMgiszEi98TGouufUOHDau837m16uDAC0SyKwvQTKTkglpqaaIKMNR/uuQgh9oy53swbkfCJJ/TKrVFTBfLPeC9Y7DjHzTdO+xiuiw/yU6nYPbW/Yrf301NTCu3LJ+FtzidTbskshcxIdyCdmAEt56ak5SC8uQS4c0wcKsxJefreWSu8lAqVBYKWQetNj4DhzapwD7T+ZDzSdLY0N0CqJgLEJlJ2QSgXmvphaXHxP+FI3hM+3QezKNTYGhLJRqwMRs1GSswbMB5v0kt6JQyDX1v6xOjvx+9zp0zteI0tOTL8ZgP/1bCR8b2YxVItZJxTAeBMPZ+OlF5YgF4pCLpnUz5IElLF/s9DqjENghZByvekxsKOQEoV3mZvrzxlnkbQSIlC6BMpKSMUnJur5vPC96NDIMTZT73I3pCenIBdNlO4JbdPKBZsVlHoP2O86zmbqmQ80nc9b5LdZ3e7pbXrlLR8bmZ52S3nhi7l4/PHUzDyXmVuExNgku4mHQmq5hIe38HCcC/0hAkRgfQRQSDmsYGpqAF1I3THOAbzLfKCZhNT6SNJPE4FbEigbIaU9rfGpX5n7k8xS8PcibT2srBftG2LNyNSEfEM2SpZActXo5ptn2GBiTap2/Lla5/nQTnxP0Ik8ntaO8pr2S7l0+tcy84ss68RGuQT023iZ+SW9ByqeoAzUThxKqb+D54ETeOAVGbRcHvKZDBmwFs90RbM5CinHPSfGIK+9y3yw+XypHzutnwgYgUDZCKnQ+OwBKZf+fGJ4/L7QxU4IX+hkWQ0cTEteQitCrTgKZo+/kI06DpaD+yJKndu1E+abiampxyCd/5lcPPmWbDjqxd4nLOOxm3jYAzW3CLlwFHJMQOFfhtQDZYRfFIZdA4onSQJOkUGwmICXZTaIGsdA5ePUF8nObaWQevNr0CtujBOEnzbvbbhg2HOlhRGBEiJQNkIqOh54vRaO/Vuk8wqHLuax3iHILAYpG3VDMOJfOJKzGqzHD7JRMNaTh0GwWu8zN3i39V+nqenF41o++2e5WOxEZjHUgNYFqUndB4rdwptfhGwoArlEUj8zElAl9GtkF5ZayD7xigK8xQSi3cp6/rKhMBNQ6Zl55itG/4gqCKliae8trwH73XeMZfP5n3Yc2ktCahdCl15ZfgTKRkjFx6Ymk8Pj/tClTghd6GCz1nKxOP2FvDJmBQFENpjYj79MmYu52lQ/aG6sO7gdoa19VRPgiSVrKpH9w3wq+ZtpLOHNLuriic3Em9ZLeMEIu1WJmQT6i287TqKMnslxwJtNgLMhBYsZpNoqUOt8IDoswEkSM97NLCyxkUG5SJSMWW/ISLnf8jiOgBoDPv9Tln37LpZRZNBWiMCuESgLIRWbmjoD4cSFSGcfBF9uhWhXv56NoubkVYHFqQrInlpmuum49xRYjx2I8Q7768x1ni015uvp6ZGbqt138JnMa/PZ7J/gWaAPVBLLeJMzrIk8PbfABBQr4aWzej8L/SECtyLAcaz/iVMUEMwmEKusINVUgex1geyuBdntYqaymOUMX+yA5OgkCamVHDkORIcVVGw2f8vj4Dh9fFTj+J+y7NtziQKOCBCBzRMoCyGVnJodSgyP78NMFPZGJYbH9d4ouiJ/PUJ4HsQqOxsTYdcbzMHU6P9qRuTeb/f75zcfSvoTkuPj+4GTfzcTjz2WD8cOJKdmmYkmZp+whIfmmmiOmoslIM9KeCSgtop9OT6Hk2XgRAEEmwWkageINQ5QvE5QfB6QPU4wNdVjljUHHJ+I9vabwhe7hFjfVRZr6DdGvwP00h6OgVKb6sH11OPguJuEVDl+V2hPu0eg5IVUcnLuLfl08tvhth4In++ASMcV9pc1ZaNWBxVmoxSvCyzYG3XmBFiPH1oU7ObfNPm9WzKYODI07ZYt/F/l4sl7M8FQEzaOJzHzhCU8HCg8twjZpRDrX2ECKo8DhXcv8OnNxiaAPmd4A483qyDVVrPME/b2qfV+UOo8oPjcINU4sJx3lufFX84sBV8bGxr+/6IdfdU4oBzjDy8tkJBaLaTcTz0BtruOjQLHvdOyv/GysaOAVkcESoNASQspTdOE1NTcD5KTU49hJip4vg2S18aZcaNG2ajV2ahqO5j37QH7GX0UjKmp/jnV737NZsJU++pXhdgjjzjFbP6d+XTuk5mlEGvyZT1QgVndjRwHCi/hDSos4aXZ1XT6QwRuSYDjAPBWqdUE2ESO5Tss2eEYI7Xex3r7ZGcNqD7PkgbaecjBb6oNugt/qKf/DanhyX+ItPf6I+0kpFbxXZGRKgopCeAd8oGmVopEIkAENk+gpIVUYmL68Xwy+enYlat7Qufa9GzU1Bybv0Z/CgTw7ybsjfK69VEwp7GsdwR4k/J61e/5/kY4aZrGxyZmj4uQb8lnsn+eCYUVzABg7xMTTyiimIAKQz4Wh3wKM1B5aiTfCOxK+Az2QIkCYNZUtJqZcJLdTpZBVXwuUBvqWG+fWGXv4GSxVxC5j8pud/tKNNGO/scT0zOfCV/sbCAhdUPQ3CCk7HcfG9E0eKeFhFQlfLtojztAoGSFlKZpYnJy5n+mZ+b/OzqYB8+1QWJoFHLBMGjUd7McOqy/xG4D0/494DhzknlHqQ3+76p17rdsJL6Co8FqRUz9RT6ZPJUNR0/pAgrHuUyz/4kZKSzhYQ/UcgZKoxreRliX/WdQQEkS8JLInLcxA6XfwvOC7PewLBSW8ASLaZZX5D/J5uF5S52rk+O4m9Kakc4rj6TmFj8XOtvWiEIKDV7RToNKezeU9t76BNjvYkLqHZYDTW1lH2O0QSKwAwRKVkhFJ2ZO8pn0j2J912pD59sg0tbL/iKn4cQrogaviptUkH0usJ04Ao4zd4Dl6AEwO8w+bp2jYLTxcVNKVD+WT2eeygZDdWwWHmsgn4fUlC6issEwa/InV+kd+OaW+Cs4UcSsKLMykN01ILvw9l0tqHv8oNR7QfF7QbSY0pwkvSOXgbZnzj038653vWvNmwlLnb0t+cXw50IvXW4Kt/VCemaO3QolIXWzkLLddWxEEsS3y831q7J6JR5StHwisGsESlZIpcYD70gthr8WbutmlgeJgWHILoVBy2Z3DabhXiwK7KaeeW8D2O85BbY7j4FS5/4rU73vgxzH3RYUlvCSU1MNfFY7lcvD13OhCJ+aQRNN/Qaebqo5szoDlaVbeIaLA6MsCHugBJ75P6HAZ9knn5vdxMPbd5iBkn2uvFTluAoa903F7/yvryZOcXvhnv6HsvOhLwRfvtQUbu0pZEbDJKQQDpb2qmygNtaD+61PYo/kiAba260Hm0lIGeW7QesoaQIlK6TiI5Oz8aERV+h8O4QvdbH+HGxohjyVkVhEFrNR/kI26p5TYN7fOKM4bD8t+d0/uV3UJifmDua13Oshm/kwjnJhs/CwBwr/QxuDmXlmpslsDNCvC8upVMK7HdbK/L+zEp7IevV0G4MqPQvlc4Na58FSM/ZA5USb9WVOlC4pAefvcae5zHpghbv7HswGo18IvnipOXy5CzKzC/qcTbp0slpIve1JsJ08OqJp+bdZD+3tWA9j+lkiQARuTaAkhVQiMPOzuWDk8+HWbkAhFe0eYGUlGk684pAxG4U39fY36aNgjh8EdY/vC9Go+H7XYVdkrS/E+Pi4yc3Lf59NpQ/mwtHTqek5LjU1s5x9QmPNzGKIlfDQYoL1o5GAot8vtyKAYl4SAb2gWA9UbTXLQplY5smN8QiKx4XlvVlBkd6v8XKb6qm6uhGY4c7B+3OJ6D8Fn7+wF/9hhRYo2YUgCamVGakmPSNlP3V0OC8Ib7PubejcCGv6DBEgAqsJlKiQmp1LDI04WTbqYickRgPsdhj9hX79cJd7o04eYS7m5oN7FySb7VcUv/Mbt/oSaM89J6YPH/+vuUz2A/lItCYxPsWx7BPevkNX8rEpQHsDJqDSGSqh0m+SVySwnIGymtkMPMXjBMlVyywMsJkcvaBEiyUkiMI7RZm/xNXUhDaDNNQzcG8+nvxi8Plz+9AKhYTUCporS3uYkTp1dFjkhbcq+xq6NsOcPksEiIBOoOSEVHJy7ql8Iv6VcGu3GjrfAdGuPmb2SNmo6yHNCQIIVTYwH2wGx5lTYDm2H0zNDS+Z6jwPrQx8TdM4mA01Z3NpfzaT/X42EjEn8QbexDQb6YIeUNgDhXzZMGHMQGVu21pF361KJVCwMUATTTYHD32gsAfKWQPmpjpQ/B6Qvc6MVOXo0QC+Z/K7P7xVqGJ9V09n4okvBZ87ux8nHOBMx+zCEvmWrcxIYY9UQUhpfO6t1n37SEhtVQDScyqaQEkJKcyapA4c+XpifOotmIkKXWhn42DyaMBJ5aWCNOZYL4rkc4H9xBGw4029w/tBtFtW+UbFx8freEF9l5ZO/3ImFD7KjDRRNGEDeaEHCgUU9p3lEindiZz6zyr6l8Wam+fRB6rQA2VHGwMHu4WH/U/MxgB7oFzVWdFmfRFE8Yeqz/Wnt7Iw2AzcWM/gndl0+stLz507iJlq5qQ/v0hCallI2UFtqtObzU8eHc7z/FO2/Xu6N8OcPksEiEAJZqSSgdnX56Lxf4j2Dtah5UG0s4/5xZAB54pwRt8oqwVM+/awkp7t+CGcrzdh2uNvwJ/SLl2S0v49/5BLpw9lgxHsgRKYieb8kj4TL6DfwstGYtd7oEhA0e+LWxEo9kApMgg2K4qlwhgXH3MkV3Cci8eJ2alhTpB/TePTgyafb2Q7YEb7rp3IJmJfDf74wqHQORJSqxiz0p4d1MY6lpGynzp2TQB4SjnQ2LMdZ0HPJAKVRqCkMlLJ8dn/kpqZ+Wu8lYNO5vGhUfKKuSFieVUF2e8G24lDrMlc3dsAklVuVpuaxlKBuV8HLf+RbCRmSQyPQXJqjt28y8zOQ3JkAtLYRB6Ls/IdlUor7VfB+vaLRq/Yh8dKeO5aUNwFH6imen0WXp0PfaDmALSfVXzuH71aG4P1reL6T0d6Bo/lU6l/WXrhwhH83ZCZW4LM3AJlpG6VkTp19FoeuKdsJKQ2Gm70OSKw+t8qpcIjEVjcoyWiP4j1XzuIJT0y4LzFyaFHj83CSimO+/Cm3iH2vwsW5ee0bP7vsqGoKYnZp5l5SGP5bm6R2RmgeWE+mWaZPQ19oKhMWipfi51dZ7EHyqQCbzWDXFvNxriglYG6px6Ueg8obmdSsFs7gOd/ZPK7/9tOLTDcd+2Qloh/LfjCxWM45SAzu0hCqgi/mJEqlvZ0IfUW24HG3p06H3oPEShnAiWTkUqNz7wztbj4r5G2HgidbYNY/zUy4LwhMjlZYtkBy+F9UPXg3WBqrAPRYWNZu8xScLlxHIUUjnZJzy9CPpaAHPpvoXgiz51y/q5vfG9MQBV7oCzMwkB21YBa52PZT7XBhz1RedFmeZETxa8rIvwj53ZHN/7C9X8yODi4DyLpb4RevHhH8GwrZOYWmZcUDckGAH5FaU835LwmSvBmpanpyvpJ0yeIABG4kUDJCKnEWGA0PjSyB/sfsLSH7trMgJOyJ8tnKmCWoM4LjntOguXofjbHDBnhVfBcNAaYjcIbeSissuEIaOmsbmNADOk3w60IFIw00QdKRCNNF45yQQGl2xewUS5eFwgm04gmCu81cdIE568Z2w2YS73XGrlk/Fuhly6fDJ1tZTFPQqpwEjcKqZOYkYI32w6SkNqNWKV3lh+BkhBSieGpplw6MYwGnOHz7RDp7NddizPrMj8uv9NbuSOOY42+zPLgvjtZBiG7FIRcMsXKeMnxKUgvBJmwoh6o8g6FrdjdcgYKfaBQQHn0Ep4JbQzqvKD6PXnBapnLa/B/m+vcX9mKd27mGfH+8bpULPjdyMutp5ZeLmSkZuYpI4VQbxBS9lPHrgr5/JuVQ819m2FOnyUCREAnUBpCanKmLzk6wW7joGtx4toYa4qm6/jXwxgNEMWaKjDv28P+osOTxfIGzsMr+mzhQGfqgaKv/poEVpbwbAUfKK8TZK8L1IY61gMlO2tSosN2gRP4C6rf8ztGoTnbM+yVk9Fnwmfb7sLSHstIkZDSjweFVLVDv7X31BNY2ruay2tvtpOQMkr40jpKnIDhhVR8evrefCz179H2vuowNpmj5QH+gsT5bvRnmQCnyCDarSC7a9lsrXw6A9lQGHLxJGgooNDCgHqgKGJuRWBZQOk2Bss9UFi682MJzwcy2hiYTedEWf6MBMrXOb993kgwtUDAGZpe/Pfw2dbTOMSchNSK07mVkBLyb7Lv3dtvpDOktRCBUiVgeCGVDMz8bTIw86uRi108ekfFh8bYXD3q61kdciikeFkE3mRibHQbgxz1QJXqN3OH1o19dLwiFQRUNQ4PZm7kar2v0APlBNFqGecV4amsIMyba2sndmhp63pNqKenRkvlvxc+135mWUhNz1Fpb42MlMDn3qju2zewLsj0w0SACNySgKGFVGJ6ulmLpT8X7bv6cPhCB0TaeyEVmNWbzOnPDUqKAyzvsT+aRqNcKD7WJsABcALewpOZeavorCrYGNSCqRF9oFgTeVZ02APAwx+rXtenjI5TG1ywh8NTz4bOt90bPNvGstY4I5Ju7d1c2rOfOjaUzWbfZD9CQsrocU3rKw0CxhZSk1O/kJkLfhoFVPDlyxAfHIbMYggAvY7oDxEgAusjUPSBUhUQsAequhpn34HiczEXchV7oFw1adFue5kThEtqned31/eC3ftpbXraEpqc+2H4fPt9zEdqep6NOyIhdV1IoR2KS++RGsrywhsd+xoGd+/E6M1EoHwIGFZILQwu2E1i/LOJ4Ym3owEnNpnjzTP0PaKyXvkEIO1kBwhwHAA6kRf66HCYMN7Ew/IdzsNjNgZuF/AWUzsni3+h5YT/MDc4J3dgZVv2iuHhYbVqKfqjyLn2B9iImILpLAmpopCqYjcuXW95nAkpgRPeoO5vGNqyA6AHEYEKJmBYIRUfn6/LR4MjkY4rIt7CifUMQmY+SJYHFRystPX1E8ByL/bPYQlPRiNNt5PNwVP3+PUSnscJvMU8Azz3VD4rjFmb3dPrf8vuf0LTNDHc2vNc6HzbQ6HzHSwbhbYfJKRWCCmWkdKFVJbLvsGxfz8Jqd0PXVpBGRAwsJCa+kRqLPD+0MUOCF/shMTwOOQiaHmQLwPstAUisI0EMAMlFDJQVjOIKKC8LiaasLyDAkp212al6qrhPMA/muvcH9nG1ezIozVN48OtPT8OnW97OHShUx+BREJKZ33/qNcAACAASURBVI+39mqq2NljRsp+57HBtMa9oerAnqs7cjj0EiJQ5gQMKaS0QMCcSOVjkY5eCKEBZ/sVSM8sgJZKlflx0PaIwCYIFHugFL0HSqyuYrfwVGZh4GWlPMlVk5VslhdBls+Z/O4Pb+JthvqopmlcqK37x+Fz7S3hi12QmpqBdIAyUkUhheVc9JFCIWU9dWxQ1OD16sHGa4Y6RFoMEShRAoYUUsmpuY+kpmc/FL7QCZiRivcPM08kyFE2qkTjjJa9nQQKAgpHueDQ6lU+UGyciz7KRbSYx3hR+mBeyF0y+Xwj27mk3Xh28HLX8+Hz7S3hS936MO7ADJX2bpGRsp46MihI3OtMTU3Du3FO9E4iUG4EjCmkxqZ6o32DR7DXAcfCpHCuXiJZbuxpP0Rg8wQKTeQ4Z1GqrWaGrMwHao9ewlN86ANlDQPPvV21qm1cVdXS5l9qzCcsC6nLPZCanCYhVTymYmmvqR5cb8aM1OHBbI57XdVhElLGjGRaVakRMJyQSgXm35daWvxE5HKPA72jYleGIDO/pBtL0h8iQASYcz0n8OwWHo8CqqbYA+UCdY8P1HovSK7anFxT3QMc/321zvWhSsC2LKRae9hwbspIFU6d50CqqQYVb+29GXukjgxwGe11piPNZZeVrIQ4pz0aj4ChhJSmaVJyfOpvEyMTvxS61AXhix2QHJmEXCRGlgfGix1a0U4TYAJK0G/hMR8ovIVXC0qdB1TMPtV7cZRLXjCbz4Ei/dhc5/nvHMdpO73M3XpfUUhFWnsgSULq+jGgkKqt1nukikKKl19r2usf3a2zovcSgXIiYCghFZ+ZuT+/FPtirGegGU31ot39kJ6eBy2dKSfmtBcisD4C+C0t3MJDGwOpxqELKL+nMMrFA7LHDYLVFBYk6b2g8X1qg7virrYvC6m2XuY5RxmpFRmp2mrmI+V8E5b2jgwImfxrTUf3kpBa3zeRfpoI3JKAoYRUajzwjsT0/Ncil7sgeK4dEkOjkA1HqMmcgrdiCXA8Dxw6kVtMzMYAjTOx74n1QGEGyusEyWFPagL/vplU/Jnm5uaKbSZcFlLtVyA5FiAhVfzW8DzLSOlC6jXYIzUg8PknTfv2jVXsF4s2TgS2kIBhhFQgEDBXJbLfjw1cewgtD8KtPcwHJp9IUVlvCw+cHlUCBJgPlN4DJViwBwozUE6QfS5QG7AHyocZqbxYZW/jJbFV8bl/neO4ip+btCykOq5AcpSE1HKkF0t72Gz+ptdgj1Q/gPSkeX/deAl8G2iJRMDwBAwjpLTp6eboXPhauLULQthk3jME2aUQNZkbPoRogVtGYKWAwibyahzlUq33P9WhDxRmoFyaYDW1i4r6zUQ2+ddVjY1lewtvvVyvC6k+SI5OUkZqOSNV6JFaKaQS2SfNd+wnIbXeIKOfJwK3IGAYIZWYnHk+cXW0hWWjLnVBYmSC5upRyFYOAbQxQB8oq0k30nTXLPdA6QLKCZLdluR4/m3AS8NKnXOwkhrJX00gFIVUtLMPEiMkpG7MSJma68H5xteA9eSRfp4TnzAfqJ94NVzpZ4gAEXhlAoYQUjjeITE8mQtf7mIGnJHOPsjMUJM5BW8FEOA54FUVBLMJxBq7PgvP6wK10Q9qgx8kdy3I1Y4kJ4gfUvyuT3IcR660a4TFspDq6ofE8ARlpJYzUoUeqea660JKEx43H2ooqcHUFfDbgLZYogQMIaSSk7N/lpqe/T2WjbrYAbHBEcgFI9QbVaJBRcu+DYGVt/AsZhCrUEAVjDQbfIVhwrWaYLddFk2mwQXI/LLf748T11cmQEJqDT7YbO7EZnPMSD0G9lNH+iCfesJ86BAJKfpSEYEtILDrQkobHFQSkvlsrHfwztDFToi06WZ65GS+BadLjzAWgaKAkiVgNgZVdpx9p5fwGryg+NGJ3A2izTwoKMpn4hntS9XN5TfKZbsO5bqQGmBDzsn+oEC6IKRU7JEqCCktxz9uObwnsF1nQc8lApVEYNeFVGJy9heyi0t/GW7rcYTPt0P0ylXIzC+S5UElRWEl7BVv4bEeKDOIDjsbJoyiiQ0T3uPXb+VVO7KcIL0VFBhQXK5rVMZbX2CQkLpNRgp7pN6gZ6S0DLzGcrRpan2E6aeJABG4FYFdFVKsN2p06qPJsYkPhi92LjeZk5M5BWvZEOCLNgYmVsLDnicVBRTaGDT40IkcM1NBXlY/NZdPPt3Q0JAom73v8EaWhVT3ACSuUUZqGT9mpFyF0t4bHsNm875ENv4a19GjJKR2OEbpdeVJYFeFVGpq4WgmGPxSrHfwBPZHYZN5emYBtHS6PGnTriqGgD7KRdKbyKscILlrmIDCBnLZ70YbA5CqrO28ah7IpbQPWPd6ZioGzjZt9LqQGoTEtTEq7RU5F3ukChkp68nDfSDBY9bm5ultOgp6LBGoKAK7KqRiI+NvyM4H/y3c2g0opOIDI5ANhamsV1EhWGabxVEusgg8GmkWe6B8hR4o9IPyuUC02+d4WfxfPCd8V653d5GNwdbEwLKQ6hmExFUSUqsyUths3twAzjc8CrZTR65oQv4x6969JN63JvToKRVOYNeEFJb14sPj308Mjj4RuoBO5t2QGqcm8wqPx9LdfqGEx5tVEKtsILv0WXg4UNjUWM8yUnJNtcYLwm9qEjzTMzk5efr0aRoiuYUnTkJqDZjF0h4KqdfrQirPqY/a9ntntxA/PYoIVCyB3RNS09OWWDAWRfNN9I6Kdg1AdiFITuYVG4olunGchYejXExFAaXfwlPqiz1QtSigZjlF/kFOhA9aPVTC266TJiG1tpCSXTWAhpy1r38UhxZf0eLZR20n95OQ2q5gpOdWFIFdE1LJwNzHEiNjvx063wHhS52sOZSazCsq9kp6s6wHSpaAZaAcxQwUzsLz6zPx/B4Q7NZByWw5D5r0UaWhpqukN1wCi18WUr1DbOA52R8UDo1lpHQhhRkp68kjVzQu84jtwIG5EjhWWiIRMDyBXRNS8dHJfLS9l8O5epH2XkhNzYGWoiZzw0dMpS8QBZQkgmDBJnIbyM4a1jyu+n2goBcUNpFX21MgiX8hCeK3O6cnLlMJb2eCpiikYr1DECchdR06z4OekWqA2tc/gqW93lxefsR+yD+/MydDbyEC5U1gV4RUYnL2l7JLS/8QOtcOaMIZuzIE2cUQOZmXd6yV9u54Djj0gcIMlB0zUDUg13lA8bvB3NTA/sWP7tGCrPxNNg1/YGl2L3EcR/8y2MFTvy6krkJ8aIQyUkX2xYzU3gZwvq4opFKP2A8dIiG1g/FJrypfAjsupJ5++mn+9375P/8oPjD8KDaZo5M5zsXKx8g+p3zDrIR3hrPwFBl4VQEBjTSd1Uw8YQ+UCYcJ+zAD5ZgVrNaLHCd8WPFSCW+3TntZSF25CvFBElLL54AZKXchI/W6R7BHqjefFVvsR+oXduus6L1EoJwI7LiQik7MnoJI5EuRziuH0YQz2j0A6ek50DLZcuJKeyl1AsUSHstAWdktPNb7VO/ThZTfi71RU4LZ9CwnCl9W/e7vlfqWS339JKTWOMFiaW9vA9QWhFROFR52NDQslvqZ0/qJgBEI7LiQik9O/U5mcvZPQxe7xPClDogPjureUXnNCDxoDZVOQOCBE0Xg0UjTgQKqBhQvZqA8oNb7QfE6QXLWAIjSP/Ky+DkVspc5GihsiKghIfXqhJTt1NGebDra4jh2jISUISKXFlHqBHZUSGlLS1XxueD/ig+N/l9oeRBp66UBxaUeQWW0frQxwBIe3sLDficFDTRZDxT6QDmZqOIV+YfJTOKnry4sxKiJ3FiHvyyk+q4yc1+6tVc4H5aRqgXTvgaofW0LNpv3ZBLcw1UnGpeMdYK0GiJQmgR2VEjFJ6bvy4UiL0Vae3jsj4r2DEJ2YQm0bK406dGqS58A+kChE7mKNgZWdgsP3cexBwrNNNHGQKxyLIl2yyUA+HPV73m29Dddnju4LqSuQXxgmIRU8ZhZj1QtmLC0VxBSZlF7iGtuDpZnJNCuiMDOEthRIZUcmXx/YmLqE3hTDzNSyeEJyEVjVNbb2TOntyGBQgkPZ+EJNot+C8/rZD5Qeg+UB8RqR0g0mb7FS8Kzit/zRQJnbAIkpF6htLdCSFkxIxVdeqj6zjtJSBk7pGl1JUJgR4VUfHh8KtLV7w2jdxSOhEHvqDRNySiRWCmPZWIGShSARydyNNJ0VhcMNL2g7PGxfii84cSL8vc0SfjDVDreW03/ci+Jsy8KqXj/NYj1U0Zq+dBuykgd7U7x2Ydq9u0LlcTB0iKJgMEJ7JiQ0mZnreHpxUjkYifgbT3mHbUUBi1HZT2Dx0jZLI/1QOE4F4cVpJoqUP3ewiy8OpC8LpaVEi3mKzmJe9zick2VzcYrZCPLGan+YUAxRT1ShYNfFlJ7oPa1D4Pt1NFuM1gf5A7UhiskNGibRGBbCeyYkEoEZi8mhoZPB8+2QaS1h01nzyeS27o5ejgRAMxASQLrgRJseAuvmt28Y7PwWDM5K+FFJYftRZ6Df5b9ni8QtdIkQELqdqW9opA60p1cyDxYe98BElKlGeq0aoMR2BEhpU2EaxPp0Hi4tduE2ahIZx+kArMAWfKOMlg8lM9yiiU89IGyWZhlgexBHyg9C4UCSnZWJ3lF+bYoy9+X69yfLp/NV+ZOlkt7A8MQ66OM1E2lvX17oPbJh9GQszuRSz7gOnw4UpmRQrsmAltLYEeEVCIw+6eZ2fkPBc+18+HLXRDvu6qPhKE/RGCrCXAcm4WHZTzWA1Wr90CheDLhQGH0hHLXAq/K/XkR3mPWbKNcvZ0cnrf6HHbheSSkbpORKggp251Hu8yp6APcsWPRXTgmeiURKDsC2y6kNE3j42OBbyUGht8cvtQF4dZuSI5O0kiYsgul3d8QE1DoA2XHHigHKD4P84JSG3QrA9lZlRVstglB4t4uu93tu79iWsFWErgupEYg1neVeqSKcIs9UkUhdepol9mm3M95vbGt5E/PIgKVSmDbhVQmMPtwYin02Wjnlb0opHAkTAZHwpB3VKXG3NbuG4cJoxM5zsKzmUGu1W0MmIDCMp5ewkvxNtv3eFH4iepzfWxrF0BPMwqBZSE1OAKxKySk1irt2U4d7orEw/d7T54kIWWU4KV1lDSBbRdSyfHpDyQC0x+PYDbqUhcbJkojYUo6ZoyxeCzhFWwMmA9UbTVIHidrIFcbcJiwGxSPM8fJ8vd4Rfq66vd8luO4vDEWT6vYDgIkpG5X2muE2icfAuupw12WkHIfd9of345zoGcSgUojsK1CSguFauKzS5+KD468M3ShEyIdvZAaD0A+kao0zrTfrSJQEFCsB4qV8KpA9mITuT4LT/Z7WA8UZ1GDoqjcn4L0vN3vn9+q19NzjEuAhNRthNR+vdncdupIp1kR7uMaGhLGPU1aGREoHQLbKqRS09PHM0uxrnCrno2Kdg1AenYBgLyjSidCjLJSjmNu5GyUi80MYm0VqB4XyMUeqHovyLVVGdFum+AA3q82+P7dKEundewMARJStxNSekYKhdSiItzXQEJqZwKT3lL2BLZVSCXGpn4+OTH1GbQ8CF3uhMTgGOQiUQBNK3uwtMEtIlAs4WEPlNUCUm0VyB7sgcIMFPZAeXE+Xk6wWb7DyVK3+qLrae5dHLm8bhH+UnrMdSE1ygx/yZCzcHrFZvP9BSF14kjnrKTd29zcTEZ+pRTgtFbDEtheITU6OR7pHqhnI2E6eiE5NgVaKm1YGLQwAxFAASUI+i089IFCAeWuLdzCK/ZAuTTBbDorSvKnombxmzU1NeSpYaAj3Oml6EKqoyU+NAKxXhJSy/xvEFLWE4c7LVz2Hu7AAeqx2OkgpfeVJYFtE1LB0dFqIZZZDF/CAcWdEOsehOzCImg56vcty0jayk1hE7kq6xmomipQPLoPlNKAbuQeJqhEmzWdhezdeY4L2BsaljgASnNu5RmU4LNQSEUudLTE8NYeCanrJ3hjRurkkY7AYO+9B974RhJSJRjntGTjEdg2IZUIzD6bHJt8MvRyK0TaetgQ0XyMLokYLwQMsiLsgeKxB0q3MZCqsYRXC0q9t3ATzweSszovOWxDgiL/peR2/gPHcWSNb5DjM8IyWEbqQkcL3gwmIbXiRIpC6kAj1D7xENhOHukYScfuOXbsGJUHjBC4tIaSJ7AtQkob10xJmBqJtF9x4229aOcVSI4FQEtnSh4YbWCLCSyX8GQQrWYQiwLK79GNNPVbeBpvMf1QMKldMUX8/dpaGra6xadQFo+7LqRGIdY7SD1SxVNFIeWpBfP+RqgpCClzqPEMd5qjX8hlEfm0id0msC1CKjE5+0u5cOivg+faTeHL3RDrGYTM3CI1me/2aRvs/WikySlSoYTn0JvIfe7rAsrrAsFiHuJE6U81XnrWXF87YbAt0HIMREAXUp16j1QPCanlo1kWUk1Q88SDYD1xuKMvvHDm9OnTJKQMFL+0lNIlsD1CKjDzheS1ifcFz7dBtOMKM+HMhWmsU+mGyRavXBCAV7AHygxilR0U5kReGOfSWMfcyaVqu5bnuDdHJO55j8cT5ziOeqC2+BjK7XGsR+piZ0tscBRiPQOUkbohI2Xa3wS1TzyIpb32CxPDZx577DEqjZfbl4D2sysEtlxIJUamm/Pp5OejvYMPoXcU3tZLT0xDnsp6u3LAhnkplvB4HjhsIrdgCc8OshudyK/Pw5NcNSDZbf2cqnwjmYp9pLq5OWiY9dNCDE+AZaQuYkZqFGLdJKRuzEiZDjRB7eO6kDLvbzzNcWQTYvigpgWWBIEtF1KpwNx70wsLnw5d7JJxQHEcb89gWS9Pt/VKIiK2epHFHigs4a0QUHoJzw+Kz8X+E6yWy4JJ/Q8Q4e9Uj+fqVi+Dnlf+BPSMVFdLDEt7JKSuH3ixtHegCWquC6m7aWRS+X8naIc7Q2BLhZTW0yMnrVUfTowFnkbvKOyPSgyPQy4So/6onTlPQ72F9UBJIruFhyW85R6oep9eyvO4QKiyBTmO/2PeIn9HcToHqIRnqCMsqcWQkFrjuJiQcoL5QKMupE4caTf/82fv5p5+mv51W1IRTos1KoEtFVLxyckGSOZ7I9191tCFdoh1DegmnBnqaTRqAGzLupiNgQyCWdUFlAttDHyg+Dxgaq4DVsKrqQZelj6qeJ0fpn8Zb8spVNxDmZC61MWazdk4qsAM+dZhFNwgpKwnDrdbDjTdRf9oqbivCG14mwhsqZBKT87emVoKtuJIGJyvF+0egszCEs3W26bDM9RjmQ8UB7yiAG9WQap2gOyqYfYFbJQLGml6XThoeEQwm38EOfiI2uAeNNQeaDElTYCE1O0yUljaewB7pNpQSJX0YdPiiYCBCGypkEpOTH0rPjL5VPh8O4Rbe9htvXw8QWU9Ax34diyFEwXgJAl4vIVnt7JbeLK3YGPgczNLA8FuGRfMpi8CL3zP5HM9vx3roGdWNgFdSHUXMlL9lJEqhkMxI3WwCWpeQ0Kqsr8ltPvtILClQioxFsiF23t5zEhFO/vIhHM7TsxAz8RZeCCJIFpM2OtU6IHy6DfxMAvlcYFUW50Dnv+kICufkr012ANFdV4DnWE5LWVZSF0dZb9/qLRXOF0SUuUU5rQXAxLYMiGVnFl4MrOw9Gz4Qrs+Ww9NOBeCdFvPgIe+6SVxWMKTgTcpIGIJz1mj90DVuUBtqMOMlCZVV6U5Vfmxye9+/abfRw8gAq+CABNSl7tb4iikOkhILSMjIfUqood+hAhsnMCWCalUYLY9PjJxMni2FSKdVyDedw3yUZqtt/GjMdgnsQeKCSiJ9UCJDmwir2EN5Po8PA/IPhdIDvuCaLV+Lw/a35n87p8YbBe0nDImwIRUK5b2xpgRMGWkKCNVxuFOWzMQgS0RUtr0tDuZyl8Id15pRNuDaFehrJeiKo6BznrDS8ESHtoY8BYT64GS3bWs74mV73AWns+NmamQqCp/z8nSWcXj/PqGX0YfJAIbJKALqZ6WxNVRiLSTkLo5I9UMNa+5n5rNNxhf9DEisBaBLRFSqcDs/5sOBp8OXehUIpe7IdozoM/Wy9NUj5IOPbQxkETgTHgLzw4S2hj43aD63aCgmabHyUQViOJ3s3z+d0L5/FhDQ0OipPdMiy9ZAiSk1ji65dIeCamSDW5auKEJbFpIaZrGJwOz/zs5OvkrofNtEOnsg3j/MOTCEQDSUYY+/DUXh27kWMJTFZCqHCDVVi2X75Q6H4opTa6pjvFmdUCB7MOc30813NI86bJaNRNSbT0tiaExiLT3UmmveLpFIXWoGWoeo4xUWQU9bcYQBDYtpMKTk4eEVO6zsd6h+9hsvfZeSI1NQT6VMsQGaRHrIICz8GQJBGwit9tActeA4tVLeCqW8PxukKqq4rxV/Veel76p+J3fWMfT6UeJwLYSWBZSV8cg0kZCalVpz+sEy8FmqCYhta0xSA+vTAKbFlLxwMzbc8HwV8KXuiT85RXFGVcz82TCWULxhMOE0cYAncgFu63QRO4CpQ6byL3MSFN2VqcFVf57TpB+otS5v1JC26OlVggBElKvUNojIVUh3wLa5m4Q2JSQ0jRNSExOfSA9OfsX4YtdEGrtgkT/MGRDWNajut5uHOi63slzgPPwmI2Bww6Ss1p3IsceqHo/KH4XKG4nWh10a3z+TSrAPJXx1kWYfngHCaCQirb1tsRZRqqHSnsrS3teJ5gP7oWax+6jZvMdjEl6VWUQ2JyQWlx0JMLxnljfUF3oQhf75ZUaDVBZz+ixgz1QeAvPpLJbeLqAcrMMVDELJdU4wqLFMqzxubea/P5Ro2+J1kcEmJBqLwipVhJSN5X2Du2F6kdJSNE3hQhsNYFNCano7KwXlmJTkdYuCONtPSzrTc2Cls1t9TrpeVtBYDkDVRBQ6APldenlu3oPqD4PSDWOjGixflrj+XOmevdnt+K19AwisBMESEjdprRHQmonwpDeUYEENiWkEhPTf5Senv9voYsdgP/FB0YgFwxTWc9ggcShmeaNGSiv3gPFvKC8bpDdNXlekb8oyNI3ZZ/7GzQZ3mCHSMu5LYGikEpcHWOzPsmQs4AMb+1hj9ShfVD96L1U2rttJNEPEIH1EdickBqfTscHrkrB8x1sJEMChxTTbb31ncB2/jSW8ESB2RgIDhvItdUg+10s88R6oOqYgALRYonmIqlDZiW3yDU3J7dzSfRsIrBdBHQhdaUlcW0UwpdJSN1U2ju8D6ofwdLe4TbLgaa7tusc6LlEoNIIbFhIYVlPSGSnMBOFtgfRzn5ITU6Dls1WGkPj7bcooAo9UCL6QBUzUHUeUOt9IFc7YqLN2q+Jwm/RKBfjHSGtaP0ErgupMdZqQBmpGzJSJKTWH1T0CSLwKghsWEglJmf/MbOw+Iuh8+3sl1asdxCyOKSY/uwegeUmcgVEm95ELnuc+k08HCrsRxuD2jxnNn1GkKR2xe/6FMdx6d1bML2ZCGwdARJSa7AslvZISG1dsNGTiMAKAhsWUqnAbGtsaOTO0Ll2iHShm/k1yMdoOsiuRBfLQImFEp4VG8Z1I002ysUHis8FssuJt/R+AIL4yYgMP/R6vbFdWSu9lAhsEwEmpDqutLAeKcpIXadMQmqbIo4eSwR0AhsSUvHJmQcglf5KpKu/Pnypkw0ITY0HQMtQWW+nA2tZQNksbJQLmmeqWL7DRvIGHzPXFO22PMeLd8jemn6O4+hK5U4fEr1vRwjoQqqvIKS6qLRXpF4QUtYj+6CqhXqkdiQY6SUVRWBDQio5OfP/p5eCvxM+38FGwkR7BiEzt0BDincqdDADJQjMSFMoCCjFXQsyK9/pZTyptiot2qydoqJ8Qurr+iL32GOkcnfqfOg9u0JgWUhdG2N9m9QjVTiGYkbqyH6obsFbe9RsvisBSi8tWwLrFlKapqmpyZmPJ8YCvxq60A7RjisQY0OKo2R7sN1hslzCk0G0WgCbyJd7oBqKNga1wJvV7whm9fm0lvuc3e+f3+5l0fOJgBEIMCHVWchIkZC6ubRHQsoIYUprKEMC6xZS6cnZO7Op5Fdjfdf2h7Csh27mOKQ4SUOKtzM+0ImcU2TWRC7W2EFF7ycs4+3xgezzgOypBclq7eVF/vdliX+e83hmtnM99GwiYDQCJKTWOBHKSBktVGk9ZUZg3UIqGZh9fTYY/vdwazeEi0OKp2ZpSPE2BQbzgVJk4C1mkJyYgUIjTY9ewmvwYw9UXq6yZzRB+mWT3/lP27QMeiwRMDwBElK3EVJHD0D1w/dQac/wkUwLLDUC6xJSmqZxqfHp30jNLXwidKEDIq3dEOu/BtmlEPVHbeXJYwmP54FDHyirCcSaKtY0zvyfWA+UByRXLUg2azunyN9MpuWPVzdXk/fEVp4BPavkCKCQinX2t8SvjlKP1MrTYxkpF1iP7ocqElIlF9e0YOMTWK+QEpNjk/2xodG94Ys4X68LkiOTkI+T7cGWHDUHzMaAk2UQrGaQauygeNwg+1x69snrZMaagtXczinK5wVe/J7id17ZknfTQ4hAiRNgGamu/pYECqmL1Gy+fJxFIXVsP1Q9RBmpEg9zWr4BCaxPSF3SpHj1eDrS3sNmWUU6rkB6YppsD7bgYFkPlCSCgD1QVTZQfG79P7QxwFKe2wlitX0BQPgDTsp/y+T3j27Ba+kRRKBsCLCMVFchI0VC6vq5LgupA1D10Bkq7ZVNxNNGjEJgXUIqPTP3a6n5pf/NslEXOiB6ZQiy84ug5TWj7Ke01oEZKCzhFXug0EjT7WSDhDELZWI9ULU5sbYqzIvSv6h+16+V1gZptURg5whcF1JjEL7YSfYHRfQkpHYuCOlNFUlgXUIqGZiJJIbHrSFW1uuE+MAo5KNkkL3uyOE4AJ4HXpVBsJhAqq4CyV3Dsk+q38MyUNhULtktQ7xiekYT5Y+b0MzvsQAAIABJREFUvFXD634PfYAIVBABJqS6B1riQ1jaIyF1c2mPMlIV9HWgre4ggVctpAKBgLk6z8eiXX0Quohu5r2QHJ4ALZ3ZweWW/qv0HigJBGwid9hZz5PeA4WjXHRLA8lum+JN6p9pkG01+f0vlv6uaQdEYPsJsB6p7oGWxBBmpDooI7UiI4W/ZyzHD0DVg1Ta2/5IpDdUGoFXLaTSU/O/kYlFP4mOwaGLHRDtGmS/qECjst6rCRp0IuckAQQ00qxygOyt1S0MMAOFpTyvE+SamjTHc3+V5/N/ZfL7JzmOy7+aZ9PPEAEiAEAZqTWiAEt7PhdYUUg9QEKKvitEYKsJvGohlQzMPp+YmmmJMNuDHtYflVsKb/V6yu95WMLDHiiTClKtAyS0MajTs0+YhZK9zrxUXTXPK1Kn6vc8WX4AaEdEYGcIMCHVUyjtXaDS3qrSHgmpnQlCektFEnhVQkqbm7MlkrkfJK6O3hu+2M6MOBODo2R7sFbIsB4oDni0MTCb8LYdSO5aUP2FW3iYhfK5QbBb50Wz+Us8x31O9rsuV2QE0qaJwBYR0IXUoN4jdYFKeyuFlMKE1EFwPHCabu1tUbzRY4hAkcCrElKpyem3ZuPJv4teGfJg7wH2R6XGyfbglmEk8MBLEvDYRO6wg4TeT9gDxWwMcB6eC6RqR4yXpP8JIt+l+j3PUjgSASKweQIkpNYu7S0LqQdPg+0EDS3efLTRE4jAdQKvSkglJmb+R2Zx6ffDl7s59JCKdvVDZm6R3MxXRBLaGIAkAm/GW3h2kNHGADNQzIlctzNQ3E5N44WvZfncr9t8viWO43IUjESACGwNARRS8Z6hltjQCGWkViLlefaPOevxQ+B48G4SUlsTbvQUIrBM4LZCStM0KRWY/aPkxPSHQhfaINLWC7G+a5ALR6nRHDGiD5Qs6iU8zEC5a5YtDFgGyufWpBrHtGAyXVX97ocp9ogAEdgeAiwj1TvUEh8kIbWK8HKz+SGoIiG1PcFHT61oArcVUqnA/OFsKvn1xNXRI+jNErrUBanRScgnkhUNjvlAYQbKYgKxys5m4clebCD3siwU/idX2ZO8qnxCEMVnJJ/rx5UNjHZPBLaXwLKQwozUeeqRWqZdzEjdcQgcD1BGanujkJ5eiQRuK6QyMzMPpIKxF6NdfVz4cjfrj0oH5kDLZiuRl56BwlEumIGqsqHzuO4Dhdmn+kIPVG1Vhpfl3xcV5YLkqf1BZYKiXROBnSXAhNSVoZbE4AiESEhdh78spA6D44G7qLS3s2FJb6sAArcVUsnJySfSC5EfRC53Q+hyF8S6ByCzEATIV5jFEccxAcWbVVbCwwyU4tNdyJmZpt/N/v84ST6raunHob4+RT5QFfANoi0ahgDrkbpytSWGpb3z7WTIWTwZJqTcYD1xCBz3k5AyTMDSQsqGwG2FVGJ08ofJyenHMRsVfLkVkiMTen9UpfxBGwO8hWdWQbBjBqoGFK8blHoPy0LJfjfewpsSzOZ+NZt4O9fcHKwUNLRPImAkAiSk1jiNZSF1GBz330kZKSMFLa2lLAjcVkjFRya02JUhQCGF1gdJtD1Ipcti86+4iWIPlEllJTzJiT1QLtb7ZGrAW3hMQGUFVflIXhTPmes8z3AcRzbv5R8ZtEODEmBCqu8qazYPnaOM1PIxFUt7J46QkDJo7NKySpvAKwqpxatXHUpeCEY6rkDofDvg/8xMz4OWK+Nb+1jCw1l4qi6gxNoq3YUcBwrv8bFhwrKzOi/I8sc0nvuO+ulPvcQ9/XSF1TlLO+hp9eVJoJiRYkKKSnvXD7mYkTp5GBz3UUaqPKOfdrWbBF5RSMUDs3+ZmZ3/rWj7FVh66RLE+4Yhu7i0m+vdvncXe6BUBQSHDcUSM89U6n26D1SdBxRnbVawmsYXtexxv98f377F0JOJABFYLwEUUom+ay2xwWHKSK2ER0JqvaFEP08E1kXgFYVUMjCbiF8dUbGsh7dgEkNlOBYGb+GJAjPSFG0WNgtP8TivO5HXe0CsdsyJFnMrLym/rfhqe9dFmH6YCBCBHSGgl/aGW+KD10hI3VJIHQHHfaeoR2pHopFeUkkE1hRSmqYJqYmZaLR3QA2ea4dIWw9rNNcyZWJ7UBRQJjTStIJUW1XogXKDqcHP/nfZVZPnZOlPRVVplQPj3+FOn85UUnDQXolAKRFgQqp/uCU+QEJq1bktZ6RISJVSPNNaS4fAmkIqOTX7hmwk9q1Yz6AUfOkSRDr7ID01W/pjYVaU8ES7FbNNzMKANZHvQQHlZKNceFX9J4HnPynVe1o5jiMBVToxTSutUAKstNc/3BIjIbU6AlBI+d1gPXkEHPdSRqpCvx607W0ksLaQCsz+S2p69qdYo/nZNoj1DEI2GN7GpWzzozkADm0MsAcKS3jYRF7sgUIn8nov3syLK1W2eDYn3Gmur53Y5hXR44kAEdhCAiSk1oBJQmoLo4weRQRuJrC2kJqY/m5iLPCm4Pk2iFzqgvjgKORjJdhfjSU8gWc9UILVDFJtNcieWlDrfbqZZr0XxJqqsGgxv8BL0l+pdR5yIqdvChEoQQIkpG4jpE4dAcc9lJEqwdCmJRucwC2FlDYVcSUSS19LjAYeXvrJBUBX8+TYFGjpEvKPWnkLryigMAPlc4NpTx3IPicb78Iryic4k/piNAjPuI+5K8hp1OCRScsjAuskwHqkBoZb4v3UI7UKXSEjZTt1FOz3nKRm83XGFf04EbgdgVsKqeTk9FPZUPTv4gMj3qUXz0Ok/QpkZhdAy5WGXRL6QPGyDILdovdA+dyg1LlBrfeD4neB4nZhee9HGsf9dxOf7+TIyuB2cUL/dyJgeAIsIzUw3BIjIbX6rIqlvVNHwUFCyvBxTAssPQK3FFLxiZnfzswvfCzSqtsexHqH9P4oI8/XwwyUKACnyMCayKvsrAeKzcFDQ80GH/ZARaRqezAN3LvtdZ6XS++4aMVEgAisRYBlpAZHWuJ9V8n+YCUkElL0pSEC20rg1kJqZOKD6dnFPw+ebYXwuTZIDI9DLhoH0Aw4AQV7oHAeHvZAWcwg1jjw1h2bhaegGzmaaTpr0rzZ9CPJpHxJWnJ/hTvGlVCNclvPnx5OBMqGAMtIDY62xPqGSEjdQkhRaa9sQp02YjACNwmpubk5mzkU//PUxPSvLr14kY1aSE3OGG++HstAiewWHm8xgYQCis3Cw+xTHSjYA+VxAW9S/lU0m76ajuWft+33zhqMPy2HCBCBLSJwXUhhRqoN0oGZkmlH2CIEt35MsUfqzqNgP0M9UtvKmh5ekQRuElLJmZl92cXYD2NXBpuCZy8X+qMWQcsax4gTe6DQykC0mVkJT/Y4QWnw6/Pw6jzs/y05bN0awH+JKMJlt5uayCsyumnTFUWACamh0ZbYFRJSqw5+WUgdA/uZE9RsXlHfCtrsThC4SUilxmdOZCKRjtClTgi+iPP1rkFmKbT7/VHFHigZe6AsrA8KM07KHh+o2EyObuSumrBU7ZjiBenDit/5jZ0ASO8gAkTAGAT0jNRYS6x/iHnfUUaqcC4kpIwRoLSKsiVwk5CKXhs/kQ+FO4Jn2wCtD5LXxiGH/lG71R61sgfKpIJYbddHubAGcj/zgsIMlGA2f5c3Sd+OhoUvuw67ImV7YrQxIkAEbklgOSOFzeYkpK4zKgqpu46B/TRlpOjrQwS2msDNQmpg+GfS03P/HHzpMoTOtrL+qHwytdXvvf3z0IlclIBTZRBMKkgooLCEhyaae7AHygWK1w28WX1GVJW/z0j8eavbPX37B9NPEAEiUI4EmJC6WijtkZAiIVWOQU57MiSBm4RUfHj8m9GewbcGf3IRwh29kJme3/FBxdgDBaIAohVLeDaQ3TWgNtazm3jYB4XZKKnaMaZp2i+odZ4XOY5u4RkyumhRRGAHCaCQSl4da4leodLeKuzLGanjhYzUoTbLgaa7dvBo6FVEoKwJ3EJIjWVDF7uEpR+fg2gXztcL7sygYp4DThCAwx4omxkEq4WV8JgPFBvl4gPJhT5QjquCpHxM8Tv/qaxPhjZHBIjAugiQkFoDFwmpdcUR/TARWC+Bm0t7vYNa8FwbLP34PMQHRiAX2eapKTwPwHMgmE3Ao5lm8RYe9kA11jERpXhcIFhN3+FN5u+oFvlrnMOxuN6N0s8TASJQ3gT00t5YS4wyUqsPuiCk7HcfB9vd2CNFGany/ibQ7naawE1CKnihQ8Mmc2zWTIxMgpZIbtua0MKAUyQQVOW6gKpHE02fbmPgc+Og4WdBkj5uVoRWjnqgtu0s6MFEoNQJMCF1bawFJzFQs/mK0yxmpO4+DnYSUqUe5rR+AxJYJaRSUwtHI30DPUs/fAnCbb2QDkyDlslt+bJRQIHAg2izoFACyVUL5n2NzExT8XtB9bs12VmzlOfgHSaf6/ktXwA9kAgQgbIjQELqlUt79rvvABv+Rxmpsot92tDuElglpJKBud8Ot3d/bOHZn0Csqx/SMwtbNxamYGOAs/BwlAtvMYPqqQVlj7/QB+UF2VUblmscXbwq/7XidX9ld9HQ24kAESglArqQGi9kpFrJR6p4eMulPRJSpRTPtNbSIbBKSCVGJn+wdLb1icUfvQTxgWHILgQ3vxOeA+AFZmGAt/GkKitIaKTpd4MJb+JhFsrrBtFi+oJotf4wkU1819HQQD1QmydPTyACFUWACanh8ZZYzyCV9laefFFInb4DbHdRRqqivhS02R0hsEpIRfuHAwvPvuALvnQJkqMByIU312heHOXCmxQQLWaQvU7dA4r1QaGNgQckm+UZ4KW/SHGptqrGxqUd2TW9hAgQgbIjwG7toZDqHYLgy5SRWj5gElJlF+u0IWMRWCWkQm09s/PPPOcKX+yE1MT0ho04OUkEThRAsFnZUGHZVQ2mfY2sgRx7oJQ6d0p01iY0Lvekxe+/ZCwktBoiQARKkUBRSEWx2ZyE1PUjXBZSJ8B213HqkSrF4KY1G5rAKiG19MLF2dnv/NAV7R6A9NTs+ow4i6NcVAV4kwqCxQSSswZUnIXXWAeq3wuSxxmWqu1nRbP5bxWv81uGJkOLIwJEoKQIkJBa47iKQgoHFt9JQqqkgpoWWxIEloWU9pwmzoR+OLXw7885E1fHIDO7CFruVdzYw2HCgoCjWoATRRAdVl1AYfkOBZRewtN4VfkYbzNfjkWEZ2gWXknEBi2SCJQUARJSJKRKKmBpsWVDYFlIpaamjs0+88KLS/9xtio5MQ3ZpRBAPv+KG73eA6WCYFJAclaD2lQPpj11ehmv3gui3f4NUZb+UMqn+riGhkTZkKONEAEiYCgCTEiNjLdEe6i0t+pgChkpx5kTYKWMlKFilhZTHgSWhVR0YOjn577z3N+EXm4zpQLTkIvEb219gBkoUQAoZJ94SQKpxgFKox/Me/foPVA+d1DxOMMKbz7N+Wxz5YGKdkEEiICRCehCaoLd2qNm8xUnRaU9I4ctra0MCCwLqdDF7r+e/fb3fyPa1c+nJmb0RnNNu75FHOXCcayExysKCGZVF1D1XjA1N7AslOxxRgW79VuCSf20Wud5juO4FQ8oA1q0BSJABAxLoCikomh/QM3mq353K34P2FmP1DFqNjdsBNPCSpXAspCa+7cff2numR+9OzkyCampOdBSaX1PhQwUNpCzm3hWCxvnojb6wdRYx/5TfN4cqPL/UByOPtlX+22O415Fc1WpIqN1EwEiYEQClJFa41RYRoqElBFjltZUHgSWhdTkZ772pYX/ePHd2GSOjuZaNgvMxkASQTCbgVck4C0mMDXvAfOBJuZGrjb6NNFu/yak8h8whaZnuNOnM+WBhXZBBIhAqRHQhdRkS6xngEp7Kw+vIKT0HinKSJVaXNN6jU+ACSnt0iVp9IWOL4UutL8zuxiC9GIQOJ4HwWYBHnuh7FZQ6jxgPrIf1Aa/pnids4qrNqA2+O4y/hZphUSACFQCARJSr5CRqvMAE1KnSEhVwneB9rizBJiQirT2HJ387L9+Pn5t7G7MROWSaeBlCeTaauZGjhkoU1MDyF5XWLJbPyuZTV+T/O4Xdnap9DYiQASIwNoESEi9CiGFGak7DrVZDjTRP4Lpy0QEtogAE1ILz599V+BTX/3H9OKSVc9EWQs9UPVgaq5nt/B4Rf5j0WHrVP2eZ7fo3fQYIkAEiMCWEUAhlRqdbEFDYbq1twIrlvaKGSkSUlsWb/QgIlAkwITU9Ld+8CuzX/7upzJLIbCdOAym/Y2g7vEzQ03RYv2jaDz4UeehQzGO417ZWIq4EgEiQAR2iQAJqdtlpE6C9c6jlJHapfik15YvASakAl/5t18JPX/uU9ZTR0BtrE/Irup+qbrq86amuo+TeCrfw6edEYFyIsBKe6OTLTHKSK0+1mJG6p6TYD1FQqqcYp72YgwCTEhNffE79yh1nr/lZOEnisczZrLJn+Lc7qgxlkirIAJEgAjcngATUmOTLbEuKu2tokVC6vbBQz9BBDZBYNn+IBwIHLb5fFc5jiMLg00ApY8SASKwOwR0IRXQM1IvXYZ0YAa0HHUjAAmp3QlIemvFEFgWUhWzY9ooESACZUlAL+0FdB8pElLXz5iEVFnGO23KOARISBnnLGglRIAIbIIAZaTWgFcUUveeBOtJ6pHaRIjRR4nALQmQkKLAIAJEoCwIsFt7YwHd/oAyUjdnpO49BdaTR+jWXllEO23CSARISBnpNGgtRIAIbJgACanbZaRISG04uOiDROAVCJCQovAgAkSgLAjoQmqqJdrdTxmplSdaLO3dVxBSx8nZvCwCnjZhGAIkpAxzFLQQIkAENkOACanxqZZoFwmpVRyXhdSdzHDZSiNiNhNm9FkicBMBElIUFESACJQFAV1IFXqkXiT7g+VDJSFVFvFNmzAuARJSxj0bWhkRIALrIEBCag1YK4SU9eRhsFFpbx1RRT9KBG5PgITU7RnRTxABIlACBJZLe9gjRRmp6ydGQqoEopeWWMoESEiV8unR2okAEVgmQEKKMlL0dSACu0GAhNRuUKd3EgEisOUEmJCaKDSbU0ZqdUaq3gOO+wrN5lTa2/LYowdWNgESUpV9/rR7IlA2BK4LqQEIvniJZu0VTxZLeySkyibOaSPGI0BCynhnQisiAkRgAwT00t607iNFQuqGjJSXZaSsJw5Rs/kGYos+QgReiQAJKYoPIkAEyoLA9R4pykitOlCWkfJC1X13goWEVFnEOm3CWARISBnrPGg1RIAIbJDAcmkPZ+39hEp7yxiLQur+O8FyB2WkNhhe9DEisCYBElIUHESACJQFARJSaxxjQUg57r8TXc2ptFcW0U6bMBIBElJGOg1aCxEgAhsmQELq9kLKdsdhsB4/2GY50HTXhkHTB4kAEVhFgIQUBQQRIAJlQUAXUoVmcyrtXT/T5dLeXSwjRUKqLMKdNmEgAiSkDHQYtBQiQAQ2ToCE1CtnpKoeuAtFFFjJR2rjQUafJAK3IEBCisKCCBCBsiBwXUhhs/lF8pEqnqrAg1LnBV1IUUaqLIKdNmEoAiSkDHUctBgiQAQ2SoCE1O0zUpbj2GxOPVIbjTH6HBG4FQESUhQXRIAIlAUBElJrHONyRuruQmmPhFRZBDxtwjAESEgZ5ihoIUSACGyGAAmp22SkHrwbrMewR4qE1GbijD5LBG4kQEKKYoIIEIGyIEBC6jYZKRJSZRHntAnjESAhZbwzoRURASKwAQJMSE1Ot0S7qNl8Fb5iae/B02A9fgCzUuQjtYH4oo8QgbUIkJCi2CACRKAsCJCQWqu0J4BS74EqElJlEee0CeMRICFlvDOhFREBIrABArqQmmmJdvWT/cFKfoIASp0Hqh86DZZjlJHaQGjRR4jAKxIgIUUBQgSIQFkQ0HukZlqi3SSkVpf2dCFV9dBpsJKQKotYp00YiwAJKWOdB62GCBCBDRJAIZWenGmJUEZqFUFOEEBezkgdRDFFPVIbjDH6GBG4FQESUhQXRIAIlAUBElK3PsbrQupMobRHQqosAp42YRgCJKQMcxS0ECJABDZDYFlIYWnvBRoRU2S5LKQePgOWo9gjRUJqM3FGnyUCNxIgIUUxQQSIQFkQICG1xjEWm81JSJVFnNMmjEeAhJTxzoRWRASIwAYILN/ao4zUKnrLGamWM2A5QhmpDYQWfYQIvCIBElIUIESACJQFARJStz7G60LqHrAc2U+lvbKIdtqEkQiQkDLSadBaiAAR2DABElK3Ke213AOWo/vBepR6pDYcZPRBInALAiSkKCyIABEoCwIkpG6XkboXLEf2UUaqLKKdNmEkAiSkjHQatBYiQAQ2TICE1CsIqXoPVGNG6jCV9jYcYPRBIrAGARJSFBpEgAiUBQESUrcRUg9jRgqF1H4y5CyLiKdNGIUACSmjnAStgwgQgU0RICG1Bj60P6j3QE3LvSwjZSEhtak4ow8TgRsJkJCimCACRKAsCJCQWjsjhUKqCoUUZqSOUkaqLAKeNmEYAiSkDHMUtBAiQAQ2Q4CE1G1Ke4/cC1bMSJGQ2kyY0WeJwE0ESEhRUBABIlAWBEhIvbKQqnmkUNojIVUW8U6bMA4BElLGOQtaCREgApsgQEJqDXiiAEqdF5iQOrSPeqQ2EWP0USJwKwIkpCguiAARKAsCJKTWyEgVhFT1owUhRRmpsoh32oRxCJCQMs5Z0EqIABHYBAESUiSkNhE+9FEisGECJKQ2jI4+SASIgJEIkJBaW0jJWNp79D6wHNpLzeZGClpaS1kQICFVFsdImyACRICE1BoxwHykvFDz2H1gOUhCir4pRGCrCZCQ2mqi9DwiQAR2hQAJqduU9h67HywHmykjtSvRSS8tZwIkpMr5dGlvRKCCCJCQemUhVfPY/WA+1IymnDQipoK+F7TV7SdAQmr7GdMbiAAR2AECupCabYl290HwhYuQDsyAlsvvwJuN/QpOFID1SGFGCnukjuwjIWXsI6PVlRgBElIldmC0XCJABG5NgDJSa0RG0UeKhBR9dYjAthAgIbUtWOmhRIAI7DQBFFLpyZmWSHc/ZaRWwMeMFDPkfM0DYMYeKcpI7XRo0vvKnAAJqTI/YNoeEagUAiSkbn3SJKQq5RtA+9wtAiSkdos8vZcIEIEtJUBCau3SnooZqccfAPMBykhtadDRw4gAAJCQojAgAkSgLAjoQmq2JULN5qvOk2Wk0EcKS3skpMoi1mkTxiJAQspY50GrIQJEYIMESEjdprSHGSnskTpMt/Y2GGL0MSJwSwIkpCgwiAARKAsCJKReQUhhRurxB8F84P+0d+fhcWXlncdfW1Jt2kq7VFot7912L17a3W1b3UB3OyEhEJIAIRCeEAL9NBNmMslMJsxkpkMCnQSYAYYJhISHhLClgTBAYDKZYRh3wrC027u875K12Oq2XCXVppLuPPeW3C1LlnVd96ruqXO//oc/0D33nM/7Vj+/59xTt3oIUlp0O4tQSYAgpVI1mAsCCBQsQJBahK68TEIEqYL7igsRWEqAILWUEP8/AgiUhABBih2pkmhUJqmdAEFKu5KyIAT8KcC39hYJUhXlEmxvkfrHdklkTTeP9vz58WDVyyhAkFpGXIZGAIHiCRCkFtuRKpdgB0GqeJ3InfwmQJDyW8VZLwKaCvBbe4vtSM2+2fyxXVK5plsifGtP008Ay/JKgCDllTz3RQABVwUIUrcLUm2zj/a6eLTnatcxGAK8kJMeQAABTQQ4bL5YkMqfkWp4fLeEVxOkNGl3lqGQADtSChWDqSCAQOECBKnbBalWaXh8l4TXdEnlel7IWXiXcSUCCwUIUnQFAghoIUCQun2Qqn9il0TMHSmClBb9ziLUESBIqVMLZoIAAg4ECFJL7Eg9YT7a6yRIOegxLkXgVgIEKfoCAQS0ECBILR2kIqs7JcKOlBb9ziLUESBIqVMLZoIAAg4ECFIEKQftw6UIFCxAkCqYjgsRQEAlAYLU0kHK+tbe+t4DlWt7tqhUO+aCQCkLEKRKuXrMHQEEXhYgSC0RpPbslnAvQYqPDAJuCxCk3BZlPAQQ8ESAILVUkOqTcK952JwdKU8alJtqK0CQ0ra0LAwBfwkQpAhS/up4VquKAEFKlUowDwQQcCRAkFo6SEV6zW/tsSPlqNG4GIF5AgQpWgIBBLQQIEjZCFLm6w/WEaS0aHgWoYwAQUqZUjARBBBwIkCQIkg56R+uRaBQAYJUoXJchwACSgkQpAhSSjUkk/GNAEHKN6VmoQjoLUCQshOkuiSybhXvkdL7o8DqiixAkCoyOLdDAIHlESBILR2krBdyEqSWpwEZ1bcCBCnflp6FI6CXAEFqsSBVIcH2FmnY0yeR1exI6dX1rEYFAYKUClVgDggg4FiAILX0jhRBynGbMQACCwQIUjQFAghoIUCQsrEjtaZLIms5I6VFw7MIZQQIUsqUgokggIATAYLU0kEqvLpbKtf1cNjcSaNxLQLzBAhStAQCCGghQJCyEaTWdEklO1Ja9DuLUEeAIKVOLZgJAgg4ECBILR2kIjzac9BhXIrAIp8xYBBAAAEdBAhSi/xHPlAhwdjst/bWdEtkLY/2dOh31qCOADtS6tSCmSCAgAMBghRBykH7cCkCBQsQpAqm40IEEFBJgCBlI0it7ZbIGnakVOpb5lL6AgSp0q8hK0AAAREhSNkIUmt6JLK2m2/t8YlBwEUBgpSLmAyFAALeCRCkbAQpdqS8a1DurK0AQUrb0rIwBPwlQJAiSPmr41mtKgIEKVUqwTwQQMCRAEHKTpDqkcgaHu05ajQuRmCeAEGKlkAAAS0ECFI2gtS6HomsJkhp0fAsQhkBgpQypWAiCCDgRIAgRZBy0j9ci0ChAgSpQuW4DgEElBIgSBGklGpIJuMbAYKUb0rNQhHQW4AgtUiQCgYk2NYsDXv6JLJ+lUR6u3j9gd4fBVZXZAGCVJHBuR0CCCzQJ8bWAAAgAElEQVSPAEHKxo4UQWp5mo9RfS1AkPJ1+Vk8AvoIEKRuXcuVwYAEbuxIrVslkdXsSOnT9axEBQGClApVYA4IIOBYgCBlI0ixI+W4zxgAgfkCBCl6AgEEtBAgSC3yaG/OGanK9askzBkpLfqdRagjQJBSpxbMBAEEHAgQpAhSDtqHSxEoWIAgVTAdFyKAgEoCBCmClEr9yFz8I0CQ8k+tWSkCWgsQpG5d3rmHzXm0p/VHgMV5JECQ8gie2yKAgLsCBCl2pNztKEZDwJ4AQcqeE3+FAAKKCxCk2JFSvEWZnqYCBClNC8uyEPCbAEFqkSAVCkqgtcl6szmP9vz2qWC9xRAgSBVDmXsggMCyCxCkln60x0/ELHsbcgMfChCkfFh0loyAjgIEqUWCVCggwVZ+a0/HnmdNaggQpNSoA7NAAAGHAgSpRR7tzf2JGN5s7rDLuByBhQIEKboCAQS0ECBILRKk5pyR4tGeFq3OIhQTIEgpVhCmgwAChQkQpBbbkQpKoO3GYfNeCfd2Hqhc27OlMGWuQgCB+QIEKXoCAQS0ECBILb0jVbmhV8KrCFJaNDyLUEaAIKVMKZgIAgg4ESBI2QhS/GixkxbjWgRuKUCQojEQQEALAYIUQUqLRmYRJSdAkCq5kjFhBBC4lQBBykaQ4tEeHx4EXBcgSLlOyoAIIOCFAEGKIOVF33FPBAhS9AACCGghQJAiSGnRyCyi5AQIUiVXMiaMAAI82rPfAyvn/tYej/bsw/GXCNgUIEjZhOLPEEBAbQF2pNiRUrtDmZ2uAgQpXSvLuhDwmQBBiiDls5ZnuYoIEKQUKQTTQAABZwIEKYKUsw7iagQKEyBIFebGVQggoJgAQWqRIBUOSqBl9idiOCOlWNcyHR0ECFI6VJE1IICAEKTYkeJjgIAXAgQpL9S5JwIIuC5AkCJIud5UDIiADQGClA0k/gQBBNQXGN9/ZG928Epf4ugJGX/ueckOjYoxPaP+xJd5hrz+YJmBGd73AgQp37cAAAjoIcCO1CI7UpyR0qPBWYWyAgQpZUvDxBBA4E4EFgapK2JMT9/JEFr+7cr5Qaq380Dlmp4tWi6WRSHggQBBygN0bokAAu4L8GhvkR2pUEgCrY3SsKdPKjf0SqS360BkTTdByv0WZESfChCkfFp4lo2AbgILgxQ7UmaNV4ZDEmh5JUiF2ZHSrfVZj8cCBCmPC8DtEUDAHQHOSC2yI8WjPXcajFEQWESAIEVrIICAFgKckVosSM3fkeo6UMmjPS16nkWoIUCQUqMOzAIBBBwK8GiPIOWwhbgcgYIECFIFsXERAgioJkCQIkip1pPMxx8CBCl/1JlVIqC9wPgL/Xuzl0fmvJCTw+Zm0RceNufRnvYfBhZYVAGCVFG5uRkCCCyXAGek7OxIrZb8t/Z4/cFy9SHj+k+AIOW/mrNiBLQU4NGejSC1sVfCq9iR0vIDwKI8EyBIeUbPjRFAwE0BgpS9IBVZxQs53ew7xkKAIEUPIICAFgKckbIRpDaslkhvJ28216LjWYQqAgQpVSrBPBBAwJEAO1I2gtTG1RJZRZBy1GhcjMA8AYIULYEAAloIEKQIUlo0MosoOQGCVMmVjAkjgMCtBOL7j+xND17h9QfzcG56/cHGXuGMFJ8fBNwVIEi568loCCDgkUD8hf69ad4jtUB/ZSQkgebZHy3m0Z5H3cltdRYgSOlcXdaGgI8E4vv796YHeSHn/JLfvCO1WsKreI+Ujz4WLLUIAgSpIiBzCwQQWH6B8f39e7MEqYU7UuE5P1q8kSC1/J3IHfwmQJDyW8VZLwKaChCkbl3YhTtS3Qcq13Ru0bQNWBYCRRcgSBWdnBsigMByCBCkFglS889Ire4+EOklSC1HDzKmPwUIUv6sO6tGQDsBgpTdINV5INLLb+1p9wFgQZ4JEKQ8o+fGCCDgpgBBykaQumv2zeYEKTdbj7F8LkCQ8nkDsHwEdBEgSC0WpMISaG6Qhj19Umm+/oBHe7q0POtQRIAgpUghmAYCCDgTWBCkhq+IkZt2NqgGVy94jxRBSoOqsgSVBAhSKlWDuSCAQMEC7EixI1Vw83AhAg4ECFIO8LgUAQTUEVi4I3VVjFxOnQl6NJOVkTmP9qwzUnxrz6NScFtNBQhSmhaWZSHgN4EFbzbn0Z7VAjcFKc5I+e1jwXqLIECQKgIyt0AAgeUX4CdibDzaY0dq+RuRO/hOgCDlu5KzYAT0FODRHkFKz85mVaoLEKRUrxDzQwABWwIEKYKUrUbhjxBwWYAg5TIowyGAgDcCvP7ATpBaI5HeLn4ixpsW5a6aChCkNC0sy0LAbwIcNidI+a3nWa8aAgQpNerALBBAwKHAwiDF6w9M0ptff8COlMM243IEFggQpGgKBBDQQoAgtfSOVNVdayTMoz0t+p1FqCNAkFKnFswEAQQcCBCkCFIO2odLEShYgCBVMB0XIoCASgJ8a2+RIFUZlkDT7I8W38WjPZV6lrnoIUCQ0qOOrAIB3wsQpAhSvv8QAOCJAEHKE3ZuigACbgvwaI8g5XZPMR4CdgQIUnaU+BsEEFBegCBlJ0itlUhvJ++RUr6bmWApCRCkSqlazBUBBBYVIEjZCVKckeIjhIDbAgQpt0UZDwEEPBEgSNkJUuaOlPlm844tnhSJmyKgoQBBSsOisiQE/CgQP9C/Nz0w0pc4ekLGn3tessO8kNPsg5Vzv7V391qJrCJI+fHzwZqXT4AgtXy2jIwAAkUUIEixI1XEduNWCLwsQJCiGRBAQAsBgtTSQarq7rUSZkdKi35nEeoIEKTUqQUzQQABBwIEqVvjlVWGpWL2hZwEKQcNxqUILCJAkKI1EEBACwGCFDtSWjQyiyg5AYJUyZWMCSOAwK0ECFJ2gtQ6Ca8y3yPFt/b4FCHglgBByi1JxkEAAU8FCFI2Hu1tWifhHoKUp43KzbUTIEhpV1IWhIA/BQhSBCl/dj6r9lqAIOV1Bbg/Agi4IkCQsvloz/yJmFU82nOl6RgEAREhSNEGCCCghQBBykaQ4tGeFr3OItQSIEipVQ9mgwACBQosCFIjV8WYyhU4mj6XzX2zeRVBSp/CshJlBAhSypSCiSCAgBMBgtSt9W56j5QZpMxv7fFoz0mrcS0CNwkQpGgIBBDQQoBHezYf7RGktOh3FqGOAEFKnVowEwQQcCBAkGJHykH7cCkCBQsQpAqm40IEEFBJgEd7i+1IRSTQVC8Ne/rEOiPFjpRKbctcNBAgSGlQRJaAAAIiBCkbQWrz7As5OSPFRwYB1wQIUq5RMhACCHgpsDBIjYkxNeXllJS498rKOTtSBCklasIk9BIgSOlVT1aDgG8F2JG6denLKiNScePRHkHKt58PFr58AgSp5bNlZAQQKKIAO1IEqSK2G7dC4GUBghTNgAACWggQpG5dxpsf7a2XcE8H75HSouNZhCoCBClVKsE8EEDAkQBBaukdqep71kuomyDlqNG4GIF5AgQpWgIBBLQQIEgtsiNVFZFAY/71BwQpLVqdRSgmQJBSrCBMBwEEChMgSC2yI1UVkYrZIFV173oJd7EjVViHcRUCtxYgSNEZCCCghUD8UP/e9MWRvsTREzL+3POSHeH1B2Zhy+YGqXvWS5hHe1r0O4tQR4AgpU4tmAkCCDgQiB86tjd9cZggNc9wbpCqvneDRLraD4R4IaeDTuNSBG4WIEjREQggoIUAQWrpR3vV92yQSE/7gVBPxxYtis4iEFBAgCClQBGYAgIIOBcgSN3acGVVpQQa6/KHze/dIKHu9gMRgpTzhmMEBGYFCFK0AgIIaCFAkLKxI0WQ0qLXWYRaAgQpterBbBBAoEABgtQiQao6IhUNs68/IEgV2F1chsDiAgQpugMBBLQQIEgttiNVKRU3Hu3dt1FCXeajvXbOSGnR9SxCBQGClApVYA4IIOBYgCC12I5UpVQ0zJ6RsoJUjDNSjruNARB4RYAgRTcggIAWAgQpeztS1usP2JHSoudZhBoCBCk16sAsEEDAoQBByt6OFEHKYaNxOQLzBAhStAQCCGghQJAiSGnRyCyi5AQIUiVXMiaMAAK3ElgQpEbHxMhO+R6rrHrOGan775JIZ4xHe77vCgDcFCBIuanJWAgg4JkAO1I2dqTu3yiRTs5Iedak3FhLAYKUlmVlUQj4T4AgZSdI3SWhTvNbe7z+wH+fEFa8XAIEqeWSZVwEECiqAI/2bAYp8/UH3QSpojYnN9NagCCldXlZHAL+ESBI2QxS7Ej550PBSosiQJAqCjM3QQCB5Rbg0Z6NILXlLol0cNh8uXuR8f0lQJDyV71ZLQLaCsQPHd+bvjjUlzh6Qsafe16yfGvPqnVZdZVUNESlYU+fVJtByvzWHo/2tP0csLDiCxCkim/OHRFAYBkECFJ2dqTulkhnG0FqGfqPIf0rQJDyb+1ZOQJaCRCkFglSNVVSUX9jR4ogpVXTsxglBAhSSpSBSSCAgFMBgpSNHamtd0ukgx0pp73G9QjMFSBI0Q8IIKCFQPzw8b3pC5yRml/Mm85Ibd0kkY5WHu1p0fEsQhUBgpQqlWAeCCDgSGBhkHpRjGzW0Zg6XFxWUykV9XX5w+bsSOlQUtagmABBSrGCMB0EEChMYOGjPYKUKVk294wUO1KFNRdXIXAbAYIU7YEAAloIsCN16zLODVI1WzdJuKNtf6g7tlWLorMIBBQQIEgpUASmgAACzgUIUksHqeptmyQUa90f6WknSDlvOUZAwBIgSNEICCCghQBBymaQam97IdId26ZF0VkEAgoIEKQUKAJTQAAB5wIEKRtBaru5I9W2L9Id2+5cnBEQQIAdKXoAAQS0ESBILR2karZvlmCs9flId+wBbQrPQhDwWIAdKY8LwO0RQMAdAYKUzSDV3vqTSFdshzvqjIIAAgQpegABBLQQIEjZC1KBWPNPKrs7CFJadD2LUEGAIKVCFZgDAgg4FiBI2QhSD2yWYGvLjyM97Q86BmcABBCwBAhSNAICCGghED98cm/6wmBf4ugJGX/uecmO8kJOs7A3vUfKDFKxlh9Futof0qLoLAIBBQQIUgoUgSkggIBzAYKUnR2peyTU1vrDcHfbw87FGQEBBNiRogcQQEAbgQVB6sqLYmT4rb2bd6TMINXy/8LdsZ3aFJ6FIOCxADtSHheA2yOAgDsC7EjZ3ZFq+UG4O7bLHXVGQQABghQ9gAACWgjEj5zcmz7PGan5xbxpR2qHtSP1z+Gu2G4tis4iEFBAgCClQBGYAgIIOBcgSNnYkdpxrwRbm/450t1OkHLecoyAgCVAkKIREEBAC4HEkZN7U3N3pDgjZdX15h2peyXU1vxP4a5YnxZFZxEIKCBAkFKgCEwBAQScC7AjtfSOVK25I9XW8ly4q+0R5+KMgAAC7EjRAwggoI0AO1K2g9TecFfbo9oUnoUg4LEAO1IeF4DbI4CAOwIEqdsEqYaoNOzpE3NHKtDavDfSFSNIudN2jIIAZ6ToAQQQ0EOAR3tLBKkn+qTmwfvMw+b/N9IVe5UeVWcVCHgvwI6U9zVgBggg4IIAO1J2dqTul2BL4/fD3bFXu0DOEAggwLf26AEEENBFgCBlI0g9eL8Em5v+T7i77TW61J11IOC1ADtSXleA+yOAgCsCif6Te1Nn57yQk9cfWK7W6w9unJEyg1Rr0/fCnW2PuYLOIAggwBkpegABBPQQIEjZ25EKNDd9L9JNkNKj61mFCgLsSKlQBeaAAAKOBQhSNoLUQ/dLRXPD/67san/cMTgDIICAJUCQohEQQEALAYKUvSAVbG78X+Gu2BNaFJ1FIKCAAEFKgSIwBQQQcC5AkFo6SEUf2iKB5oZ/DHfF9jgXZwQEEGBHih5AAAFtBBL9p/amzg70JY6ekPHnnpcsh82t2s49bB59eKsEmxr+Z6ir7ae0KTwLQcBjAXakPC4At0cAAXcECFK325Gqk4Y9u6X24a0Sam74h1Bn20+7o84oCCBAkKIHEEBACwGC1FJBqk+iD2+RYHPD/wh1tr1Wi6KzCAQUECBIKVAEpoAAAs4FCFI2gtTOLeajve+GOtt+xrk4IyCAgClAkKIPEEBACwGClL0gFWhq+G6YIKVFz7MINQQIUmrUgVkggIBDAYKU3SBV/51wZ+xnHXJzOQIIzAoQpGgFBBDQQoAgdZsg1VgnDU/0SXSn+a29+r8Pdba9TouiswgEFBAgSClQBKaAAALOBQhSNoLULuv1B98OdbT+nHNxRkAAAVOAIEUfIICAFgIEKXtBqqKp4VuRjtbXa1F0FoGAAgIEKQWKwBQQQMC5AEFq6SBVt2urlDfUfyvS1UaQct5yjICAJUCQohEQQEALAYLUEkFqT5/U7dom5fXRb0a6Ym/QougsAgEFBAhSChSBKSCAgHMBgtTiQSowe9i8dvc2qaiv/++Rrtafdy7OCAggwI4UPYAAAtoIEKSW3pGK7t4mwfr6b4Q6W9+oTeFZCAIeC7Aj5XEBuD0CCLgjQJBaOkjV7d4u5XW134h0xQhS7rQdoyDAGSl6AAEE9BAgSN0+SDXu6ZPo7u0SaKj/eqij5Rf1qDqrQMB7AXakvK8BM0AAARcECFKLB6lAY7007NltBalgQ/RrwY62X3KBnCEQQIBv7dEDCCCgiwBB6jZBqqleGp7IB6lAQ/RrIYKULm3POhQQYEdKgSIwBQQQcC5AkLrNo73ZIGWekQo0RL8a6mh7k3NxRkAAAVOAIEUfIICAFgIEKRs7Un3bpaK+7tlwR+ubtSg6i0BAAQGClAJFYAoIIOBcgCBlI0jt3i4VDXV/G+5ofYtzcUZAAAF2pOgBBBDQRoAgZTNINdZ9Jdze+svaFJ6FIOCxADtSHheA2yOAgDsCBKnbBamG/GHzPvPN5nVfCXcQpNzpOkZBgDNS9AACCGgisDBIvSRGJqPJ6gpfRllNlQSaG6Th8dkgVVf35XBn61sLH5ErEUBgrgA7UvQDAghoIUCQus2O1M1B6kvhztZf0aLoLAIBBQQIUgoUgSkggIBzAYKUnSBlHjaPfjHc3vo25+KMgAACpgBBij5AAAEtBAhSNoNUfd0Xwh0tb9ei6CwCAQUECFIKFIEpIICAcwGC1O2CVKM0PL5LouZ7pOqiXwh3thKknLccIyBgCRCkaAQEENBCgCB1myDVcuOwuRmkav8m3NH2q1oUnUUgoIAAQUqBIjAFBBBwLkCQul2QmrsjVff5cEfLO5yLMwICCLAjRQ8ggIA2AgQpe0EqWF/3V8H2ll/TpvAsBAGPBdiR8rgA3B4BBNwRIEgtEqRqqyTQ0igNj82ekaqPfi7c3vpOd9QZBQEECFL0AAIIaCFAkLKzI/WAVNTXfjbc3vouLYrOIhBQQIAgpUARmAICCDgXIEgttiNVPbsjtVOifVaQ+stwe+tvOBdnBAQQMAUIUvQBAghoIUCQWjxIBVsapf6xnVL3iBmkop8JxVreo0XRWQQCCggQpBQoAlNAAAHnAgSp2wSp1kapf81skIpG/zzU0fKkc3FGQAABdqToAQQQ0EbAClLnBvoSR07I+HPPS/bqS2Kk+dHistpqCbY2Sf1rHr6xI/WpUKzlKW0Kz0IQ8FiAHSmPC8DtEUDAHQErSJ0f6EscJkjNFV0QpOqifxZqb3mvO+qMggACBCl6AAEEtBCwgtSFwb7EoePWjtTU2DWZSaW1WJuTRVhBqq1J6l9t7kjtMH8i5pOh9ubfdDIm1yKAwCsCBCm6AQEEtBBInr64Nz043Hfth/vl+g/3y9SL4zKTTIkxldNifYUuIh+kmmeD1ANSUVfzX0Ptre8rdDyuQwCBmwUIUnQEAghoIZA8d2lvbjLVlzx5Tq7/5JBM9J+S3LW4tStlTE2JGFos844XYQWpWLPUv+rlM1IfD8Wa/9UdD8QFCCBwSwGCFI2BAAJaCKSHrr5nJpv99NSL1yR5+rzE9x2RiWOnJTeeyIep7JQW67zTRZhBKhRrkbpXPSR1j5o7UtGPhWLNv3Wn4/D3CCBwawGCFJ2BAAJaCBiGsTJ5efS1K3K5b5vnoyZPX5DE/qMy0W+GqdmdKR+GqQVBqrb2v4Q6Wv61FkVnEQgoIECQUqAITAEBBNwTyIyMvX4mnfm77EvXVk6eyu9MTd7YmUrOPuZz73bKj2QFqfbZHalHHpBgXe1HA7GW31F+4kwQgRIRIEiVSKGYJgII2BN49tlny35u56NPzmSzz2RfvFadPHVO4i/0y+Tx2cd8PgtTVpDqaJW6Rx/Mf2svWvORUHvLv7GnyV8hgMBSAgSppYT4/xFAoOQEDMMomxode2cunflM9sqLkjx1QeIHjsrk8TP5M1M++jZfWdTckXolSAXqo38abGv63ZIrKhNGQFEBgpSihWFaCCDgTMA8M5UZufpTM5nsd/Jh6rzEDx6bfcwXl5nJtBg5/V+NYAWpjjZrN6r+kR1SHq39k1B7879zpsvVCCBwQ4AgRS8ggIC2AoZhrMgOjb15ZirzV5krLwUnT52TxIH+2TA1kd+Z0jxMlUdrJNjZKnV9O6Tu0R0SiNY9E4w1vl/borMwBIosQJAqMji3QwCB4gqYj/kyQ1efmpnKPpMdHaucPGmGqWMyeeLsK9/m0/ilnfODVHm09kPhWPO/L24VuBsC+goQpPStLStDAIFZAeP73y9Pr9v4q8ZU7rPZ4atihqn4oWOSPHEuH6bMA+ia7kzlg1Sb1PU9IPWPmofNa/8oGGv+fZoDAQTcESBIuePIKAggoLiAdWZqdOy1M6nMtzMjV8V8NcKEeWbqxs7UZEqM6WnFV3Hn0zODVKgrJtHd260gVRat+cNwrOU/3vlIXIEAArcSIEjRFwgg4BsBM0ylh0beYWSnP5kZuRKZPHFeEubO1EnzMV9CpidTIpqFKStIdcckumu79QqE8traPwi3Nz3tm6KzUASWWYAgtczADI8AAmoJGIZRnhm++tRMJvsnmeHR0OSJc5I4dFzM3+jLXZ99NUJOn52pWwSpp8PtTX+gVlWYDQKlK0CQKt3aMXMEEChQwAxT6ZErbzXSU3+dGRqVyZNnJXHohPWKhNy16zKdTGuzM2UFqZ52ie6cfbRXW/2fwu0tHyiQjssQQGCeAEGKlkAAAV8KmK9GSA6Nvm7FVO6bmcujYu1MHZ7dmRqP5x/zzcyUvE15nflor0Oiu7ZZ75GqiNb8fjDW/EclvzAWgIAiAgQpRQrBNBBAoPgCxrNGWWbX2K8b2cxH05dHqyaOn5EJc2fq9HmZsr7NZ56ZKu0wZQWpng6J7swHqbJo1X8Ix1o/WHxt7oiAngIEKT3ryqoQQMCmgLFvX0Um1vWUMTX1kfTAcLkVpg6bj/kuSG78ukynMiX9mM8MUuGeTqndufXGjtT7g7HmZ2zy8GcIILCEAEGKFkEAAd8LmGemUkOjvyTZ3JfSg8PWb/JNHDF3pi7K1LXr1numSvUxnxWkVnVK7cNbpf7RB6Witvr3grHmP/Z90QFAwCUBgpRLkAyDAAKlLWD9nMzwlZ+fzk59PT0wLBPHzsikFaYuyNS12cd8hlFyi7Qe7fV2SfShLfkgFa363WBby5+W3EKYMAKKChCkFC0M00IAgeILmG9Az6y7+0kjM/Wh1OXL1RP9Z2Ti6ElJWWHqusyYj/lK7AB6eV2thHs7pXY2SJVHq/5tqK3lw8XX5Y4I6ClAkNKzrqwKAQQKFOjv7w+srmt6ciab/Xj64pBMHDstE0dOSurs7M5UiYWphUGq5ndCbU0fLZCHyxBAYJ4AQYqWQAABBOYJmGempkeuviGbynzVeszXf0omjp6S1NnZM1Mp88xUaTzmywepLql96H7r0d7K2qrfjsRa/jNFRwABdwQIUu44MgoCCGgokLx85c2SzX45PTC0InH4pEweOyXJMxetl3Zaj/lK4MyUFaRWd0ntg/kgVV5b81uhWNPHNCwXS0LAEwGClCfs3BQBBEpBwDCMiszw2HuNdOYDqcHL1ROHT1q7U8mzl/JhKm2emVJ7Z2phkKr+l6FY8ydKwZ85IlAKAgSpUqgSc0QAAc8EDMMIZEZffM9MKvWJ1MXLMnHklBWmUudKI0zND1KBaO2/CLQ1/jfPQLkxApoJEKQ0KyjLQQAB9wWs90xdHnmjZKf+NnVpyHphp3kIPXVuQKZeui6GuTOl6GO+BTtS0dqnQm2Nn3JfiRER8KcAQcqfdWfVCCBwhwLme6amRq6+I5dMfSY9OFKROHjMeteUuTNlvmfKMA+gK/jPDFKR1V1S88oZqSdDsaY/V3CqTAmBkhQgSJVk2Zg0Agh4IWA95hsZe99MKvV06uJQ5cTh4y/vTOXPTGWV25mavyNVVlvz7nCs6S+88OOeCOgoQJDSsaqsCQEElk3AMIzg1MiL78olk59MXRyUxJGTMtl/WlLnByRnvgFdscd8C4JUXfW7wq3Nn102IAZGwGcCBCmfFZzlIoCAc4H8b/Nd/QUjnf5K+uJlsR7zHT8r6QtmmJp9NYLz27gygvVob02X1OzIv/6gLBp5Z7it7XOuDM4gCCAgBCmaAAEEEChAwDCMsszIlXfPJNMfTV0aDsf3H5HJE2clfX4wf2YqYx5AL2Bgly8przfPSHVLzY77rCAVqK99R6Cl8fMu34bhEPCtAEHKt6Vn4Qgg4FTAOH8+lA1E3jedTj+dunA5HD90XCaPnZb0hUHJjSeUeMw3P0hV1Fa9PRhr+YLTtXM9AgjkBQhSdAICCCDgQOD8+fOhtlDk16Yn03+WujAgiYPHZfL4GTEf+U2NJzx/NcLCIFXzK8FY05ccLJlLEUBgjgBBinZAAAEEHAqYj/nSg6NvnslkvmgdQH/hqEyePGeFqdx4PP9zMh79s4LUmm6peSD/aG9lTeUvR9pbv+LRdLgtAtoJEKS0KykLQgABLwSMffsqMrGup3KTyQ+lB4YjiX2HrTNTqYtDVpgyMt68GiEfpHqk5oF7rSBVER5HdccAAAkjSURBVI2+KdjW8FUvjLgnAjoKEKR0rCprQgABTwQGBgbCzSsDvzmVTH8wfWGgPHHgmEycOCMZc2fq+oQnZ6YWBKnaql8Mxlq+7gkQN0VAQwGClIZFZUkIIOCdgPWeqdGrb5tKJP/SfLdU/MAxSZrf5rs0JLnrxT+AbgWptT1Ss312R6q29o3BWOM3vBPizgjoJUCQ0querAYBBBQQMAxjZXZ07M25ickvpS4MSvxHh2Ty7EXJXDJ3phJFPTO1IEjVVL4h2N76TQWYmAICWggQpLQoI4tAAAHVBAzDqEgNj713eiLxh5lLw1Xx5w9bB9AzA0Mydd38Nl9xzkyV10dnd6Tusc5IhepqXlfe2vT3qnkxHwRKVYAgVaqVY94IIKC8gPmYLzN85b3TydRHk2cvSeJAf/6lnQPDMl2kM1NWkFrXIzXb8kGqPFr9M6G25u8qj8cEESgRAYJUiRSKaSKAQGkKGP39gWy0+RdyyckvmWEq/sIRSZ66IJlB88zU8h9AzwepVVKzbXM+SNVW/3Qo1vwPpanJrBFQT4AgpV5NmBECCGgokLw88hYjmf6y+dLO8R/st37kOD2QP4BuPeZbpn9mkKpcv0qqt94IUlV7QrGWf1ym2zEsAr4TIEj5ruQsGAEEvBAw9hkVmdjYe3OJxAdSFwarzTNTyVPnJTM4kj8ztUzvmcoHqV6p3rrJ2pEK1tU+VtHa+D0vDLgnAjoKEKR0rCprQgABJQUMwwhkhq6+ZzqZ/MTk6QuS2N8vyVPnJD04kt+ZWoYwVd4wG6S2zAapaM2rK9qavq8kEJNCoAQFCFIlWDSmjAACpStgGEZ5avjK62cmkl9Lnbko139ySFLnLkl6YERycTNMZUQM99aXD1KrpXrL3fkdqWjNoxVtTXvduwMjIeBvAYKUv+vP6hFAwAMBwzBWZIfH3pqbmPhc8tylius/eEHM901Zj/nMMOXimSkrSG1YLdX354NUWW11XzjW/E8eLJtbIqClAEFKy7KyKAQQUF3A/G2+qVjXU9n4xAeTZy9WxvcdFnOHKn15RHLjE2Jk3XnPVHlDnVRuXC3V9901+6PFVbsi7S0/UN2H+SFQKgIEqVKpFPNEAAHtBMwD6FOxsXdmExOfNs9KxfcfzYcp68yUO2HKClJ3rZHqezfmg1R15UORjtYfaYfJghDwSIAg5RE8t0UAAQRMAePZZ8uSO3a+1khnv2V+i+/6jw9Yv8tnvrTz5QPoDqjKG80gtVaq79lgBakVtTXbK2NN+xwMyaUIIDBHgCBFOyCAAAIeC+TPTF15ay4x+RfJ0xfD4z984eYwlZ0qeIYVZpC6e61Ubc4HqUB19f2BjuaDBQ/IhQggcJMAQYqGQAABBBQQMH/oODPy4pPT1+Mfnjh1LpIw34B+9pJ1AN16zDc1JWLc+df58kFqnVRtXm8FqYq6ys3B1tajCiyZKSCghQBBSosysggEENBBwHj66ZXpdz/5lulE8ouTx8/kz0yZ3+azHvOZZ6buPEyZQapq0zqp3DQbpGprNwZjjSd08GINCKggQJBSoQrMAQEEEJgjkBocefX0ZPJ75g8cX//hAckMj0rqwpBMm69GuMPHfPODVHlD9dpQc/MZwBFAwB0BgpQ7joyCAAIIuCqQGhh9W24i8ankqfNV8R8ftA6fpy+ZO1NxMaZytu9lPdrbtE6qZnekysKVveGe1vO2B+APEUDgtgIEKRoEAQQQUFQgPTT6nlx84hOTx88E4vv78z90fGk4vzOVy9l6A3p+R2q9Faas1x/UhLoi7e0Dii6ZaSFQcgIEqZIrGRNGAAE/CUwOjb7BiE9+Y+LYKYm/cNQ6L5W6eFmmzd/ms7EzNT9IrQjXxCp7mob9ZMhaEVhOAYLUcuoyNgIIIOCCwI0zUxNHT8r1Hx+U7MiYdQjdPIAu5s7Ubf69HKTMb+09skMq25uaVtTUjLkwLYZAAAERIUjRBggggEAJCKSGr7xjOp74+MTRU7XxfUes1yKkL16W3HhCjOnpRVdgnZHavD7/+gMzSLX01q2oWzFeAktmigiUhABBqiTKxCQRQAABkezIlV/PXp/49MSRE+WJA8fyL+28cFly8Yn8malb/KtorJfKzeukevMGqXvkAUlJTU3ThqYEnggg4I4AQcodR0ZBAAEEiiKQvjz6+PTE5Lfih0+EEvv7rVcjpM8PSm48LkZu4c5URVO9tRtlvtm8rm+7XKsMRDo7O1NFmSw3QcAHAgQpHxSZJSKAgF4CqYHhR2aSme/EDx6tjD9/WLJjL0nq7CXJjU+IzNwcpqwgdc96qdqUD1KVE9cCK7ZtK/w3Z/SiZDUIOBYgSDkmZAAEEECg+AKZwStvyiUnPxI/0N+ZOHhcMkMjkjJ3pq4lbgpTZpAyf7DY3JGK7t4mlet7V65YseLOf2um+EvkjgiUhABBqiTKxCQRQACBhQKZodE35CaTH0scPN5tnZkaGpXUOXNnKi4yPWNdYO1I3btRqjevl+iubVK1YTX/3aeZEHBRgA+Ui5gMhQACCBRbIHv56pZsIv7XicMnNplnpqbGXpLJ0xckd+26FaasHan77rLOSUV3biVIFbtA3E97AYKU9iVmgQggoLtAZuSlzVOTic/Hf3TwvsShY5K7FpfJk+es/61oiEr1/XdJ1T0bJfrQFqna0Mt/93VvCNZXVAE+UEXl5mYIIIDA8ghkh65uyyVTHx7fd+jRiSMnJTtyVZJnLsrK8vL8o717N0rtjvsIUsvDz6g+FiBI+bj4LB0BBPQSyAwNbZienHp//NCxtycOHpPs1Rcle+UlifR2Wo/3ah64V6rWsyOlV9VZjdcCBCmvK8D9EUAAARcF4oODDeWp3O/FD/b/dvyFfplJp2VFeYX1eK9m22aClIvWDIWAKUCQog8QQAABzQQMw6jIjIx9/KXv/eA3Jo6cLDdmZqRmyyap3nI3QUqzWrMc7wUIUt7XgBkggAACyyKQvnz1w1f+7rv3ZEbGnrB2o+5eK5XrVvHf/WXRZlC/CvCB8mvlWTcCCPhCYPjZ7zZlhoafqdq0vjfU1V5etW5Vny8WziIRKJIAQapI0NwGAQQQ8ErgyrPPVoW6u4PVnZ0rVsRiY17Ng/sioKPA/wfvN2MOq2oksAAAAABJRU5ErkJggg==;" vertex="1" parent="1">
          <mxGeometry x="156.5" y="717.78" width="30.8" height="62.22" as="geometry" />
        </mxCell>
        <mxCell id="DKm6fnlWZH8XbRM5i_I6-24" value="&lt;font style=&quot;font-size: 18px; color: rgb(153, 0, 0);&quot;&gt;&lt;b style=&quot;&quot;&gt;Minio&lt;/b&gt;&lt;/font&gt;" style="text;html=1;align=center;verticalAlign=middle;whiteSpace=wrap;rounded=0;" vertex="1" parent="1">
          <mxGeometry x="114.75" y="780" width="112.5" height="70" as="geometry" />
        </mxCell>
      </root>
    </mxGraphModel>
  </diagram>
</mxfile>
